<svg id="sdg_12_background" xmlns="http://www.w3.org/2000/svg" width="576" height="576" viewBox="0 0 576 576">
  <rect id="Rechteck_357" data-name="Rechteck 357" width="576" height="576" fill="#bf8b2e"/>
  <path id="Icon_12_2_" d="M406.075,225.546c-25.354-19.96-58.935-20.364-71.207-17.532l-1.483.27c-14.161,3.372-36.817,8.9-63.115,41.672-.135.135-.27.4-.4.539l-.27.4a2.175,2.175,0,0,0-.4,1.214,2.541,2.541,0,0,0,.27,1.079l.674.944c3.372,5.529,7.552,12.677,11.059,19.285a.132.132,0,0,0,.135.135,2.326,2.326,0,0,0,2.023,1.214,2.234,2.234,0,0,0,1.618-.674,2.37,2.37,0,0,1,.539-.674c23.466-32.367,41.807-36.817,54.349-39.784l1.484-.4c6.473-1.618,31.018-1.483,48.82,12.542,13.891,10.924,20.9,28.321,20.9,51.787,0,39.245-19.016,54.619-35.064,60.553-24.815,9.306-48.55-3.1-48.82-3.237l-1.079-.539c-13.621-5.934-33.985-18.206-53.136-56.777-38.57-77.546-70.937-84.828-92.38-89.683l-1.079-.27c-9.71-2.158-43.56-3.776-70.128,17.4C95.488,236.066,78.9,257.644,78.9,297.293c0,24.14,4.99,40.189,17.667,56.912,2.832,3.776,31.423,40.594,86.716,29.939,8.9-1.753,20.9-5.934,33.985-15.779l12.138,10.924a2.086,2.086,0,0,0,2.832-.135,1.731,1.731,0,0,0,.539-1.349v-.135l8.766-54.08v-.539a2.166,2.166,0,0,0-.674-1.483,1.732,1.732,0,0,0-1.349-.54h-.944l-51.787,14.43-.944.135a2.176,2.176,0,0,0-.944.539,1.96,1.96,0,0,0,.135,2.832l.539.539,11.6,10.519a56.967,56.967,0,0,1-19.016,8.092C138.1,365.8,118.415,339.5,117.605,338.561l-.27-.4c-9.305-12.272-12.407-22.522-12.407-41.133,0-23.466,6.878-40.863,20.5-51.787,17.262-13.756,41.133-13.891,47.876-12.407l1.214.27c17.532,3.911,41.538,9.44,74.579,75.792,17.128,34.525,38.705,57.047,65.813,68.915a95.636,95.636,0,0,0,41.268,9.575,80.951,80.951,0,0,0,28.726-5.125c15.644-5.8,52.192-25.894,52.192-85.233-.135-38.705-16.993-60.283-31.018-71.477" transform="translate(29.803 73.087)" fill="none"/>
  <g id="sdg_12" transform="translate(54.002 50.398)">
    <path id="Pfad_14228" data-name="Pfad 14228" d="M46.891,62.807h.135v88.469h19.42V35.7H50.937L33,56.6V76.968h.27Z" transform="translate(-33 -32.865)" fill="#fff"/>
    <path id="Pfad_14229" data-name="Pfad 14229" d="M66.47,59.885V73.91h17.8V59.345c0-7.013,3.372-9.036,7.552-9.036,3.776,0,7.013,1.483,7.013,8.766v9.575c0,9.575-.809,13.351-7.148,19.96l-10.924,11.6C70.246,111.537,66.2,118.954,66.2,130.418v21.308h50.573V135.812H84.811v-5.395c0-9.036,3.237-12.407,8.227-17.8l12.407-13.082C115.559,88.745,117.717,82,117.717,70.4V59.21c0-16.588-7.957-24.41-25.489-24.41C75.236,34.666,66.47,43.7,66.47,59.885" transform="translate(-21.426 -33.18)" fill="#fff"/>
    <path id="Icon_12_3_" d="M406.075,225.546c-25.354-19.96-58.935-20.364-71.207-17.532l-1.483.27c-14.161,3.372-36.817,8.9-63.115,41.672-.135.135-.27.4-.4.539l-.27.4a2.175,2.175,0,0,0-.4,1.214,2.541,2.541,0,0,0,.27,1.079l.674.944c3.372,5.529,7.552,12.677,11.059,19.285a.132.132,0,0,0,.135.135,2.326,2.326,0,0,0,2.023,1.214,2.234,2.234,0,0,0,1.618-.674,2.37,2.37,0,0,1,.539-.674c23.466-32.367,41.807-36.817,54.349-39.784l1.484-.4c6.473-1.618,31.018-1.483,48.82,12.542,13.891,10.924,20.9,28.321,20.9,51.787,0,39.245-19.016,54.619-35.064,60.553-24.815,9.306-48.55-3.1-48.82-3.237l-1.079-.539c-13.621-5.934-33.985-18.206-53.136-56.777-38.57-77.546-70.937-84.828-92.38-89.683l-1.079-.27c-9.71-2.158-43.56-3.776-70.128,17.4C95.488,236.066,78.9,257.644,78.9,297.293c0,24.14,4.99,40.189,17.667,56.912,2.832,3.776,31.423,40.594,86.716,29.939,8.9-1.753,20.9-5.934,33.985-15.779l12.138,10.924a2.086,2.086,0,0,0,2.832-.135,1.731,1.731,0,0,0,.539-1.349v-.135l8.766-54.08v-.539a2.166,2.166,0,0,0-.674-1.483,1.732,1.732,0,0,0-1.349-.54h-.944l-51.787,14.43-.944.135a2.176,2.176,0,0,0-.944.539,1.96,1.96,0,0,0,.135,2.832l.539.539,11.6,10.519a56.967,56.967,0,0,1-19.016,8.092C138.1,365.8,118.415,339.5,117.605,338.561l-.27-.4c-9.305-12.272-12.407-22.522-12.407-41.133,0-23.466,6.878-40.863,20.5-51.787,17.262-13.756,41.133-13.891,47.876-12.407l1.214.27c17.532,3.911,41.538,9.44,74.579,75.792,17.128,34.525,38.705,57.047,65.813,68.915a95.636,95.636,0,0,0,41.268,9.575,80.951,80.951,0,0,0,28.726-5.125c15.644-5.8,52.192-25.894,52.192-85.233-.135-38.705-16.993-60.283-31.018-71.477" transform="translate(-17 26.646)" fill="#fff"/>
    <path id="Pfad_14230" data-name="Pfad 14230" d="M144.378,52.637V83.115H137.5V34.7h7.957l8.766,27.782V34.7h6.743V83.115h-7.148Z" transform="translate(3.432 -33.217)" fill="#fff"/>
    <path id="Pfad_14231" data-name="Pfad 14231" d="M157.2,83.115,166.371,34.7h9.305l9.171,48.415h-8.361L175,74.215h-8.631l-1.484,8.9Zm10.249-15.374h6.473l-3.237-19.42h-.135Z" transform="translate(10.299 -33.217)" fill="#fff"/>
    <path id="Pfad_14232" data-name="Pfad 14232" d="M179.1,70.748V47.282c0-7.552,3.506-13.082,12.138-13.082,9.036,0,11.463,4.99,11.463,12.138V52h-7.417V45.663c0-2.967-.944-4.72-3.911-4.72s-4.181,2.023-4.181,4.99V71.961c0,2.967,1.214,4.99,4.181,4.99s3.911-1.888,3.911-4.72v-8.9H202.7v8.361c0,6.878-2.832,12.138-11.463,12.138C182.741,83.829,179.1,78.3,179.1,70.748Z" transform="translate(17.934 -33.391)" fill="#fff"/>
    <path id="Pfad_14233" data-name="Pfad 14233" d="M215.714,61.672h-7.822V82.981H199.8V34.7h8.092V55.2h7.822V34.7h8.227V83.115h-8.227Z" transform="translate(25.15 -33.217)" fill="#fff"/>
    <path id="Pfad_14234" data-name="Pfad 14234" d="M236.814,61.672h-7.822V82.981H220.9V34.7h8.092V55.2h7.822V34.7h8.227V83.115h-8.227Z" transform="translate(32.506 -33.217)" fill="#fff"/>
    <path id="Pfad_14235" data-name="Pfad 14235" d="M241.1,83.115,250.271,34.7h9.306l9.171,48.415h-8.361l-1.484-8.9h-8.631l-1.483,8.9Zm10.115-15.374h6.473l-3.237-19.42h0Z" transform="translate(39.547 -33.217)" fill="#fff"/>
    <path id="Pfad_14236" data-name="Pfad 14236" d="M263.8,34.7h8.092V76.507h9.71v6.608H263.8Z" transform="translate(47.461 -33.217)" fill="#fff"/>
    <path id="Pfad_14237" data-name="Pfad 14237" d="M275.4,34.7h21.713v6.608H290.37V83.115h-8.227V41.308H275.4Z" transform="translate(51.506 -33.217)" fill="#fff"/>
    <path id="Pfad_14238" data-name="Pfad 14238" d="M294,34.7h8.092V83.115H294Z" transform="translate(57.99 -33.217)" fill="#fff"/>
    <path id="Pfad_14239" data-name="Pfad 14239" d="M315.573,57.4h11.6V83.29h-5.8V78.03c-1.079,3.641-3.372,5.8-7.822,5.8-7.013,0-10.25-5.529-10.25-13.082V47.282c0-7.552,3.641-13.082,12.273-13.082,9.036,0,11.6,4.99,11.6,12.138v4.316h-7.418v-4.99c0-2.967-1.079-4.72-4.046-4.72s-4.181,2.023-4.181,4.99V71.961c0,2.967,1.214,4.99,4.046,4.99,2.7,0,4.046-1.483,4.046-4.585V63.735h-3.911V57.4Z" transform="translate(61.232 -33.391)" fill="#fff"/>
    <path id="Pfad_14240" data-name="Pfad 14240" d="M324.2,34.7h19.42v6.608H332.292V55.2h8.092v6.608h-8.092v14.7H343.62v6.608H324.2Z" transform="translate(68.518 -33.217)" fill="#fff"/>
    <path id="Pfad_14241" data-name="Pfad 14241" d="M357.023,33.6,346.638,89.972H340.3L350.684,33.6Z" transform="translate(74.131 -33.6)" fill="#fff"/>
    <path id="Pfad_14242" data-name="Pfad 14242" d="M363.192,60.863V83.115H355.1V34.7h11.868c8.227,0,11.193,4.046,11.193,10.924v6.2c0,5.26-1.888,8.227-6.473,9.305l7.822,21.982h-8.631Zm0-19.555v15.1h2.7c2.832,0,4.046-1.483,4.046-4.046V45.219c0-2.7-1.214-3.911-4.046-3.911Z" transform="translate(79.291 -33.217)" fill="#fff"/>
    <path id="Pfad_14243" data-name="Pfad 14243" d="M145.592,109.515v23.6H137.5V84.7h8.092v21.308l8.9-21.308h7.957l-9.44,21.848,9.71,26.7h-8.631Z" transform="translate(3.432 -15.786)" fill="#fff"/>
    <path id="Pfad_14244" data-name="Pfad 14244" d="M156.9,120.748V97.282c0-7.552,3.776-13.082,12.272-13.082,8.631,0,12.407,5.529,12.407,13.082v23.466c0,7.552-3.776,13.082-12.407,13.082S156.9,128.3,156.9,120.748Zm16.453,1.349V96.068c0-2.967-1.349-4.99-4.181-4.99s-4.181,2.023-4.181,4.99V122.1c0,2.967,1.349,4.99,4.181,4.99C172.139,127.086,173.353,124.928,173.353,122.1Z" transform="translate(10.193 -15.96)" fill="#fff"/>
    <path id="Pfad_14245" data-name="Pfad 14245" d="M185.178,102.637v30.479H178.3V84.7h7.957l8.766,27.782V84.7h6.743v48.415h-7.148Z" transform="translate(17.654 -15.786)" fill="#fff"/>
    <path id="Pfad_14246" data-name="Pfad 14246" d="M198.7,122.94v-6.608h7.552v6.608c0,2.7,1.214,4.316,4.046,4.316,2.562,0,3.776-1.753,3.776-4.316v-1.888c0-2.832-1.079-4.45-3.641-6.878l-4.855-4.855c-4.585-4.585-6.743-7.417-6.743-12.947V94.754c0-6.069,3.506-10.654,11.463-10.654,8.092,0,11.328,4.046,11.328,11.059V99.07h-7.417V94.889c0-2.832-1.349-4.181-3.911-4.181-2.293,0-3.911,1.349-3.911,4.046V95.7c0,2.7,1.484,4.316,3.911,6.608l5.26,5.125c4.451,4.45,6.608,7.283,6.608,12.542v2.293c0,6.608-3.506,11.328-11.868,11.328C201.937,133.864,198.7,129.279,198.7,122.94Z" transform="translate(24.766 -15.995)" fill="#fff"/>
    <path id="Pfad_14247" data-name="Pfad 14247" d="M242.6,84.7v36.682c0,7.552-3.237,12.407-11.463,12.407-8.631,0-12.138-4.855-12.138-12.407V84.7h8.092v37.492c0,2.832,1.079,4.855,4.046,4.855,2.832,0,4.046-1.888,4.046-4.855V84.7Z" transform="translate(31.844 -15.786)" fill="#fff"/>
    <path id="Pfad_14248" data-name="Pfad 14248" d="M262.122,101.693h-.27l-5.529,31.423h-3.776l-6.069-31.423h-.135v31.423H239.6V84.7h9.44l5.26,27.242h.135l4.72-27.242H269.4v48.415h-7.417V101.693Z" transform="translate(39.025 -15.786)" fill="#fff"/>
    <path id="Pfad_14249" data-name="Pfad 14249" d="M293.9,84.7v36.682c0,7.552-3.237,12.407-11.463,12.407-8.631,0-12.138-4.855-12.138-12.407V84.7h8.092v37.492c0,2.832,1.079,4.855,4.046,4.855,2.832,0,4.046-1.888,4.046-4.855V84.7Z" transform="translate(49.727 -15.786)" fill="#fff"/>
    <path id="Pfad_14250" data-name="Pfad 14250" d="M297.878,102.637v30.479H291V84.7h7.957l8.766,27.782V84.7h6.743v48.415h-7.148Z" transform="translate(56.943 -15.786)" fill="#fff"/>
    <path id="Pfad_14251" data-name="Pfad 14251" d="M336.075,97.647v22.387c0,7.417-3.1,12.947-11.733,12.947H311.8V84.7h12.542C332.973,84.7,336.075,90.094,336.075,97.647Zm-12.812,28.86c3.372,0,4.585-2.023,4.585-4.99V96.163c0-2.832-1.349-4.855-4.585-4.855h-3.372v35.2Z" transform="translate(64.195 -15.786)" fill="#fff"/>
    <path id="Pfad_14252" data-name="Pfad 14252" d="M137.5,134.7h12.138c8.227,0,11.194,4.046,11.194,10.924v10.25c0,6.743-2.967,10.924-11.194,10.924h-3.911V183.25h-8.092V134.7Zm8.092,6.608v19.016h2.967c2.832,0,4.046-1.349,4.046-4.046V145.084c0-2.7-1.214-3.911-4.046-3.911h-2.967Z" transform="translate(3.432 1.646)" fill="#fff"/>
    <path id="Pfad_14253" data-name="Pfad 14253" d="M165.792,160.863v22.252H157.7V134.7h11.868c8.227,0,11.194,4.046,11.194,10.924v6.2c0,5.26-1.888,8.226-6.473,9.305l7.822,21.983h-8.631Zm0-19.555v15.1h2.7c2.832,0,4.046-1.483,4.046-4.046v-7.148c0-2.7-1.214-3.911-4.046-3.911Z" transform="translate(10.473 1.646)" fill="#fff"/>
    <path id="Pfad_14254" data-name="Pfad 14254" d="M177.8,170.748V147.282c0-7.552,3.776-13.082,12.272-13.082,8.631,0,12.407,5.529,12.407,13.082v23.466c0,7.552-3.776,13.082-12.407,13.082S177.8,178.3,177.8,170.748Zm16.453,1.349V146.068c0-2.967-1.349-4.99-4.181-4.99s-4.181,2.023-4.181,4.99V172.1c0,2.967,1.349,4.99,4.181,4.99C193.039,177.086,194.253,174.928,194.253,172.1Z" transform="translate(17.48 1.471)" fill="#fff"/>
    <path id="Pfad_14255" data-name="Pfad 14255" d="M223.575,147.682v22.387c0,7.417-3.1,12.947-11.733,12.947H199.3V134.6h12.542C220.473,134.735,223.575,140.129,223.575,147.682Zm-12.812,28.86c3.372,0,4.585-2.023,4.585-4.99V146.2c0-2.832-1.349-4.855-4.585-4.855h-3.372v35.2Z" transform="translate(24.975 1.61)" fill="#fff"/>
    <path id="Pfad_14256" data-name="Pfad 14256" d="M244.1,134.7v36.682c0,7.552-3.237,12.407-11.463,12.407-8.631,0-12.138-4.855-12.138-12.407V134.7h8.092v37.492c0,2.832,1.079,4.855,4.046,4.855,2.832,0,4.046-1.888,4.046-4.855V134.7Z" transform="translate(32.365 1.646)" fill="#fff"/>
    <path id="Pfad_14257" data-name="Pfad 14257" d="M249.392,159.515v23.6H241.3V134.7h8.092v21.308l8.9-21.308h7.957l-9.44,21.848,9.71,26.7h-8.631Z" transform="translate(39.617 1.646)" fill="#fff"/>
    <path id="Pfad_14258" data-name="Pfad 14258" d="M261.2,134.7h21.713v6.608H276.17v41.807h-8.227V141.308H261.2Z" transform="translate(46.555 1.646)" fill="#fff"/>
    <path id="Pfad_14259" data-name="Pfad 14259" d="M279.8,134.7h8.092v48.415H279.8Z" transform="translate(53.039 1.646)" fill="#fff"/>
    <path id="Pfad_14260" data-name="Pfad 14260" d="M289.1,170.748V147.282c0-7.552,3.776-13.082,12.272-13.082,8.631,0,12.407,5.529,12.407,13.082v23.466c0,7.552-3.776,13.082-12.407,13.082C292.876,183.829,289.1,178.3,289.1,170.748Zm16.588,1.349V146.068c0-2.967-1.349-4.99-4.181-4.99s-4.181,2.023-4.181,4.99V172.1c0,2.967,1.349,4.99,4.181,4.99S305.688,174.928,305.688,172.1Z" transform="translate(56.281 1.471)" fill="#fff"/>
    <path id="Pfad_14261" data-name="Pfad 14261" d="M317.478,152.637v30.479H310.6V134.7h7.957l8.766,27.782V134.7h6.743v48.415h-7.147Z" transform="translate(63.777 1.646)" fill="#fff"/>
  </g>
</svg>