<svg id="sdg_15" xmlns="http://www.w3.org/2000/svg" width="576" height="576" viewBox="0 0 576 576">
  <rect id="Rechteck_354" data-name="Rechteck 354" width="576" height="576" fill="#56c02b"/>
  <g id="sdg_15-2" data-name="sdg_15" transform="translate(54 50.402)">
    <path id="Pfad_14161" data-name="Pfad 14161" d="M31.2,56.638V76.868h.135L44.956,62.707h.135v88.6h19.42V35.6H49Z" transform="translate(-31.201 -34.388)" fill="#fff"/>
    <path id="Pfad_14162" data-name="Pfad 14162" d="M99.16,72.282c-7.687,0-13.351,2.7-16.318,7.957h-.135V51.514h33.446V35.6H64.9v65.138h17.8V98.176c0-6.878,3.1-10.519,8.5-10.519,5.934,0,8.361,4.046,8.361,10.384v27.916c0,6.069-2.158,10.384-8.227,10.384-6.608,0-9.036-4.45-9.036-11.194v-14.43H64.5V123.8c0,17.532,7.013,28.86,26.838,28.86,19.69,0,27.647-10.384,27.647-26.433V97.906c0-18.206-9.44-25.624-19.825-25.624" transform="translate(-19.592 -34.388)" fill="#fff"/>
    <path id="Pfad_14163" data-name="Pfad 14163" d="M180.871,287.6a1.209,1.209,0,0,1,1.214,1.214v41.807a1.209,1.209,0,0,1-1.214,1.214H164.014a1.209,1.209,0,0,1-1.214-1.214V288.814a1.209,1.209,0,0,1,1.214-1.214Z" transform="translate(14.678 53.465)" fill="#fff"/>
    <path id="Pfad_14164" data-name="Pfad 14164" d="M386.1,333.8H107.614a1.245,1.245,0,0,0-1.214,1.349v16.993a1.209,1.209,0,0,0,1.214,1.214H386.239a1.209,1.209,0,0,0,1.214-1.214V335.148A1.45,1.45,0,0,0,386.1,333.8" transform="translate(-4.984 69.572)" fill="#fff"/>
    <path id="Pfad_14165" data-name="Pfad 14165" d="M386.1,358.9H107.614a1.209,1.209,0,0,0-1.214,1.214v17.128a1.209,1.209,0,0,0,1.214,1.214H386.239a1.209,1.209,0,0,0,1.214-1.214V360.114A1.33,1.33,0,0,0,386.1,358.9" transform="translate(-4.984 78.323)" fill="#fff"/>
    <path id="Pfad_14166" data-name="Pfad 14166" d="M286.736,255.805c-3.506-2.7-12.812-9.036-24.14-9.036-8.092,0-15.644,3.237-22.387,9.44a2.175,2.175,0,0,0-.809,1.753v1.483a2.263,2.263,0,0,0,.809,1.888,2.117,2.117,0,0,0,2.023.4c.135,0,.4-.135.539-.135a3.084,3.084,0,0,0,1.349-.944c1.483-.944,5.394-2.293,11.194-2.293,5.934,0,17.532,1.618,28.726,12l.27.27a3.42,3.42,0,0,0,4.72,0l.27-.27c11.329-10.519,22.792-12,28.726-12,5.8,0,9.71,1.349,11.193,2.293a5.569,5.569,0,0,0,1.484.944,2.162,2.162,0,0,0,1.618,0,2.312,2.312,0,0,0,1.753-2.293v-1.349a2.374,2.374,0,0,0-.809-1.753c-6.743-6.473-14.43-9.71-22.657-9.71-11.059.135-20.229,6.473-23.871,9.305" transform="translate(41.383 39.137)" fill="#fff"/>
    <path id="Pfad_14167" data-name="Pfad 14167" d="M262.118,171.732a2.257,2.257,0,0,0-1.214,1.483l-.27.944a2.165,2.165,0,0,0,.4,2.158,2.305,2.305,0,0,0,1.753.944h.4a2.278,2.278,0,0,0,1.349-.4c.27,0,.809-.135,1.753-.135,1.214,0,12.542.4,19.96,12.947l.135.135a3.729,3.729,0,0,0,1.753,1.483,2.294,2.294,0,0,0,.944.135,2.014,2.014,0,0,0,1.349-.4l.135-.135a27.686,27.686,0,0,1,12.407-3.1c7.013,0,11.6,2.832,12.677,4.046a3.633,3.633,0,0,0,.944,1.079,2.854,2.854,0,0,0,.944.4h.674a2.538,2.538,0,0,0,1.079-.27,2.713,2.713,0,0,0,1.214-1.484l.27-.809a1.216,1.216,0,0,0,.135-.674,3.939,3.939,0,0,0-.27-1.214c-5.395-9.44-13.217-11.328-18.881-11.328a29.047,29.047,0,0,0-9.98,1.888c-2.562-3.372-9.036-10.519-18.746-10.519a27.9,27.9,0,0,0-10.924,2.832" transform="translate(48.738 12.084)" fill="#fff"/>
    <path id="Pfad_14168" data-name="Pfad 14168" d="M218.109,206.321l.135,1.214a2.152,2.152,0,0,0,1.079,1.888,2.294,2.294,0,0,0,1.888.27c.135,0,.27-.135.4-.135a2.152,2.152,0,0,0,1.214-.944c1.214-.809,4.99-2.427,10.654-2.427,5.395,0,13.621,1.483,21.982,8.361l.135.135a3.063,3.063,0,0,0,2.158.809h.27a2.8,2.8,0,0,0,2.158-1.079l.135-.27c9.306-9.845,19.285-11.328,24.41-11.328a17.446,17.446,0,0,1,7.282,1.349,7.321,7.321,0,0,0,1.484.809,2.681,2.681,0,0,0,1.079,0c.135,0,.4-.135.539-.135a2.664,2.664,0,0,0,1.618-2.428v-1.079a2.351,2.351,0,0,0-.809-1.618c-5.529-4.72-11.463-7.013-17.8-7.013-9.845,0-17.667,5.8-20.9,8.631-2.967-2.023-10.115-6.2-18.611-6.2-7.417,0-14.026,3.1-19.825,9.171a2.477,2.477,0,0,0-.674,2.023" transform="translate(33.949 20.381)" fill="#fff"/>
    <path id="Pfad_14169" data-name="Pfad 14169" d="M113.5,236.936a30.159,30.159,0,0,1,30.209-30.209,8.292,8.292,0,0,1,1.888.135,40.854,40.854,0,0,1,81.592,3.1,39.751,39.751,0,0,1-4.181,17.8,45.656,45.656,0,0,1-9.98,90.223c-1.888,0-60.958-.4-60.958-.4h0a32.344,32.344,0,0,1-23.6-54.484A30.662,30.662,0,0,1,113.5,236.936Z" transform="translate(-2.508 12.154)" fill="#fff"/>
    <path id="Pfad_14170" data-name="Pfad 14170" d="M132.1,34.7h8.092V76.507h9.71v6.608H132.1Z" transform="translate(3.975 -34.7)" fill="#fff"/>
    <path id="Pfad_14171" data-name="Pfad 14171" d="M147.8,34.7h19.42v6.608H155.892V55.2h8.092v6.608h-8.092v14.7H167.22v6.608H147.8Z" transform="translate(9.449 -34.7)" fill="#fff"/>
    <path id="Pfad_14172" data-name="Pfad 14172" d="M165.2,34.7h11.733c8.092,0,10.924,3.776,10.924,10.654v4.99c0,4.046-1.484,6.608-4.855,7.687q6.069,1.416,6.069,8.092V72.6c0,6.878-3.1,10.654-11.194,10.654H165.2Zm8.092,20.364h2.832c2.7,0,3.911-1.349,3.911-3.911V45.219c0-2.7-1.214-3.911-3.911-3.911h-2.832Zm0,6.2v15.1H176.8c2.7,0,4.046-1.349,4.046-3.911V65.179c0-2.562-1.214-3.911-4.046-3.911Z" transform="translate(15.516 -34.7)" fill="#fff"/>
    <path id="Pfad_14173" data-name="Pfad 14173" d="M185.7,34.7h19.42v6.608H193.792V55.2h8.092v6.608h-8.092v14.7H205.12v6.608H185.7Z" transform="translate(22.662 -34.7)" fill="#fff"/>
    <path id="Pfad_14174" data-name="Pfad 14174" d="M209.878,52.637V83.115H203V34.7h7.957l8.766,27.782V34.7h6.743V83.115h-7.148Z" transform="translate(28.693 -34.7)" fill="#fff"/>
    <path id="Pfad_14175" data-name="Pfad 14175" d="M131.1,133.115,140.271,84.7h9.305l9.171,48.415h-8.361l-1.484-8.9h-8.631l-1.483,8.9Zm10.249-15.374h6.473l-3.237-19.42h-.135Z" transform="translate(3.627 -17.269)" fill="#fff"/>
    <path id="Pfad_14176" data-name="Pfad 14176" d="M160.778,102.637v30.479H153.9V84.7h7.957l8.766,27.782V84.7h6.743v48.415h-7.148Z" transform="translate(11.574 -17.269)" fill="#fff"/>
    <path id="Pfad_14177" data-name="Pfad 14177" d="M179.8,84.7h8.092v41.807h9.71v6.608H179.8Z" transform="translate(20.605 -17.269)" fill="#fff"/>
    <path id="Pfad_14178" data-name="Pfad 14178" d="M194.6,133.115,203.771,84.7h9.305l9.171,48.415h-8.362l-1.483-8.9h-8.631l-1.484,8.9Zm10.249-15.374h6.474l-3.237-19.42h-.135Z" transform="translate(25.764 -17.269)" fill="#fff"/>
    <path id="Pfad_14179" data-name="Pfad 14179" d="M224.178,102.637v30.479H217.3V84.7h7.957l8.766,27.782V84.7h6.743v48.415h-7.148Z" transform="translate(33.678 -17.269)" fill="#fff"/>
    <path id="Pfad_14180" data-name="Pfad 14180" d="M262.41,97.647v22.387c0,7.417-3.1,12.947-11.733,12.947H238V84.7h12.542C259.308,84.7,262.41,90.094,262.41,97.647ZM249.6,126.507c3.372,0,4.585-2.023,4.585-4.99V96.163c0-2.832-1.349-4.855-4.585-4.855h-3.372v35.2Z" transform="translate(40.895 -17.269)" fill="#fff"/>
  </g>
</svg>