<svg id="sdg_5" xmlns="http://www.w3.org/2000/svg" width="576" height="576" viewBox="0 0 576 576">
  <rect id="Rechteck_363" data-name="Rechteck 363" width="576" height="576" fill="#ff3a21"/>
  <g id="sdg_5-2" data-name="sdg_5" transform="translate(54.002 50.4)">
    <path id="Pfad_14459" data-name="Pfad 14459" d="M76.76,72.282c-7.687,0-13.351,2.7-16.318,7.957h-.135V51.514H93.752V35.6H42.5v65.138h17.8V98.176c0-6.878,3.1-10.519,8.5-10.519,5.934,0,8.361,4.046,8.361,10.384v27.916c0,6.2-2.158,10.384-8.227,10.384-6.608,0-9.036-4.45-9.036-11.194v-14.43H42.1V123.8c0,17.532,7.013,28.86,26.838,28.86,19.69,0,27.647-10.384,27.647-26.433V97.906c0-18.206-9.305-25.624-19.825-25.624" transform="translate(-42.1 -33.578)" fill="#fff"/>
    <path id="Pfad_14460" data-name="Pfad 14460" d="M368.224,161H296.882a.922.922,0,0,0-.944.944V185.68a.922.922,0,0,0,.944.944H325.2l-31.558,31.558a92.605,92.605,0,0,0-57.586-19.96,93.45,93.45,0,0,0-12.138,186.109v27.242H195.736a.922.922,0,0,0-.944.944v25.354a.922.922,0,0,0,.944.944h28.321v26.838a.922.922,0,0,0,.944.944h25.354a.922.922,0,0,0,.944-.944V438.816h28.186a.922.922,0,0,0,.944-.944V412.518a.922.922,0,0,0-.944-.944H251.3V383.792a93.324,93.324,0,0,0,61.227-145.786l31.018-31.018v26.568a.922.922,0,0,0,.944.944h23.736a.922.922,0,0,0,.944-.944V162.214a1.094,1.094,0,0,0-.944-1.214M236.194,360.191a68.78,68.78,0,1,1,68.78-68.78,68.895,68.895,0,0,1-68.78,68.78" transform="translate(-7.064 10.141)" fill="#fff"/>
    <path id="Pfad_14461" data-name="Pfad 14461" d="M264.889,236.8H181.544a.9.9,0,0,0-.944.809v20.229c0,.539.4.809.944.809h83.345a.9.9,0,0,0,.944-.809V237.609a.9.9,0,0,0-.944-.809" transform="translate(6.184 36.565)" fill="#fff"/>
    <path id="Pfad_14462" data-name="Pfad 14462" d="M264.889,263.5H181.544a.9.9,0,0,0-.944.809v20.229a.9.9,0,0,0,.944.809h83.345a.9.9,0,0,0,.944-.809V264.309a.9.9,0,0,0-.944-.809" transform="translate(6.184 45.874)" fill="#fff"/>
    <path id="Pfad_14463" data-name="Pfad 14463" d="M135.772,57.4h11.6V83.29h-5.8V78.03c-1.079,3.641-3.372,5.8-7.822,5.8-7.013,0-10.25-5.529-10.25-13.082V47.282c0-7.552,3.641-13.082,12.272-13.082,9.036,0,11.6,4.99,11.6,12.138v4.316h-7.417v-4.99c0-2.967-1.079-4.72-4.046-4.72s-4.181,2.023-4.181,4.99V71.961c0,2.967,1.214,4.99,4.046,4.99,2.7,0,4.046-1.483,4.046-4.585V63.735h-3.911V57.4Z" transform="translate(-13.723 -34.064)" fill="#fff"/>
    <path id="Pfad_14464" data-name="Pfad 14464" d="M144.4,34.6h19.42v6.608H152.492V55.1h8.092v6.608h-8.092v14.7H163.82v6.608H144.4Z" transform="translate(-6.436 -33.925)" fill="#fff"/>
    <path id="Pfad_14465" data-name="Pfad 14465" d="M161.2,72.805V66.332h7.552V72.94c0,2.7,1.214,4.316,4.046,4.316,2.562,0,3.776-1.753,3.776-4.316V71.052c0-2.832-1.079-4.45-3.641-6.878l-4.855-4.855c-4.585-4.585-6.743-7.417-6.743-12.947V44.754c0-6.069,3.506-10.654,11.463-10.654,8.092,0,11.328,4.046,11.328,11.059V49.07h-7.417V44.889c0-2.832-1.349-4.181-3.911-4.181-2.293,0-3.911,1.349-3.911,4.046V45.7c0,2.7,1.483,4.316,3.911,6.608l5.26,5.125c4.451,4.45,6.608,7.283,6.608,12.542v2.293c0,6.608-3.641,11.328-11.868,11.328C164.437,83.864,161.2,79.279,161.2,72.805Z" transform="translate(-0.578 -34.1)" fill="#fff"/>
    <path id="Pfad_14466" data-name="Pfad 14466" d="M181.4,70.748V47.282c0-7.552,3.641-13.082,12.138-13.082C202.573,34.2,205,39.19,205,46.338V52h-7.417V45.663c0-2.967-.944-4.72-3.911-4.72s-4.181,2.023-4.181,4.99V71.961c0,2.967,1.214,4.99,4.181,4.99s3.911-1.888,3.911-4.72v-8.9H205v8.361c0,6.878-2.832,12.138-11.463,12.138C185.041,83.829,181.4,78.3,181.4,70.748Z" transform="translate(6.463 -34.064)" fill="#fff"/>
    <path id="Pfad_14467" data-name="Pfad 14467" d="M218.049,61.707h-7.957V83.015H202V34.6h8.092V55.1h7.822V34.6h8.227V83.015h-8.227V61.707Z" transform="translate(13.645 -33.925)" fill="#fff"/>
    <path id="Pfad_14468" data-name="Pfad 14468" d="M223.1,34.6h8.092V76.407h9.71v6.608H223.1Z" transform="translate(21 -33.925)" fill="#fff"/>
    <path id="Pfad_14469" data-name="Pfad 14469" d="M238.9,34.6h19.42v6.608H246.992V55.1h8.092v6.608h-8.092v14.7H258.32v6.608H238.9Z" transform="translate(26.51 -33.925)" fill="#fff"/>
    <path id="Pfad_14470" data-name="Pfad 14470" d="M255.7,70.748V47.282c0-7.552,3.506-13.082,12.137-13.082,9.036,0,11.463,4.99,11.463,12.138V52h-7.417V45.663c0-2.967-.944-4.72-3.911-4.72s-4.181,2.023-4.181,4.99V71.961c0,2.967,1.214,4.99,4.181,4.99s3.911-1.888,3.911-4.72v-8.9H279.3v8.361c0,6.878-2.832,12.138-11.463,12.138C259.341,83.829,255.7,78.3,255.7,70.748Z" transform="translate(32.365 -34.064)" fill="#fff"/>
    <path id="Pfad_14471" data-name="Pfad 14471" d="M292.314,61.707h-7.822V83.015H276.4V34.6h8.092V55.1h7.822V34.6h8.227V83.015h-8.227Z" transform="translate(39.582 -33.925)" fill="#fff"/>
    <path id="Pfad_14472" data-name="Pfad 14472" d="M296.8,34.6h21.713v6.608H311.77V83.015h-8.227V41.208H296.8Z" transform="translate(46.693 -33.925)" fill="#fff"/>
    <path id="Pfad_14473" data-name="Pfad 14473" d="M315.4,34.6h19.42v6.608H323.492V55.1h8.092v6.608h-8.092v14.7H334.82v6.608H315.4Z" transform="translate(53.178 -33.925)" fill="#fff"/>
    <path id="Pfad_14474" data-name="Pfad 14474" d="M340.892,60.9V83.15H332.8V34.6h11.868c8.227,0,11.194,4.046,11.194,10.924v6.2c0,5.26-1.888,8.227-6.473,9.305l7.822,21.982h-8.631Zm0-19.555v15.1h2.7c2.832,0,4.046-1.483,4.046-4.046V45.254c0-2.7-1.214-3.911-4.046-3.911Z" transform="translate(59.244 -33.925)" fill="#fff"/>
    <path id="Pfad_14475" data-name="Pfad 14475" d="M352.5,49.3h11.463v6.608H352.5Z" transform="translate(66.111 -28.8)" fill="#fff"/>
    <path id="Pfad_14476" data-name="Pfad 14476" d="M135.772,107.4h11.6V133.29h-5.8v-5.26c-1.079,3.641-3.372,5.8-7.822,5.8-7.013,0-10.25-5.529-10.25-13.082V97.282c0-7.552,3.641-13.082,12.272-13.082,9.036,0,11.6,4.99,11.6,12.138v4.316h-7.417v-4.99c0-2.967-1.079-4.72-4.046-4.72s-4.181,2.023-4.181,4.99v26.028c0,2.967,1.214,4.99,4.046,4.99,2.7,0,4.046-1.483,4.046-4.585v-8.631h-3.911V107.4Z" transform="translate(-13.723 -16.634)" fill="#fff"/>
    <path id="Pfad_14477" data-name="Pfad 14477" d="M144.4,84.6h8.092v41.807h9.71v6.608H144.4Z" transform="translate(-6.436 -16.494)" fill="#fff"/>
    <path id="Pfad_14478" data-name="Pfad 14478" d="M160.1,84.6h19.42v6.608H168.192V105.1h8.092v6.608h-8.092v14.7H179.52v6.608H160.1Z" transform="translate(-0.963 -16.494)" fill="#fff"/>
    <path id="Pfad_14479" data-name="Pfad 14479" d="M177.5,84.6h8.092v48.415H177.5Z" transform="translate(5.104 -16.494)" fill="#fff"/>
    <path id="Pfad_14480" data-name="Pfad 14480" d="M186.8,120.748V97.282c0-7.552,3.507-13.082,12.138-13.082,9.036,0,11.463,4.99,11.463,12.138V102h-7.417V95.663c0-2.967-.944-4.72-3.911-4.72s-4.181,2.023-4.181,4.99v26.028c0,2.967,1.214,4.99,4.181,4.99s3.911-1.888,3.911-4.72v-8.9H210.4v8.361c0,6.878-2.832,12.138-11.463,12.138S186.8,128.3,186.8,120.748Z" transform="translate(8.346 -16.634)" fill="#fff"/>
    <path id="Pfad_14481" data-name="Pfad 14481" d="M223.314,111.707h-7.822v21.308H207.4V84.6h8.092v20.5h7.822V84.6h8.227v48.415h-8.227Z" transform="translate(15.527 -16.494)" fill="#fff"/>
    <path id="Pfad_14482" data-name="Pfad 14482" d="M244.514,111.707h-7.822v21.308H228.6V84.6h8.092v20.5h7.822V84.6h8.227v48.415h-8.227Z" transform="translate(22.918 -16.494)" fill="#fff"/>
    <path id="Pfad_14483" data-name="Pfad 14483" d="M249.6,84.6h19.42v6.608H257.692V105.1h8.092v6.608h-8.092v14.7H269.02v6.608H249.6Z" transform="translate(30.24 -16.494)" fill="#fff"/>
    <path id="Pfad_14484" data-name="Pfad 14484" d="M267,84.6h8.092v48.415H267Z" transform="translate(36.305 -16.494)" fill="#fff"/>
    <path id="Pfad_14485" data-name="Pfad 14485" d="M275.6,84.6h21.713v6.608H290.57v41.807h-8.227V91.208H275.6Z" transform="translate(39.303 -16.494)" fill="#fff"/>
  </g>
</svg>