<svg id="sdg_10" xmlns="http://www.w3.org/2000/svg" width="576" height="576" viewBox="0 0 576 576">
  <rect id="Rechteck_358" data-name="Rechteck 358" width="576" height="576" fill="#dd1367"/>
  <g id="sdg_10-2" data-name="sdg_10" transform="translate(53.997 50.4)">
    <path id="Pfad_14262" data-name="Pfad 14262" d="M46.14,63.843v88.2h19.3V36.9H50.028L32.2,57.811v20.24h.134L46.006,63.843Z" transform="translate(-32.199 -35.56)" fill="#fff"/>
    <path id="Pfad_14263" data-name="Pfad 14263" d="M124.236,122.626V67c0-17.962-8.981-31.1-28.685-31.1C76.115,35.9,67,48.9,67,67v55.628c0,17.828,8.981,31.1,28.551,31.1,19.7,0,28.685-13.27,28.685-31.1m-37.8,3.083V63.915c0-6.97,2.547-11.93,9.115-11.93,6.836,0,9.383,4.96,9.383,11.93v61.794c0,6.97-2.547,11.93-9.383,11.93-6.568-.134-9.115-4.96-9.115-11.93" transform="translate(-20.352 -35.9)" fill="#fff"/>
    <path id="Pfad_14264" data-name="Pfad 14264" d="M279.468,283.5H173.306a1.238,1.238,0,0,0-1.206,1.341v31.9a1.322,1.322,0,0,0,1.206,1.341H279.468a1.238,1.238,0,0,0,1.206-1.341v-31.9a1.238,1.238,0,0,0-1.206-1.341" transform="translate(15.428 48.391)" fill="#fff"/>
    <path id="Pfad_14265" data-name="Pfad 14265" d="M279.468,232.9H173.306a1.238,1.238,0,0,0-1.206,1.34v31.9a1.322,1.322,0,0,0,1.206,1.34H279.468a1.238,1.238,0,0,0,1.206-1.34v-31.9a1.238,1.238,0,0,0-1.206-1.34" transform="translate(15.428 31.166)" fill="#fff"/>
    <path id="Pfad_14266" data-name="Pfad 14266" d="M277.341,209.913,226.4,158.977a.751.751,0,0,0-1.206,0l-50.936,50.936a.877.877,0,0,0,.67,1.475H276.8A.869.869,0,0,0,277.341,209.913Z" transform="translate(16.08 5.897)" fill="#fff"/>
    <path id="Pfad_14267" data-name="Pfad 14267" d="M287.174,335.741,338.111,284.8a.751.751,0,0,0,0-1.206l-50.936-50.936a.877.877,0,0,0-1.474.67V335.2A.869.869,0,0,0,287.174,335.741Z" transform="translate(54.1 31.001)" fill="#fff"/>
    <path id="Pfad_14268" data-name="Pfad 14268" d="M174.271,345.574l50.936,50.936a.751.751,0,0,0,1.206,0l50.936-50.936a.877.877,0,0,0-.67-1.474H174.807A.839.839,0,0,0,174.271,345.574Z" transform="translate(16.07 69.021)" fill="#fff"/>
    <path id="Pfad_14269" data-name="Pfad 14269" d="M151.513,232.686l-50.936,50.936a.752.752,0,0,0,0,1.206l50.936,50.936a.876.876,0,0,0,1.474-.67V233.222A.817.817,0,0,0,151.513,232.686Z" transform="translate(-9.023 30.978)" fill="#fff"/>
    <path id="Pfad_14270" data-name="Pfad 14270" d="M156.832,55.5l-4.558,29.758h-7.64L138.2,37h7.774l3.753,30.562h.134L153.883,37h6.568l4.423,30.562h.134L168.762,37H175.6l-6.3,48.255h-7.64L156.832,55.5Z" transform="translate(3.887 -35.524)" fill="#fff"/>
    <path id="Pfad_14271" data-name="Pfad 14271" d="M168.4,37h19.3v6.7h-11.26V57.509h8.043v6.568h-8.043V78.553H187.7v6.7H168.4Z" transform="translate(14.168 -35.524)" fill="#fff"/>
    <path id="Pfad_14272" data-name="Pfad 14272" d="M192.636,54.962V85.255H185.8V37h7.909l8.713,27.613V37h6.7V85.255h-6.97Z" transform="translate(20.09 -35.524)" fill="#fff"/>
    <path id="Pfad_14273" data-name="Pfad 14273" d="M206.4,37h8.043V85.255H206.4Z" transform="translate(27.104 -35.524)" fill="#fff"/>
    <path id="Pfad_14274" data-name="Pfad 14274" d="M227.9,59.655h11.528V85.392h-5.764V80.164c-1.072,3.619-3.351,5.764-7.774,5.764-6.97,0-10.187-5.5-10.187-13V49.6c0-7.506,3.619-13,12.2-13,8.981,0,11.528,4.96,11.528,12.064v4.289h-7.372v-4.96c0-2.949-1.072-4.692-4.021-4.692s-4.155,2.011-4.155,4.96v25.87c0,2.949,1.206,4.96,4.021,4.96,2.681,0,4.021-1.474,4.021-4.557V65.955h-3.887v-6.3Z" transform="translate(30.27 -35.66)" fill="#fff"/>
    <path id="Pfad_14275" data-name="Pfad 14275" d="M236.6,37h19.3v6.7h-11.26V57.509h8.043v6.568h-8.043V78.553H255.9v6.7H236.6Z" transform="translate(37.385 -35.524)" fill="#fff"/>
    <path id="Pfad_14276" data-name="Pfad 14276" d="M262.043,63.138V85.255H254V37h11.8c8.177,0,11.125,4.021,11.125,10.857v6.166c0,5.228-1.876,8.177-6.434,9.249l7.775,21.849h-8.579Zm0-19.436V58.715h2.681c2.815,0,4.021-1.474,4.021-4.021v-7.1c0-2.681-1.206-3.887-4.021-3.887Z" transform="translate(43.309 -35.524)" fill="#fff"/>
    <path id="Pfad_14277" data-name="Pfad 14277" d="M162.558,87v36.46c0,7.506-3.217,12.332-11.394,12.332-8.579,0-12.064-4.826-12.064-12.332V87h8.043v37.264c0,2.815,1.072,4.826,4.021,4.826,2.815,0,4.021-1.877,4.021-4.826V87Z" transform="translate(4.193 -18.502)" fill="#fff"/>
    <path id="Pfad_14278" data-name="Pfad 14278" d="M166.336,104.962v30.294H159.5V87h7.909l8.713,27.613V87h6.7v48.255h-7.1Z" transform="translate(11.137 -18.502)" fill="#fff"/>
    <path id="Pfad_14279" data-name="Pfad 14279" d="M192.1,109.655h11.528v25.736h-5.764v-5.228c-1.072,3.619-3.351,5.764-7.775,5.764-6.97,0-10.187-5.5-10.187-13V99.6c0-7.506,3.619-13,12.2-13,8.981,0,11.528,4.96,11.528,12.064v4.289h-7.372v-4.96c0-2.949-1.072-4.691-4.021-4.691s-4.155,2.011-4.155,4.96v25.87c0,2.949,1.206,4.96,4.021,4.96,2.681,0,4.021-1.474,4.021-4.557v-8.579H192.1Z" transform="translate(18.082 -18.639)" fill="#fff"/>
    <path id="Pfad_14280" data-name="Pfad 14280" d="M200.5,87h8.043v41.553h9.651v6.568H200.5Z" transform="translate(25.096 -18.502)" fill="#fff"/>
    <path id="Pfad_14281" data-name="Pfad 14281" d="M216,87h19.3v6.7h-11.26v13.806h8.042v6.568h-8.042v14.477H235.3v6.568H216Z" transform="translate(30.371 -18.502)" fill="#fff"/>
    <path id="Pfad_14282" data-name="Pfad 14282" d="M233.1,87h8.043v48.255H233.1Z" transform="translate(36.193 -18.502)" fill="#fff"/>
    <path id="Pfad_14283" data-name="Pfad 14283" d="M242.1,122.926V99.6c0-7.506,3.619-13,12.064-13,8.981,0,11.394,4.96,11.394,12.064v5.63h-7.372v-6.3c0-2.949-.938-4.691-3.887-4.691s-4.155,2.011-4.155,4.96v25.87c0,2.949,1.206,4.96,4.155,4.96s3.887-1.877,3.887-4.691v-8.847h7.372v8.311c0,6.836-2.815,12.064-11.394,12.064C245.719,135.928,242.1,130.432,242.1,122.926Z" transform="translate(39.256 -18.639)" fill="#fff"/>
    <path id="Pfad_14284" data-name="Pfad 14284" d="M278.317,113.943h-7.774v21.313H262.5V87h8.043v20.375h7.774V87h8.176v48.255h-8.176Z" transform="translate(46.201 -18.502)" fill="#fff"/>
    <path id="Pfad_14285" data-name="Pfad 14285" d="M299.217,113.943h-7.774v21.313H283.4V87h8.043v20.375h7.774V87h8.177v48.255h-8.177Z" transform="translate(53.316 -18.502)" fill="#fff"/>
    <path id="Pfad_14286" data-name="Pfad 14286" d="M304.2,87h19.3v6.7h-11.26v13.806h8.042v6.568h-8.042v14.477H323.5v6.568H304.2Z" transform="translate(60.396 -18.502)" fill="#fff"/>
    <path id="Pfad_14287" data-name="Pfad 14287" d="M321.3,87h8.043v48.255H321.3Z" transform="translate(66.219 -18.502)" fill="#fff"/>
    <path id="Pfad_14288" data-name="Pfad 14288" d="M329.6,87h21.581v6.7h-6.7v41.553H336.3V93.7h-6.7Z" transform="translate(69.045 -18.502)" fill="#fff"/>
    <path id="Pfad_14289" data-name="Pfad 14289" d="M347.9,87h19.3v6.7H356.077v13.806h8.043v6.568h-8.043v14.477h11.26v6.568h-19.3V87Z" transform="translate(75.273 -18.502)" fill="#fff"/>
    <path id="Pfad_14290" data-name="Pfad 14290" d="M371.936,104.962v30.294H365.1V87h7.909l8.713,27.613V87h6.7v48.255h-7.1Z" transform="translate(81.129 -18.502)" fill="#fff"/>
  </g>
</svg>