<svg id="sdg_1" xmlns="http://www.w3.org/2000/svg" width="576" height="576" viewBox="0 0 576 576">
  <path id="Pfad_14580" data-name="Pfad 14580" d="M0,0H576V576H0Z" fill="#e5243b"/>
  <path id="Pfad_14552" data-name="Pfad 14552" d="M62.991,63.042h.135v88.469h19.42V35.8H67.037L49.1,56.838V77.068h.27Z" transform="translate(17.115 12.481)" fill="#fff"/>
  <g id="Gruppe_1023" data-name="Gruppe 1023" transform="translate(419.688 257.857)">
    <path id="Pfad_14553" data-name="Pfad 14553" d="M327.6,207.114a15.914,15.914,0,1,1,15.914,15.914A15.943,15.943,0,0,1,327.6,207.114" transform="translate(-305.483 -191.2)" fill="#fff"/>
    <path id="Pfad_14554" data-name="Pfad 14554" d="M367.842,219.315a21.133,21.133,0,0,1,19.285,21.039v43.965a6.187,6.187,0,0,1-6.2,6.2,6.275,6.275,0,0,1-6.2-6.2V246.558c0-1.483-.4-3.372-2.967-3.372-1.753,0-2.158,1.888-2.293,3.1V359.572a8.9,8.9,0,1,1-17.8,0V294.434a2.4,2.4,0,0,0-2.562-2.562h0a2.4,2.4,0,0,0-2.562,2.562v65.273a8.9,8.9,0,1,1-17.8,0V246.423c0-1.214-.4-3.1-2.158-3.1-2.563,0-2.967,1.888-2.967,3.372v37.761a6.187,6.187,0,0,1-6.2,6.2,6.275,6.275,0,0,1-6.2-6.2V240.489a21.133,21.133,0,0,1,19.285-21.038c.4,0,.674-.135,1.214-.135h34.794a4.5,4.5,0,0,1,1.349,0" transform="translate(-311.2 -181.419)" fill="#fff"/>
  </g>
  <g id="Gruppe_1024" data-name="Gruppe 1024" transform="translate(289.146 267.026)">
    <path id="Pfad_14555" data-name="Pfad 14555" d="M265.374,213.1a15.037,15.037,0,1,0-14.97,15.1,15.227,15.227,0,0,0,14.97-15.1" transform="translate(-207.114 -198)" fill="#fff"/>
    <path id="Pfad_14556" data-name="Pfad 14556" d="M227.346,237.433,214.8,278.161s-2.293,7.417,4.046,9.305,8.227-5.394,8.227-5.394l10.115-33.985s.539-2.562,2.562-2.023,1.214,3.372,1.214,3.372L223.435,313.09h16.318v45.583a7.822,7.822,0,0,0,15.644,0V313.09h4.45v45.583a7.822,7.822,0,0,0,15.644,0V313.09h16.318l-17.532-63.655s-.674-2.832,1.214-3.372c2.023-.539,2.562,2.023,2.562,2.023l10.115,33.985s1.888,7.283,8.227,5.394,4.046-9.305,4.046-9.305L287.9,237.433s-4.45-11.733-14.3-11.733H241.777c-9.98,0-14.43,11.733-14.43,11.733" transform="translate(-214.4 -188.343)" fill="#fff"/>
  </g>
  <g id="Gruppe_1025" data-name="Gruppe 1025" transform="translate(199.055 267.026)">
    <path id="Pfad_14557" data-name="Pfad 14557" d="M198.574,213.1a15.037,15.037,0,1,0-14.97,15.1,15.227,15.227,0,0,0,14.97-15.1" transform="translate(-140.314 -198)" fill="#fff"/>
    <path id="Pfad_14558" data-name="Pfad 14558" d="M160.547,237.433,148,278.161s-2.293,7.417,4.046,9.305,8.227-5.394,8.227-5.394l10.115-33.985s.539-2.562,2.562-2.023,1.214,3.372,1.214,3.372L156.636,313.09h16.318v45.583a7.822,7.822,0,0,0,15.644,0V313.09h4.451v45.583a7.822,7.822,0,0,0,15.644,0V313.09h16.318l-17.532-63.655s-.809-2.832,1.214-3.372,2.562,2.023,2.562,2.023l10.115,33.985s1.888,7.283,8.227,5.394,4.046-9.305,4.046-9.305L221.1,237.433s-4.45-11.733-14.3-11.733H174.977c-9.98,0-14.43,11.733-14.43,11.733" transform="translate(-147.6 -188.343)" fill="#fff"/>
  </g>
  <g id="Gruppe_1026" data-name="Gruppe 1026" transform="translate(367.425 341.202)">
    <path id="Pfad_14559" data-name="Pfad 14559" d="M298.242,278.084A12.542,12.542,0,1,0,285.7,265.542a12.605,12.605,0,0,0,12.542,12.542" transform="translate(-267.821 -253)" fill="#fff"/>
    <path id="Pfad_14560" data-name="Pfad 14560" d="M272.925,309.236c-.674,1.483-1.079,4.585,1.888,5.934,3.506,1.618,5.394-1.753,5.394-1.753L286.95,291.7s1.214-1.483,1.214,0v51.113h0a6.473,6.473,0,1,0,12.947,0V322.587s-.4-2.832,1.888-2.832,1.888,2.832,1.888,2.832v20.229a6.473,6.473,0,1,0,12.947,0V291.7c0-1.483.809-.4.809-.4l5.394,14.835s2.293,6.608,2.967,6.878a4.7,4.7,0,0,0,6.2-2.562,4.643,4.643,0,0,0-.539-4.585h0c-.135-.539-7.957-19.69-8.9-22.387-2.832-8.227-7.957-8.227-12.947-8.362s-7.957,0-7.957,0-3.1-.135-9.71,0c-6.473.27-8.631,3.507-15.779,22.117-.944,2.832-4.45,11.463-4.45,12Z" transform="translate(-272.443 -245.311)" fill="#fff"/>
  </g>
  <g id="Gruppe_1028" data-name="Gruppe 1028" transform="translate(60.553 257.857)">
    <g id="Gruppe_1027" data-name="Gruppe 1027" transform="translate(8.766)">
      <path id="Pfad_14561" data-name="Pfad 14561" d="M99.427,207.114a15.914,15.914,0,1,0-15.914,15.914,15.943,15.943,0,0,0,15.914-15.914" transform="translate(-45.752 -191.2)" fill="#fff"/>
      <path id="Pfad_14562" data-name="Pfad 14562" d="M70.685,219.315A21.133,21.133,0,0,0,51.4,240.354v43.965a6.187,6.187,0,0,0,6.2,6.2,6.275,6.275,0,0,0,6.2-6.2V246.558c0-1.483.4-3.372,2.967-3.372,1.753,0,2.158,1.888,2.293,3.1V359.572a8.9,8.9,0,1,0,17.8,0V294.434a2.4,2.4,0,0,1,2.562-2.562h0a2.4,2.4,0,0,1,2.562,2.562v65.273a8.9,8.9,0,0,0,17.8,0V246.423c0-1.214.4-3.1,2.293-3.1,2.562,0,2.967,1.888,2.967,3.372v37.761a6.2,6.2,0,1,0,12.407,0V240.489a21.133,21.133,0,0,0-19.285-21.038c-.4,0-.674-.135-1.214-.135H71.9a3.566,3.566,0,0,0-1.214,0" transform="translate(-51.4 -181.419)" fill="#fff"/>
    </g>
    <line id="Linie_22" data-name="Linie 22" x1="14.161" y2="74.848" transform="translate(0 109.373)" fill="none"/>
  </g>
  <g id="Gruppe_1029" data-name="Gruppe 1029" transform="translate(143.895 341.202)">
    <path id="Pfad_14563" data-name="Pfad 14563" d="M115.2,267.258a4.6,4.6,0,0,0-8.5,2.427,10.136,10.136,0,0,0,.4,2.023L119.782,294.5a8.071,8.071,0,0,1,.809,2.967v49.09h0a6.2,6.2,0,0,0,12.407,0v-19.42s-.4-2.7,1.888-2.7c2.158,0,1.888,2.7,1.888,2.7v19.42a6.275,6.275,0,0,0,6.2,6.2,6.187,6.187,0,0,0,6.2-6.2v-49.09a7.186,7.186,0,0,1,.809-2.967l11.733-21.038a18.245,18.245,0,0,0,1.483-3.776,4.6,4.6,0,0,0-8.5-2.427h0c-.4.27-6.2,10.654-8.092,12.677a5.491,5.491,0,0,1-3.911,1.888H127.334s-1.888.27-3.911-1.888c-2.023-2.023-7.822-12.407-8.227-12.677Z" transform="translate(-106.7 -248.782)" fill="#fff"/>
    <path id="Pfad_14564" data-name="Pfad 14564" d="M130.842,278.084A12.542,12.542,0,1,0,118.3,265.542a12.605,12.605,0,0,0,12.542,12.542" transform="translate(-102.656 -253)" fill="#fff"/>
    <path id="Pfad_14565" data-name="Pfad 14565" d="M133,284.6l14.161,10.384,6.743,24.68H112.1l6.743-24.68Z" transform="translate(-104.817 -241.984)" fill="#fff"/>
  </g>
  <g id="Gruppe_1030" data-name="Gruppe 1030" transform="translate(163.181 46.663)">
    <path id="Pfad_14566" data-name="Pfad 14566" d="M130.092,59.549v23.6H122V34.6h8.092V55.908l8.9-21.308h7.957l-9.44,21.848,9.71,26.7h-8.631Z" transform="translate(-120.651 -34.6)" fill="#fff"/>
    <path id="Pfad_14567" data-name="Pfad 14567" d="M142.6,34.6h19.42v6.608H150.692V55.1h8.092v6.608h-8.092v14.7H162.02v6.608H142.6Z" transform="translate(-113.47 -34.6)" fill="#fff"/>
    <path id="Pfad_14568" data-name="Pfad 14568" d="M160,34.6h8.092V83.015H160Z" transform="translate(-107.404 -34.6)" fill="#fff"/>
    <path id="Pfad_14569" data-name="Pfad 14569" d="M176.178,52.672V83.15H169.3V34.6h7.957l8.766,27.782V34.6h6.743V83.015h-7.148Z" transform="translate(-104.162 -34.6)" fill="#fff"/>
    <path id="Pfad_14570" data-name="Pfad 14570" d="M190,34.6h19.42v6.608H198.092V55.1h8.092v6.608h-8.092v14.7H209.42v6.608H190Z" transform="translate(-96.945 -34.6)" fill="#fff"/>
    <path id="Pfad_14571" data-name="Pfad 14571" d="M121,133.115,130.171,84.7h9.305l9.171,48.415h-8.361l-1.483-8.9h-8.631l-1.483,8.9Zm10.115-15.374h6.473l-3.1-19.42h-.135Z" transform="translate(-121 -17.134)" fill="#fff"/>
    <path id="Pfad_14572" data-name="Pfad 14572" d="M151.792,110.9V133.15H143.7V84.6h11.868c8.227,0,11.193,4.046,11.193,10.924v6.2c0,5.26-1.888,8.227-6.473,9.305l7.822,21.983h-8.631Zm0-19.555v15.1h2.7c2.832,0,4.046-1.484,4.046-4.046V95.254c0-2.7-1.214-3.911-4.046-3.911Z" transform="translate(-113.086 -17.169)" fill="#fff"/>
    <path id="Pfad_14573" data-name="Pfad 14573" d="M186.322,101.727h-.27l-5.529,31.423h-3.776l-6.069-31.423h-.135V133.15H163.8V84.6h9.44l5.26,27.242h.135l4.72-27.242H193.6v48.415h-7.417V101.727Z" transform="translate(-106.079 -17.169)" fill="#fff"/>
    <path id="Pfad_14574" data-name="Pfad 14574" d="M212.8,84.6v36.682c0,7.552-3.237,12.407-11.463,12.407-8.631,0-12.138-4.855-12.138-12.407V84.6h8.092v37.492c0,2.832,1.079,4.855,4.046,4.855,2.832,0,4.046-1.888,4.046-4.855V84.6Z" transform="translate(-97.224 -17.169)" fill="#fff"/>
    <path id="Pfad_14575" data-name="Pfad 14575" d="M209.2,84.6h21.713v6.608H224.17v41.807h-8.227V91.208H209.2Z" transform="translate(-90.252 -17.169)" fill="#fff"/>
  </g>
</svg>