<svg id="sdg_7" xmlns="http://www.w3.org/2000/svg" width="576" height="576" viewBox="0 0 576 576">
  <rect id="Rechteck_361" data-name="Rechteck 361" width="576" height="576" fill="#fcc30b"/>
  <g id="sdg_7-2" data-name="sdg_7" transform="translate(53.998 50.399)">
    <path id="Pfad_14378" data-name="Pfad 14378" d="M43.6,51.479H73.674l-25.893,99.8H67.066L92.42,53.5V35.7H43.6Z" transform="translate(-43.6 -35.7)" fill="#fff"/>
    <path id="Pfad_14379" data-name="Pfad 14379" d="M234.619,206.1a84.154,84.154,0,1,0,84.019,84.154A84.061,84.061,0,0,0,234.619,206.1m-6.2,33.311a6.426,6.426,0,0,1,6.2-5.934,6.323,6.323,0,0,1,6.2,5.934v28.86c0,2.832-2.832,5.8-6.2,5.8a6.309,6.309,0,0,1-6.2-5.8Zm6.2,93.864a43.738,43.738,0,0,1-12.947-85.5v16.318a28.591,28.591,0,1,0,25.893,0V247.772a43.714,43.714,0,0,1-12.947,85.5" transform="translate(-6.299 23.703)" fill="#fff"/>
    <path id="Pfad_14380" data-name="Pfad 14380" d="M154.164,269.678c0-3.776-3.372-6.878-6.473-6.878H110.873c-3.1,0-6.473,3.1-6.473,6.878s3.372,6.878,6.473,6.878h36.817c3.1.135,6.473-2.967,6.473-6.878" transform="translate(-22.404 43.47)" fill="#fff"/>
    <path id="Pfad_14381" data-name="Pfad 14381" d="M334.264,269.678c0-3.776-3.372-6.878-6.474-6.878H290.973c-3.1,0-6.473,3.1-6.473,6.878s3.372,6.878,6.473,6.878h36.817c3.1.135,6.474-2.967,6.474-6.878" transform="translate(40.381 43.47)" fill="#fff"/>
    <path id="Pfad_14382" data-name="Pfad 14382" d="M214.678,209.164c3.776,0,6.878-3.372,6.878-6.473V165.873c0-3.1-3.1-6.473-6.878-6.473s-6.878,3.372-6.878,6.473v36.817c0,3.1,3.1,6.473,6.878,6.473" transform="translate(13.643 7.424)" fill="#fff"/>
    <path id="Pfad_14383" data-name="Pfad 14383" d="M214.678,389.264c3.776,0,6.878-3.372,6.878-6.474V345.973c0-3.1-3.1-6.473-6.878-6.473s-6.878,3.372-6.878,6.473v36.817c0,3.1,3.1,6.474,6.878,6.474" transform="translate(13.643 70.21)" fill="#fff"/>
    <path id="Pfad_14384" data-name="Pfad 14384" d="M162.218,239.689c1.888-3.372.539-7.687-2.158-9.171l-32.1-18.341a6.93,6.93,0,0,0-6.878,12l31.962,18.341c2.7,1.484,7.148.4,9.171-2.832" transform="translate(-17.646 25.584)" fill="#fff"/>
    <path id="Pfad_14385" data-name="Pfad 14385" d="M318.483,329.089c1.888-3.237.54-7.687-2.158-9.171l-31.962-18.341a6.93,6.93,0,0,0-6.878,12l31.962,18.341c2.562,1.484,7.148.54,9.036-2.832" transform="translate(36.877 56.75)" fill="#fff"/>
    <path id="Pfad_14386" data-name="Pfad 14386" d="M249.3,217.183c3.372,1.888,7.687.539,9.171-2.158l18.341-31.962a6.93,6.93,0,0,0-12-6.878l-18.341,31.962c-1.484,2.7-.4,7.148,2.832,9.036" transform="translate(26.895 12.216)" fill="#fff"/>
    <path id="Pfad_14387" data-name="Pfad 14387" d="M159.908,373.484c3.372,1.888,7.687.539,9.171-2.158l18.341-31.962a6.93,6.93,0,0,0-12-6.878l-18.341,31.962a7.032,7.032,0,0,0,2.832,9.036" transform="translate(-4.277 66.705)" fill="#fff"/>
    <path id="Pfad_14388" data-name="Pfad 14388" d="M184.511,217.283c3.237-1.888,4.316-6.339,2.7-9.036l-18.341-31.962a7.019,7.019,0,0,0-9.171-2.158c-3.372,1.888-4.316,6.473-2.7,9.036l18.341,31.962c1.483,2.7,5.8,4.046,9.171,2.158" transform="translate(-4.336 12.25)" fill="#fff"/>
    <path id="Pfad_14389" data-name="Pfad 14389" d="M274.311,373.383a6.841,6.841,0,0,0,2.7-9.036l-18.341-31.962a7.019,7.019,0,0,0-9.171-2.158c-3.372,1.888-4.316,6.473-2.7,9.036l18.341,31.962c1.483,2.7,5.8,4.046,9.171,2.158" transform="translate(26.969 66.67)" fill="#fff"/>
    <path id="Pfad_14390" data-name="Pfad 14390" d="M275.12,239.611c1.888,3.237,6.339,4.316,9.036,2.7l31.962-18.341a6.848,6.848,0,0,0,2.158-9.171c-1.888-3.371-6.473-4.315-9.036-2.7L277.278,230.44c-2.562,1.484-4.046,5.8-2.158,9.171" transform="translate(36.814 25.526)" fill="#fff"/>
    <path id="Pfad_14391" data-name="Pfad 14391" d="M119.028,329.311c1.888,3.237,6.338,4.316,9.036,2.7l31.962-18.341a6.848,6.848,0,0,0,2.158-9.171c-1.888-3.371-6.473-4.316-9.036-2.7l-31.962,18.341c-2.7,1.483-4.046,5.934-2.158,9.17" transform="translate(-17.611 56.798)" fill="#fff"/>
    <path id="Pfad_14392" data-name="Pfad 14392" d="M120.9,35.8h11.733c8.092,0,10.924,3.776,10.924,10.654v4.99c0,4.046-1.483,6.608-4.855,7.687q6.069,1.416,6.069,8.092V73.7c0,6.878-3.1,10.654-11.194,10.654H120.9Zm8.227,20.364h2.832c2.7,0,3.911-1.349,3.911-3.911V46.319c0-2.7-1.214-3.911-3.911-3.911h-2.832Zm0,6.2v15.1h3.506c2.7,0,4.046-1.349,4.046-3.911V66.279c0-2.562-1.214-3.911-4.046-3.911Z" transform="translate(-16.652 -35.666)" fill="#fff"/>
    <path id="Pfad_14393" data-name="Pfad 14393" d="M141.4,35.8h19.42v6.608H149.492V56.3h8.092v6.608h-8.092v14.7H160.82v6.608H141.4Z" transform="translate(-9.506 -35.666)" fill="#fff"/>
    <path id="Pfad_14394" data-name="Pfad 14394" d="M166.9,77.607H179.3v6.608H158.4V77.607l12.812-35.2H159.749V35.8h20.094v6.608Z" transform="translate(-3.578 -35.666)" fill="#fff"/>
    <path id="Pfad_14395" data-name="Pfad 14395" d="M175.9,84.215,185.071,35.8h9.306l9.171,48.415h-8.361l-1.484-8.9h-8.631l-1.483,8.9Zm10.25-15.374h6.473l-3.237-19.42h-.135Z" transform="translate(2.521 -35.666)" fill="#fff"/>
    <path id="Pfad_14396" data-name="Pfad 14396" d="M214.614,62.772h-7.822V84.081H198.7V35.8h8.092V56.3h7.822V35.8h8.227V84.215h-8.227Z" transform="translate(10.471 -35.666)" fill="#fff"/>
    <path id="Pfad_14397" data-name="Pfad 14397" d="M219.8,35.8h8.092V77.607h9.71v6.608H219.8Z" transform="translate(17.826 -35.666)" fill="#fff"/>
    <path id="Pfad_14398" data-name="Pfad 14398" d="M235.5,35.8h11.733c8.092,0,10.924,3.776,10.924,10.654v4.99c0,4.046-1.483,6.608-4.855,7.687q6.069,1.416,6.069,8.092V73.7c0,6.878-3.1,10.654-11.194,10.654H235.5Zm8.227,20.364h2.832c2.7,0,3.911-1.349,3.911-3.911V46.319c0-2.7-1.214-3.911-3.911-3.911h-2.832Zm0,6.2v15.1h3.506c2.7,0,4.046-1.349,4.046-3.911V66.279c0-2.562-1.214-3.911-4.046-3.911Z" transform="translate(23.301 -35.666)" fill="#fff"/>
    <path id="Pfad_14399" data-name="Pfad 14399" d="M254.8,84.215,263.971,35.8h9.305l9.17,48.415h-8.361l-1.484-8.9h-8.631l-1.484,8.9Zm10.115-15.374h6.473l-3.237-19.42h-.135Z" transform="translate(30.029 -35.666)" fill="#fff"/>
    <path id="Pfad_14400" data-name="Pfad 14400" d="M285.592,61.963V84.215H277.5V35.8h11.868c8.227,0,11.194,4.046,11.194,10.924v6.2c0,5.26-1.888,8.227-6.473,9.305l7.822,21.982h-8.631Zm0-19.555v15.1h2.7c2.832,0,4.046-1.483,4.046-4.046V46.319c0-2.7-1.214-3.911-4.046-3.911Z" transform="translate(37.941 -35.666)" fill="#fff"/>
    <path id="Pfad_14401" data-name="Pfad 14401" d="M297.6,35.8h19.42v6.608H305.692V56.3h8.092v6.608h-8.092v14.7H317.02v6.608H297.6Z" transform="translate(44.949 -35.666)" fill="#fff"/>
    <path id="Pfad_14402" data-name="Pfad 14402" d="M344,35.8V72.482c0,7.552-3.237,12.407-11.463,12.407-8.631,0-12.138-4.855-12.138-12.407V35.8h8.092V73.292c0,2.832,1.079,4.855,4.046,4.855,2.832,0,4.046-1.888,4.046-4.855V35.8Z" transform="translate(52.898 -35.666)" fill="#fff"/>
    <path id="Pfad_14403" data-name="Pfad 14403" d="M347.878,53.737V84.215H341V35.8h7.957l8.766,27.782V35.8h6.743V84.215h-7.148Z" transform="translate(60.08 -35.666)" fill="#fff"/>
    <path id="Pfad_14404" data-name="Pfad 14404" d="M386.075,48.747V71.134c0,7.417-3.1,12.947-11.733,12.947H361.8V35.8h12.542C382.973,35.8,386.075,41.194,386.075,48.747Zm-12.812,28.86c3.372,0,4.585-2.023,4.585-4.99V47.263c0-2.832-1.349-4.855-4.585-4.855h-3.371v35.2Z" transform="translate(67.33 -35.666)" fill="#fff"/>
    <path id="Pfad_14405" data-name="Pfad 14405" d="M120.6,123.905v-6.473h7.552v6.608c0,2.7,1.214,4.316,4.046,4.316,2.562,0,3.776-1.753,3.776-4.316v-1.888c0-2.832-1.079-4.45-3.641-6.878l-4.855-4.855c-4.585-4.585-6.743-7.417-6.743-12.947V95.854c0-6.069,3.506-10.654,11.463-10.654,8.092,0,11.328,4.046,11.328,11.059v3.911h-7.417V95.989c0-2.832-1.349-4.181-3.911-4.181-2.293,0-3.911,1.349-3.911,4.046V96.8c0,2.7,1.483,4.316,3.911,6.608l5.26,5.125c4.45,4.45,6.608,7.283,6.608,12.542v2.293c0,6.608-3.506,11.328-11.868,11.328C123.837,134.964,120.6,130.379,120.6,123.905Z" transform="translate(-16.756 -18.444)" fill="#fff"/>
    <path id="Pfad_14406" data-name="Pfad 14406" d="M139.4,134.215,148.571,85.8h9.306l9.171,48.415h-8.362l-1.484-8.9h-8.631l-1.483,8.9Zm10.25-15.374h6.473l-3.237-19.42h-.135Z" transform="translate(-10.203 -18.235)" fill="#fff"/>
    <path id="Pfad_14407" data-name="Pfad 14407" d="M185,85.8v36.682c0,7.552-3.237,12.407-11.463,12.407-8.631,0-12.138-4.855-12.138-12.407V85.8h8.092v37.492c0,2.832,1.079,4.855,4.046,4.855,2.832,0,4.046-1.888,4.046-4.855V85.8Z" transform="translate(-2.533 -18.235)" fill="#fff"/>
    <path id="Pfad_14408" data-name="Pfad 14408" d="M182,85.8h11.733c8.092,0,10.924,3.776,10.924,10.654v4.99c0,4.046-1.484,6.608-4.855,7.687q6.069,1.416,6.069,8.092V123.7c0,6.878-3.1,10.654-11.193,10.654H182Zm8.227,20.364h2.832c2.7,0,3.911-1.349,3.911-3.911V96.319c0-2.7-1.214-3.911-3.911-3.911h-2.832Zm0,6.2v15.1h3.506c2.7,0,4.046-1.349,4.046-3.911v-7.283c0-2.562-1.214-3.911-4.046-3.911Z" transform="translate(4.648 -18.235)" fill="#fff"/>
    <path id="Pfad_14409" data-name="Pfad 14409" d="M202.5,85.8h19.42v6.608H210.592V106.3h8.092v6.608h-8.092v14.7H221.92v6.608H202.5Z" transform="translate(11.795 -18.235)" fill="#fff"/>
    <path id="Pfad_14410" data-name="Pfad 14410" d="M227.992,111.963v22.252H219.9V85.8h11.868c8.227,0,11.194,4.046,11.194,10.924v6.2c0,5.26-1.888,8.227-6.473,9.305l7.822,21.982h-8.631Zm0-19.555v15.1h2.7c2.832,0,4.046-1.483,4.046-4.046V96.319c0-2.7-1.214-3.911-4.046-3.911Z" transform="translate(17.861 -18.235)" fill="#fff"/>
    <path id="Pfad_14411" data-name="Pfad 14411" d="M240,85.8h19.42v6.608H248.092V106.3h8.092v6.608h-8.092v14.7H259.42v6.608H240Z" transform="translate(24.869 -18.235)" fill="#fff"/>
    <path id="Pfad_14412" data-name="Pfad 14412" d="M262.7,85.8h19.42v6.608H270.792V106.3h8.092v6.608h-8.092v14.7H282.12v6.608H262.7Z" transform="translate(32.783 -18.235)" fill="#fff"/>
    <path id="Pfad_14413" data-name="Pfad 14413" d="M286.978,103.737v30.479H280.1V85.8h7.957l8.766,27.782V85.8h6.743v48.415h-7.148Z" transform="translate(38.85 -18.235)" fill="#fff"/>
    <path id="Pfad_14414" data-name="Pfad 14414" d="M300.8,85.8h19.42v6.608H308.892V106.3h8.092v6.608h-8.092v14.7H320.22v6.608H300.8Z" transform="translate(46.064 -18.235)" fill="#fff"/>
    <path id="Pfad_14415" data-name="Pfad 14415" d="M326.292,111.963v22.252H318.2V85.8h11.868c8.227,0,11.194,4.046,11.194,10.924v6.2c0,5.26-1.888,8.227-6.474,9.305l7.822,21.982h-8.631Zm0-19.555v15.1h2.7c2.832,0,4.046-1.483,4.046-4.046V96.319c0-2.7-1.214-3.911-4.046-3.911Z" transform="translate(52.131 -18.235)" fill="#fff"/>
    <path id="Pfad_14416" data-name="Pfad 14416" d="M350.572,108.5h11.6V134.39h-5.8v-5.26c-1.079,3.641-3.371,5.8-7.822,5.8-7.013,0-10.25-5.529-10.25-13.082V98.382c0-7.552,3.641-13.082,12.272-13.082,9.036,0,11.6,4.99,11.6,12.138v4.316h-7.417v-4.99c0-2.967-1.079-4.72-4.046-4.72s-4.181,2.023-4.181,4.99v26.028c0,2.967,1.214,4.99,4.046,4.99,2.7,0,4.046-1.483,4.046-4.585v-8.631h-3.911V108.5Z" transform="translate(59.139 -18.409)" fill="#fff"/>
    <path id="Pfad_14417" data-name="Pfad 14417" d="M359.2,85.8h8.092v48.415H359.2Z" transform="translate(66.424 -18.235)" fill="#fff"/>
    <path id="Pfad_14418" data-name="Pfad 14418" d="M368.4,85.8h19.42v6.608H376.492V106.3h8.092v6.608h-8.092v14.7H387.82v6.608H368.4Z" transform="translate(69.631 -18.235)" fill="#fff"/>
  </g>
</svg>