<?xml version="1.0" encoding="UTF-8"?>
<svg id="sdg_17" data-name="sdg 17" xmlns="http://www.w3.org/2000/svg" viewBox="0 0 576 576">
  <defs>
    <style>
      .cls-1 {
        stroke: #6f0474;
        stroke-miterlimit: 10;
        stroke-width: 3px;
      }

      .cls-1, .cls-2 {
        fill: #fff;
      }

      .cls-3 {
        fill: #6f0474;
      }
    </style>
  </defs>
  <rect id="Rechteck_352" data-name="Rechteck 352" class="cls-3" width="576" height="576"/>
  <g>
    <g>
      <path id="Pfad_14069" data-name="Pfad 14069" class="cls-2" d="M31.44,126.95l14.59-77h14.8l14.58,77h-13.3l-2.36-14.15h-13.73l-2.36,14.15h-12.22ZM47.74,102.5h10.29l-5.15-30.89h-.21l-4.93,30.89Z"/>
      <path id="Pfad_14076" data-name="Pfad 14076" class="cls-2" d="M197.4,110v-10.16h12.01v10.38c0,4.24,1.93,6.78,6.43,6.78,4.07,0,6.01-2.75,6.01-6.78v-2.96c0-4.45-1.72-6.99-5.79-10.8l-7.72-7.62c-7.29-7.2-10.72-11.65-10.72-20.33v-2.54c0-9.53,5.58-16.73,18.23-16.73s18.02,6.35,18.02,17.37v6.14h-11.8v-6.57c0-4.45-2.15-6.57-6.22-6.57-3.65,0-6.22,2.12-6.22,6.35v1.49c0,4.24,2.36,6.78,6.22,10.38l8.37,8.05c7.08,6.99,10.51,11.44,10.51,19.7v3.6c0,10.38-5.79,17.79-18.87,17.79-13.52.21-18.45-6.99-18.45-16.95Z"/>
      <path id="Pfad_14098" data-name="Pfad 14098" class="cls-2" d="M158.48,49.95h30.89v10.51h-18.02v22.09h12.87v10.51h-12.87v23.38h18.02v10.51h-30.89V49.95Z"/>
      <path id="Pfad_14103" data-name="Pfad 14103" class="cls-2" d="M85.39,49.95h12.87v66.49h15.44v10.51h-28.31V49.95Z"/>
      <path id="Pfad_14103-2" data-name="Pfad 14103" class="cls-2" d="M123.67,49.95h12.87v66.49h15.44v10.51h-28.31V49.95Z"/>
    </g>
    <g>
      <path id="Pfad_14069-2" data-name="Pfad 14069" class="cls-2" d="M31.44,230.31l14.59-77h14.8l14.58,77h-13.3l-2.36-14.15h-13.73l-2.36,14.15h-12.22ZM47.74,205.86h10.29l-5.15-30.89h-.21l-4.93,30.89Z"/>
      <path id="Pfad_14085" data-name="Pfad 14085" class="cls-2" d="M119.37,151.98v58.53c0,12.05-5.17,19.8-18.29,19.8-13.77,0-19.37-7.75-19.37-19.8v-58.53h12.91v59.83c0,4.52,1.72,7.75,6.46,7.75s6.46-3.01,6.46-7.75v-59.83h11.84Z"/>
      <path id="Pfad_14196" data-name="Pfad 14196" class="cls-2" d="M201.2,182.28l-7.36,48.03h-12.33l-10.39-77.66h12.55l6.06,49.33h.22l6.49-49.33h10.6l7.14,49.33h.22l6.06-49.33h11.03l-10.17,77.66h-12.33l-7.79-48.03h0Z"/>
      <path id="Pfad_14076-2" data-name="Pfad 14076" class="cls-2" d="M128.54,213.36v-10.16h12.01v10.38c0,4.24,1.93,6.78,6.43,6.78,4.07,0,6.01-2.75,6.01-6.78v-2.96c0-4.45-1.72-6.99-5.79-10.8l-7.72-7.62c-7.29-7.2-10.72-11.65-10.72-20.33v-2.54c0-9.53,5.58-16.73,18.23-16.73s18.02,6.35,18.02,17.37v6.14h-11.8v-6.57c0-4.45-2.15-6.57-6.22-6.57-3.65,0-6.22,2.12-6.22,6.35v1.49c0,4.24,2.36,6.78,6.22,10.38l8.37,8.05c7.08,6.99,10.51,11.44,10.51,19.7v3.6c0,10.38-5.79,17.79-18.87,17.79-13.52.21-18.45-6.99-18.45-16.95Z"/>
      <path id="Pfad_14078" data-name="Pfad 14078" class="cls-2" d="M308.66,196.05h-12.58v34.26h-13.01v-77.83h13.01v32.96h12.58v-32.96h13.23v77.83h-13.23v-34.26Z"/>
      <path id="Pfad_14103-3" data-name="Pfad 14103" class="cls-2" d="M331.98,152.47h13.01v67.21h15.61v10.62h-28.62v-77.83Z"/>
      <g>
        <path id="Pfad_14069-3" data-name="Pfad 14069" class="cls-2" d="M232.35,230.31l14.59-77h14.8l14.58,77h-13.3l-2.36-14.15h-13.73l-2.36,14.15h-12.22ZM248.65,205.86h10.29l-5.15-30.89h-.21l-4.93,30.89Z"/>
        <path id="Pfad_14339" data-name="Pfad 14339" class="cls-2" d="M242.02,139.34h10.92v9.85h-10.92v-9.85ZM255.73,139.34h10.92v9.85h-10.92v-9.85Z"/>
      </g>
      <path id="Pfad_14098-2" data-name="Pfad 14098" class="cls-2" d="M366.97,153.31h30.89v10.51h-18.02v22.09h12.87v10.51h-12.87v23.38h18.02v10.51h-30.89v-77Z"/>
      <path id="Pfad_14095" data-name="Pfad 14095" class="cls-2" d="M416.32,181.84v48.47h-10.94v-77h12.65l13.94,44.18v-44.18h10.72v77h-11.37l-15.01-48.47Z"/>
    </g>
  </g>
  <path class="cls-2" d="M397.14,288h-218.28c-4.44,0-8.04,3.6-8.04,8.04v218.28c0,4.44,3.6,8.04,8.04,8.04h218.28c4.44,0,8.04-3.6,8.04-8.04v-218.28c0-4.44-3.6-8.04-8.04-8.04ZM370.98,480.12c0,4.44-3.6,8.04-8.04,8.04h-149.88c-4.44,0-8.04-3.6-8.04-8.04v-149.88c0-4.44,3.6-8.04,8.04-8.04h149.88c4.44,0,8.04,3.6,8.04,8.04v149.88Z"/>
  <path class="cls-1" d="M393.6,367.13l-28.96-30.78c-.86-.91-2.29-.96-3.2-.1l-77.89,73.29-51.82-55.08c-.86-.91-2.29-.96-3.2-.1l-30.78,28.96c-.91.86-.96,2.29-.1,3.2l82.31,87.49c.86.91,2.29.96,3.2.1l2.56-2.41c.08-.06.16-.11.24-.18l107.54-101.18c.91-.86.96-2.29.1-3.2Z"/>
</svg>