<svg id="sdg_14" xmlns="http://www.w3.org/2000/svg" width="576" height="576" viewBox="0 0 576 576">
  <rect id="Rechteck_355" data-name="Rechteck 355" width="576" height="576" fill="#0a97d9"/>
  <g id="sdg_14-2" data-name="sdg_14" transform="translate(53.998 50.402)">
    <path id="Pfad_14181" data-name="Pfad 14181" d="M65.246,35.7V151.277H45.826V62.807h-.27L31.935,76.968H31.8V56.6L49.737,35.7Z" transform="translate(-31.801 -34.35)" fill="#fff"/>
    <path id="Pfad_14182" data-name="Pfad 14182" d="M114.131,151.277V132.531h7.822v-15.1h-7.822V35.7H94.981L61.4,120.663v12H95.655v18.746h18.476Zm-35.738-33.85L95.925,69.82h.135v47.606Z" transform="translate(-21.48 -34.35)" fill="#fff"/>
    <path id="Pfad_14183" data-name="Pfad 14183" d="M407.738,328.184C400.456,318.474,353.929,259,288.52,259c-56.777,0-117.465,51.517-117.465,51.517S148.264,263.855,101.6,259.27h-1.214a1.813,1.813,0,0,0-1.753,1.888,6.448,6.448,0,0,0,.674,1.753c6.069,9.98,21.308,38.436,21.308,66.757,0,28.456-15.509,56.912-21.443,66.892l-.4.674a1.95,1.95,0,0,0-.27.944,2.014,2.014,0,0,0,1.753,1.888h1.079c46.8-4.316,69.724-51.247,69.724-51.247s60.688,51.517,117.465,51.517c65.408,0,112.07-59.474,119.218-69.184a2.942,2.942,0,0,1,.539-.674,1.216,1.216,0,0,0,.135-.674,5.839,5.839,0,0,0-.135-.674c-.135-.539-.4-.674-.539-.944m-82.94,8.9a19.083,19.083,0,1,1,19.15-19.15,19.137,19.137,0,0,1-19.15,19.15" transform="translate(-8.547 43.497)" fill="#fff"/>
    <path id="Pfad_14184" data-name="Pfad 14184" d="M100.193,178.645c-.135,0-.27-.135-.4-.135A1.844,1.844,0,0,0,97.9,180.4V193.48a2.06,2.06,0,0,0,.539,1.349c31.558,27.377,61.5,1.753,68.375-5.125a1.053,1.053,0,0,1,.539-.539,2.576,2.576,0,0,1,1.079-.4,1.315,1.315,0,0,1,1.214.539l.135.135c35.6,33.985,73.1,6.473,80.782,0l.809-.674a1.216,1.216,0,0,1,.674-.135,1.011,1.011,0,0,1,.674.135l.809.674c7.822,6.473,45.179,33.985,80.782,0l.135-.135a2.009,2.009,0,0,1,1.214-.539,1.531,1.531,0,0,1,1.079.4,1.053,1.053,0,0,1,.539.539c6.878,6.743,36.817,32.5,68.375,5.125a2.06,2.06,0,0,0,.539-1.349V180.4a1.844,1.844,0,0,0-1.888-1.888.5.5,0,0,0-.4.135,7.729,7.729,0,0,0-.944.539c-9.71,4.855-39.784,16.453-67.161-9.44l-.809-.809a1.709,1.709,0,0,0-.809-.135.81.81,0,0,0-.539.135,2.418,2.418,0,0,0-.944.674c-8.092,6.2-45.583,31.558-78.894.4l-.539-.539a1.956,1.956,0,0,0-2.7,0l-.539.539c-33.311,31.018-70.668,5.8-78.894-.4a2.417,2.417,0,0,0-.944-.674c-.135,0-.4-.135-.539-.135-.27,0-.539.135-.809.135l-.809.809c-27.377,25.893-57.451,14.3-67.161,9.44,0-.27-.4-.4-.674-.539" transform="translate(-8.756 12.05)" fill="#fff"/>
    <path id="Pfad_14185" data-name="Pfad 14185" d="M166.884,224.839a1.052,1.052,0,0,1,.539-.539,2.574,2.574,0,0,1,1.079-.4,1.315,1.315,0,0,1,1.214.539l.135.135c35.6,33.985,73.1,6.473,80.782,0l.809-.674a1.216,1.216,0,0,1,.674-.135,1.711,1.711,0,0,1,.809.135l.809.674c7.822,6.473,45.179,33.985,80.782,0v-.135a2.009,2.009,0,0,1,1.214-.539,1.532,1.532,0,0,1,1.079.4,1.053,1.053,0,0,1,.539.539c6.878,6.743,36.817,32.5,68.375,4.99a2.06,2.06,0,0,0,.539-1.349V215.4a1.844,1.844,0,0,0-1.888-1.888.5.5,0,0,0-.4.135,7.742,7.742,0,0,0-.944.539c-9.71,4.855-39.784,16.453-67.161-9.44l-.809-.809a1.71,1.71,0,0,0-.809-.135.81.81,0,0,0-.539.135,2.419,2.419,0,0,0-.944.674c-8.092,6.2-45.583,31.558-78.894.4l-.539-.539a2.4,2.4,0,0,0-1.349-.539,1.732,1.732,0,0,0-1.349.539l-.539.539c-33.311,31.018-70.668,5.8-78.894-.4a1.561,1.561,0,0,0-.944-.674.811.811,0,0,0-.539-.135,1.71,1.71,0,0,0-.809.135l-.809.809c-27.377,25.759-57.451,14.3-67.161,9.44a2.175,2.175,0,0,1-.944-.539c-.135,0-.27-.135-.4-.135A1.844,1.844,0,0,0,97.7,215.4V228.48a2.4,2.4,0,0,0,.539,1.349c31.962,27.512,61.767,1.888,68.645-4.99" transform="translate(-8.826 24.252)" fill="#fff"/>
    <path id="Pfad_14186" data-name="Pfad 14186" d="M140.1,34.7h8.092V76.507h9.71v6.608H140.1Z" transform="translate(5.955 -34.7)" fill="#fff"/>
    <path id="Pfad_14187" data-name="Pfad 14187" d="M155.8,34.7h19.42v6.608H163.892V55.2h8.092v6.608h-8.092v14.7H175.22v6.608H155.8Z" transform="translate(11.43 -34.7)" fill="#fff"/>
    <path id="Pfad_14188" data-name="Pfad 14188" d="M173.2,34.7h11.733c8.092,0,10.924,3.776,10.924,10.654v4.99c0,4.046-1.484,6.608-4.855,7.687q6.069,1.416,6.069,8.092V72.6c0,6.878-3.1,10.654-11.194,10.654H173.2Zm8.227,20.364h2.832c2.7,0,3.911-1.349,3.911-3.911V45.219c0-2.7-1.214-3.911-3.911-3.911h-2.832Zm0,6.2v15.1h3.506c2.7,0,4.046-1.349,4.046-3.911V65.179c0-2.562-1.214-3.911-4.046-3.911Z" transform="translate(17.494 -34.7)" fill="#fff"/>
    <path id="Pfad_14189" data-name="Pfad 14189" d="M193.7,34.7h19.42v6.608H201.792V55.2h8.092v6.608h-8.092v14.7H213.12v6.608H193.7Z" transform="translate(24.641 -34.7)" fill="#fff"/>
    <path id="Pfad_14190" data-name="Pfad 14190" d="M217.978,52.637V83.115H211.1V34.7h7.957l8.766,27.782V34.7h6.743V83.115h-7.148Z" transform="translate(30.707 -34.7)" fill="#fff"/>
    <path id="Pfad_14191" data-name="Pfad 14191" d="M260.7,34.7V71.382c0,7.552-3.237,12.407-11.463,12.407-8.631,0-12.138-4.855-12.138-12.407V34.7h8.092V72.192c0,2.832,1.079,4.855,4.046,4.855,2.832,0,4.046-1.888,4.046-4.855V34.7Z" transform="translate(39.771 -34.7)" fill="#fff"/>
    <path id="Pfad_14192" data-name="Pfad 14192" d="M264.578,52.637V83.115H257.7V34.7h7.957l8.766,27.782V34.7h6.743V83.115h-7.148Z" transform="translate(46.953 -34.7)" fill="#fff"/>
    <path id="Pfad_14193" data-name="Pfad 14193" d="M277.7,34.7h21.713v6.608H292.67V83.115h-8.227V41.308H277.7Z" transform="translate(53.926 -34.7)" fill="#fff"/>
    <path id="Pfad_14194" data-name="Pfad 14194" d="M296.3,34.7h19.42v6.608H304.392V55.2h8.092v6.608h-8.092v14.7H315.72v6.608H296.3Z" transform="translate(60.41 -34.7)" fill="#fff"/>
    <path id="Pfad_14195" data-name="Pfad 14195" d="M321.892,60.863V83.115H313.8V34.7h11.868c8.226,0,11.193,4.046,11.193,10.924v6.2c0,5.26-1.888,8.227-6.473,9.305l7.822,21.982h-8.631Zm0-19.555v15.1h2.7c2.832,0,4.046-1.483,4.046-4.046V45.219c0-2.7-1.214-3.911-4.046-3.911Z" transform="translate(66.512 -34.7)" fill="#fff"/>
    <path id="Pfad_14196" data-name="Pfad 14196" d="M157.946,103.176l-4.585,29.939h-7.687L139.2,84.7h7.822l3.776,30.749h.135L154.979,84.7h6.608l4.45,30.749h.135L169.949,84.7h6.878l-6.339,48.415H162.8l-4.855-29.939Z" transform="translate(5.643 -17.269)" fill="#fff"/>
    <path id="Pfad_14197" data-name="Pfad 14197" d="M166.4,133.115,175.571,84.7h9.306l9.171,48.415h-8.361l-1.483-8.9h-8.631l-1.483,8.9Zm10.25-15.374h6.473l-3.237-19.42h-.135Z" transform="translate(15.125 -17.269)" fill="#fff"/>
    <path id="Pfad_14198" data-name="Pfad 14198" d="M188.3,122.94v-6.608h7.552v6.608c0,2.7,1.214,4.316,4.046,4.316,2.562,0,3.776-1.753,3.776-4.316v-1.888c0-2.832-1.079-4.45-3.641-6.878l-4.855-4.855c-4.585-4.585-6.743-7.417-6.743-12.947V94.754c0-6.069,3.507-10.654,11.463-10.654,8.092,0,11.328,4.046,11.328,11.059V99.07h-7.417V94.889c0-2.832-1.349-4.181-3.911-4.181-2.293,0-3.911,1.349-3.911,4.046V95.7c0,2.7,1.483,4.316,3.911,6.608l5.26,5.125c4.45,4.45,6.608,7.283,6.608,12.542v2.293c0,6.608-3.641,11.328-11.868,11.328C191.537,133.864,188.3,129.279,188.3,122.94Z" transform="translate(22.76 -17.479)" fill="#fff"/>
    <path id="Pfad_14199" data-name="Pfad 14199" d="M207.9,122.94v-6.608h7.552v6.608c0,2.7,1.214,4.316,4.046,4.316,2.563,0,3.776-1.753,3.776-4.316v-1.888c0-2.832-1.079-4.45-3.641-6.878l-4.855-4.855c-4.585-4.585-6.743-7.417-6.743-12.947V94.754c0-6.069,3.506-10.654,11.463-10.654,8.092,0,11.328,4.046,11.328,11.059V99.07h-7.417V94.889c0-2.832-1.349-4.181-3.911-4.181-2.293,0-3.911,1.349-3.911,4.046V95.7c0,2.7,1.483,4.316,3.911,6.608l5.26,5.125c4.45,4.45,6.608,7.283,6.608,12.542v2.293c0,6.608-3.641,11.328-11.868,11.328C211.137,133.864,207.9,129.279,207.9,122.94Z" transform="translate(29.592 -17.479)" fill="#fff"/>
    <path id="Pfad_14200" data-name="Pfad 14200" d="M228.2,84.7h19.42v6.608H236.292V105.2h8.092v6.608h-8.092v14.7H247.62v6.608H228.2Z" transform="translate(36.67 -17.269)" fill="#fff"/>
    <path id="Pfad_14201" data-name="Pfad 14201" d="M253.692,110.863v22.252H245.6V84.7h11.868c8.227,0,11.193,4.046,11.193,10.924v6.2c0,5.26-1.888,8.227-6.473,9.305l7.822,21.982h-8.631Zm0-19.555v15.1h2.7c2.832,0,4.046-1.483,4.046-4.046V95.219c0-2.7-1.214-3.911-4.046-3.911h-2.7Z" transform="translate(42.734 -17.269)" fill="#fff"/>
  </g>
</svg>