<svg id="sdg_9" xmlns="http://www.w3.org/2000/svg" width="576" height="576" viewBox="0 0 576 576">
  <rect id="Rechteck_359" data-name="Rechteck 359" width="576" height="576" fill="#fd6925"/>
  <g id="sdg_9-2" data-name="sdg_9" transform="translate(54.001 50.4)">
    <path id="Pfad_14291" data-name="Pfad 14291" d="M92.612,65.183c0-17.937-7.822-30.883-28.321-30.883C43.657,34.3,35.7,45.494,35.7,63.43V80.423c0,18.881,7.552,28.456,21.443,28.456,8.227,0,13.082-3.776,16.049-9.44h.135v24.949c0,7.013-2.7,12-9.71,12s-9.575-4.046-9.575-11.194V117.51H36.374v6.2c0,16.993,6.2,29,27.647,29,20.5,0,28.591-13.082,28.591-31.153Zm-19.285,17.8c-.4,6.473-3.1,10.519-9.171,10.519-6.608,0-9.171-4.046-9.171-11.6V61.812c0-7.283,2.7-11.6,9.44-11.6,6.473,0,9.036,4.45,9.036,11.6V82.985Z" transform="translate(-35.699 -34.3)" fill="#fff"/>
    <path id="Pfad_14292" data-name="Pfad 14292" d="M103.4,35.7h8.092V84.115H103.4Z" transform="translate(-12.098 -33.809)" fill="#fff"/>
    <path id="Pfad_14293" data-name="Pfad 14293" d="M119.578,53.771V84.25H112.7V35.7h7.957l8.766,27.782V35.7h6.743V84.115h-7.148Z" transform="translate(-8.855 -33.809)" fill="#fff"/>
    <path id="Pfad_14294" data-name="Pfad 14294" d="M157.675,48.782V71.169c0,7.417-3.1,12.947-11.733,12.947H133.4V35.7h12.542C154.573,35.7,157.675,41.229,157.675,48.782Zm-12.812,28.86c3.372,0,4.585-2.023,4.585-4.99V47.3c0-2.832-1.349-4.855-4.585-4.855h-3.371v35.2Z" transform="translate(-1.639 -33.809)" fill="#fff"/>
    <path id="Pfad_14295" data-name="Pfad 14295" d="M178.2,35.7V72.382c0,7.552-3.237,12.407-11.463,12.407-8.631,0-12.138-4.855-12.138-12.407V35.7h8.092V73.192c0,2.832,1.079,4.855,4.046,4.855s4.046-1.888,4.046-4.855V35.7Z" transform="translate(5.752 -33.809)" fill="#fff"/>
    <path id="Pfad_14296" data-name="Pfad 14296" d="M175,73.905V67.432h7.552V74.04c0,2.7,1.214,4.316,4.046,4.316,2.562,0,3.776-1.753,3.776-4.316V72.152c0-2.832-1.079-4.45-3.641-6.878l-4.855-4.855c-4.585-4.585-6.743-7.417-6.743-12.947V45.854c0-6.069,3.506-10.654,11.463-10.654,8.092,0,11.328,4.046,11.328,11.059V50.17h-7.417V45.989c0-2.832-1.349-4.181-3.911-4.181-2.293,0-3.911,1.349-3.911,4.046V46.8c0,2.7,1.483,4.316,3.911,6.608l5.26,5.125c4.45,4.45,6.608,7.283,6.608,12.542v2.293c0,6.608-3.641,11.328-11.868,11.328C178.237,84.964,175,80.379,175,73.905Z" transform="translate(12.863 -33.983)" fill="#fff"/>
    <path id="Pfad_14297" data-name="Pfad 14297" d="M193.8,35.7h21.713v6.608H208.77V84.115h-8.227V42.308H193.8Z" transform="translate(19.418 -33.809)" fill="#fff"/>
    <path id="Pfad_14298" data-name="Pfad 14298" d="M220.492,62V84.25H212.4V35.7h11.868c8.227,0,11.194,4.046,11.194,10.924v6.2c0,5.26-1.888,8.227-6.473,9.305l7.822,21.983h-8.631Zm0-19.555v15.1h2.7c2.832,0,4.046-1.484,4.046-4.046V46.354c0-2.7-1.214-3.911-4.046-3.911Z" transform="translate(25.902 -33.809)" fill="#fff"/>
    <path id="Pfad_14299" data-name="Pfad 14299" d="M232.5,35.7h8.092V84.115H232.5Z" transform="translate(32.908 -33.809)" fill="#fff"/>
    <path id="Pfad_14300" data-name="Pfad 14300" d="M241.8,35.7h19.42v6.608H249.892V56.334h8.092v6.608h-8.092v14.7H261.22V84.25H241.8V35.7Z" transform="translate(36.15 -33.809)" fill="#fff"/>
    <path id="Pfad_14301" data-name="Pfad 14301" d="M267.666,66.574,263.485,77.5H258.9l.944-11.6h7.687v.674Z" transform="translate(42.113 -23.281)" fill="#fff"/>
    <path id="Pfad_14302" data-name="Pfad 14302" d="M103.4,85.7h8.092v48.415H103.4Z" transform="translate(-12.098 -16.377)" fill="#fff"/>
    <path id="Pfad_14303" data-name="Pfad 14303" d="M119.578,103.771V134.25H112.7V85.7h7.957l8.766,27.782V85.7h6.743v48.415h-7.148Z" transform="translate(-8.855 -16.377)" fill="#fff"/>
    <path id="Pfad_14304" data-name="Pfad 14304" d="M140.178,103.771V134.25H133.3V85.7h7.957l8.766,27.782V85.7h6.743v48.415h-7.148Z" transform="translate(-1.674 -16.377)" fill="#fff"/>
    <path id="Pfad_14305" data-name="Pfad 14305" d="M154,121.848V98.382c0-7.552,3.776-13.082,12.272-13.082,8.631,0,12.407,5.529,12.407,13.082v23.466c0,7.552-3.776,13.082-12.407,13.082C157.776,134.929,154,129.4,154,121.848Zm16.588,1.349V97.168c0-2.967-1.349-4.99-4.181-4.99s-4.181,2.023-4.181,4.99V123.2c0,2.967,1.349,4.99,4.181,4.99S170.588,126.028,170.588,123.2Z" transform="translate(5.543 -16.518)" fill="#fff"/>
    <path id="Pfad_14306" data-name="Pfad 14306" d="M200.842,85.7l-9.171,48.415h-8.9L173.6,85.7h8.227l5.529,33.85h.135l5.664-33.85Z" transform="translate(12.375 -16.377)" fill="#fff"/>
    <path id="Pfad_14307" data-name="Pfad 14307" d="M191.9,134.215,201.071,85.8h9.306l9.171,48.415h-8.361l-1.484-8.9h-8.631l-1.483,8.9Zm10.115-15.374h6.473l-3.237-19.42h-.135Z" transform="translate(18.756 -16.344)" fill="#fff"/>
    <path id="Pfad_14308" data-name="Pfad 14308" d="M211.3,85.7h21.713v6.608H226.27v41.807h-8.227V92.308H211.3Z" transform="translate(25.518 -16.377)" fill="#fff"/>
    <path id="Pfad_14309" data-name="Pfad 14309" d="M229.9,85.7h8.092v48.415H229.9Z" transform="translate(32.002 -16.377)" fill="#fff"/>
    <path id="Pfad_14310" data-name="Pfad 14310" d="M239.1,121.848V98.382c0-7.552,3.776-13.082,12.272-13.082,8.631,0,12.407,5.529,12.407,13.082v23.466c0,7.552-3.776,13.082-12.407,13.082C242.876,134.929,239.1,129.4,239.1,121.848Zm16.588,1.349V97.168c0-2.967-1.349-4.99-4.181-4.99s-4.181,2.023-4.181,4.99V123.2c0,2.967,1.349,4.99,4.181,4.99S255.688,126.028,255.688,123.2Z" transform="translate(35.209 -16.518)" fill="#fff"/>
    <path id="Pfad_14311" data-name="Pfad 14311" d="M267.478,103.771V134.25H260.6V85.7h7.957l8.766,27.782V85.7h6.743v48.415h-7.148Z" transform="translate(42.705 -16.377)" fill="#fff"/>
    <path id="Pfad_14312" data-name="Pfad 14312" d="M310.2,85.7v36.682c0,7.552-3.237,12.407-11.463,12.407-8.631,0-12.138-4.855-12.138-12.407V85.7h8.092v37.492c0,2.832,1.079,4.855,4.046,4.855,2.832,0,4.046-1.888,4.046-4.855V85.7Z" transform="translate(51.77 -16.377)" fill="#fff"/>
    <path id="Pfad_14313" data-name="Pfad 14313" d="M314.178,103.771V134.25H307.3V85.7h7.957l8.766,27.782V85.7h6.743v48.415h-7.148Z" transform="translate(58.986 -16.377)" fill="#fff"/>
    <path id="Pfad_14314" data-name="Pfad 14314" d="M352.275,98.782v22.387c0,7.417-3.1,12.947-11.733,12.947H328V85.7h12.542C349.308,85.7,352.275,91.229,352.275,98.782Zm-12.812,28.86c3.371,0,4.585-2.023,4.585-4.99V97.3c0-2.832-1.349-4.855-4.585-4.855h-3.372v35.2Z" transform="translate(66.203 -16.377)" fill="#fff"/>
    <path id="Pfad_14315" data-name="Pfad 14315" d="M103.4,135.7h8.092v48.415H103.4Z" transform="translate(-12.098 1.053)" fill="#fff"/>
    <path id="Pfad_14316" data-name="Pfad 14316" d="M119.578,153.737v30.479H112.7V135.8h7.957l8.766,27.782V135.8h6.743v48.415h-7.148Z" transform="translate(-8.855 1.088)" fill="#fff"/>
    <path id="Pfad_14317" data-name="Pfad 14317" d="M133.3,135.7h19.016v6.608H141.392v14.026h8.092v6.608h-8.092V184.25H133.3Z" transform="translate(-1.674 1.053)" fill="#fff"/>
    <path id="Pfad_14318" data-name="Pfad 14318" d="M157.992,161.963v22.252H149.9V135.8h11.868c8.227,0,11.194,4.046,11.194,10.924v6.2c0,5.26-1.888,8.227-6.473,9.305l7.822,21.982h-8.631Zm0-19.555v15.1h2.7c2.832,0,4.046-1.483,4.046-4.046v-7.148c0-2.7-1.214-3.911-4.046-3.911Z" transform="translate(4.113 1.088)" fill="#fff"/>
    <path id="Pfad_14319" data-name="Pfad 14319" d="M169.1,184.215l9.171-48.415h9.305l9.171,48.415h-8.361l-1.484-8.9h-8.631l-1.484,8.9Zm10.115-15.374h6.473l-3.237-19.42h0Z" transform="translate(10.807 1.088)" fill="#fff"/>
    <path id="Pfad_14320" data-name="Pfad 14320" d="M191,173.871V167.4h7.552v6.608c0,2.7,1.214,4.316,4.046,4.316,2.562,0,3.776-1.753,3.776-4.316v-1.888c0-2.832-1.079-4.451-3.641-6.878l-4.99-4.72C193.158,155.934,191,153.1,191,147.572v-1.618c0-6.069,3.506-10.654,11.463-10.654,8.092,0,11.328,4.046,11.328,11.059v3.911h-7.417v-4.181c0-2.832-1.349-4.181-3.911-4.181-2.293,0-3.911,1.349-3.911,4.046v.944c0,2.7,1.484,4.316,3.911,6.608l5.26,5.125c4.45,4.45,6.608,7.282,6.608,12.542v2.293c0,6.608-3.641,11.328-11.868,11.328C194.1,184.929,191,180.344,191,173.871Z" transform="translate(18.441 0.914)" fill="#fff"/>
    <path id="Pfad_14321" data-name="Pfad 14321" d="M209.7,135.7h21.713v6.608H224.67v41.807h-8.227V142.308H209.7Z" transform="translate(24.961 1.053)" fill="#fff"/>
    <path id="Pfad_14322" data-name="Pfad 14322" d="M236.492,161.963v22.252H228.4V135.8h11.868c8.227,0,11.193,4.046,11.193,10.924v6.2c0,5.26-1.888,8.227-6.473,9.305l7.822,21.982h-8.766Zm0-19.555v15.1h2.7c2.832,0,4.046-1.483,4.046-4.046v-7.148c0-2.7-1.214-3.911-4.046-3.911Z" transform="translate(31.48 1.088)" fill="#fff"/>
    <path id="Pfad_14323" data-name="Pfad 14323" d="M272.1,135.7v36.682c0,7.552-3.237,12.407-11.463,12.407-8.631,0-12.137-4.855-12.137-12.407V135.7h8.092v37.492c0,2.832,1.079,4.855,4.046,4.855,2.832,0,4.046-1.888,4.046-4.855V135.7Z" transform="translate(38.486 1.053)" fill="#fff"/>
    <path id="Pfad_14324" data-name="Pfad 14324" d="M277.292,160.615v23.6H269.2V135.8h8.092v21.308l8.9-21.308h7.957l-9.44,21.848,9.71,26.7h-8.631Z" transform="translate(45.703 1.088)" fill="#fff"/>
    <path id="Pfad_14325" data-name="Pfad 14325" d="M289.2,135.7h21.713v6.608H304.17v41.807h-8.227V142.308H289.2Z" transform="translate(52.676 1.053)" fill="#fff"/>
    <path id="Pfad_14326" data-name="Pfad 14326" d="M331.5,135.7v36.682c0,7.552-3.237,12.407-11.463,12.407-8.631,0-12.138-4.855-12.138-12.407V135.7h8.092v37.492c0,2.832,1.079,4.855,4.046,4.855,2.832,0,4.046-1.888,4.046-4.855V135.7Z" transform="translate(59.195 1.053)" fill="#fff"/>
    <path id="Pfad_14327" data-name="Pfad 14327" d="M336.692,161.963v22.252H328.6V135.8h11.868c8.227,0,11.194,4.046,11.194,10.924v6.2c0,5.26-1.888,8.227-6.473,9.305l7.822,21.982h-8.631Zm0-19.555v15.1h2.7c2.832,0,4.046-1.483,4.046-4.046v-7.148c0-2.7-1.214-3.911-4.046-3.911Z" transform="translate(66.412 1.088)" fill="#fff"/>
    <path id="Pfad_14328" data-name="Pfad 14328" d="M369.778,338.166l-59.2-34.12V235.671a4.024,4.024,0,0,0-2.023-3.506l-61.227-35.334a4.3,4.3,0,0,0-4.046,0L182.05,232.165a4.024,4.024,0,0,0-2.023,3.506v68.375l-59.2,34.12a4.024,4.024,0,0,0-2.023,3.506V412.34a4.025,4.025,0,0,0,2.023,3.507l61.227,35.334a4.064,4.064,0,0,0,4.046,0l59.2-34.12,59.2,34.12a4.064,4.064,0,0,0,4.046,0l61.227-35.334a4.025,4.025,0,0,0,2.023-3.507V341.672A3.769,3.769,0,0,0,369.778,338.166ZM241.39,405.327,192.3,377.006l49.09-28.321v56.642Zm57.182-98.989-49.09,28.321V278.018ZM241.39,334.66,192.3,306.339l49.09-28.321V334.66Zm12.138,7.013,53.136-30.614L359.8,341.672l-53.136,30.614Zm49.09-42.347L253.527,271l49.09-28.321ZM237.344,271l-49.09,28.321V242.684ZM180.3,440.661l-53.136-30.748V348.55L180.3,379.164Zm7.957,0V384.019l49.09,28.321Zm175.455-30.748-53.136,30.614V379.3l53.136-30.614Z" transform="translate(-6.729 22.186)" fill="#fff"/>
  </g>
</svg>