<svg id="sdg_2" xmlns="http://www.w3.org/2000/svg" width="576" height="576" viewBox="0 0 576 576">
  <path id="Pfad_14576" data-name="Pfad 14576" d="M0,0H576V576H0Z" fill="#dda63a"/>
  <path id="Pfad_14537" data-name="Pfad 14537" d="M92.673,135.812H60.711v-5.394c0-9.036,3.237-12.407,8.227-17.8L81.345,99.534C91.459,88.745,93.617,82,93.617,70.4V59.21c0-16.588-7.957-24.41-25.489-24.41-16.993,0-25.759,9.036-25.759,25.219V74.045h17.8v-14.7c0-7.013,3.372-9.036,7.552-9.036,3.776,0,7.013,1.484,7.013,8.766V68.65c0,9.575-.809,13.351-7.148,19.96l-10.924,11.6C46.146,111.536,42.1,118.954,42.1,130.417v21.308H92.673Z" transform="translate(15.136 12.799)" fill="#fff"/>
  <g id="Gruppe_1020" data-name="Gruppe 1020" transform="translate(124.664 236.693)" style="mix-blend-mode: normal;isolation: isolate">
    <path id="Pfad_14538" data-name="Pfad 14538" d="M196.753,392.213v8.362a3.834,3.834,0,0,0,3.776,3.641h95.213a3.859,3.859,0,0,0,3.776-3.776h0v-9.171c53.27-17.4,93.19-60.688,101.956-113.284v-.809A3.769,3.769,0,0,0,397.7,273.4H95.876a3.77,3.77,0,0,0-3.776,3.776l.135,1.753c9.171,53.135,50.169,96.561,104.518,113.284" transform="translate(-92.1 -140.711)" fill="#fff"/>
    <path id="Pfad_14539" data-name="Pfad 14539" d="M249.107,178.907c-1.214,1.753-30.344,43.7.674,77.68,14.3,15.509,12.947,29.265,8.9,38.571h19.96c4.046-13.756,2.427-30.883-13.756-48.55-22.927-24.949.27-58.8.674-59.339,2.7-3.911,1.214-8.766-3.237-11.194-4.72-2.158-10.519-.944-13.216,2.832" transform="translate(-42.094 -175.011)" fill="#fff"/>
    <path id="Pfad_14540" data-name="Pfad 14540" d="M214.163,295.148h19.959c4.046-13.756,2.293-30.883-13.756-48.55-22.927-24.95.27-58.8.674-59.339,2.7-3.776,1.214-8.766-3.237-11.059s-10.384-1.079-13.082,2.7c-1.214,1.753-30.479,43.7.674,77.68,14.026,15.509,12.812,29.265,8.766,38.571" transform="translate(-57.588 -175.001)" fill="#fff"/>
    <path id="Pfad_14541" data-name="Pfad 14541" d="M160.107,178.907c-1.214,1.753-30.344,43.7.674,77.68,14.3,15.644,12.947,29.265,8.9,38.571h19.96c4.046-13.756,2.427-30.883-13.756-48.55-22.927-24.949.27-58.8.674-59.339,2.7-3.776,1.214-8.766-3.237-11.194-4.72-2.158-10.519-.944-13.216,2.832" transform="translate(-73.121 -175.011)" fill="#fff"/>
  </g>
  <g id="Gruppe_1021" data-name="Gruppe 1021" transform="translate(164.313 47.331)" style="mix-blend-mode: normal;isolation: isolate">
    <path id="Pfad_14542" data-name="Pfad 14542" d="M129.592,59.549v23.6H121.5V34.6h8.092V55.908l8.9-21.308h7.957l-9.44,21.848,9.71,26.7h-8.631Z" transform="translate(-121.5 -34.6)" fill="#fff"/>
    <path id="Pfad_14543" data-name="Pfad 14543" d="M142.2,34.6h19.42v6.608H150.292V55.1h8.092v6.608h-8.092v14.7H161.62v6.608H142.2Z" transform="translate(-114.284 -34.6)" fill="#fff"/>
    <path id="Pfad_14544" data-name="Pfad 14544" d="M159.6,34.6h8.092V83.015H159.6Z" transform="translate(-108.218 -34.6)" fill="#fff"/>
    <path id="Pfad_14545" data-name="Pfad 14545" d="M175.778,52.671V83.15H168.9V34.6h7.957l8.766,27.782V34.6h6.743V83.015h-7.148Z" transform="translate(-104.975 -34.6)" fill="#fff"/>
    <path id="Pfad_14546" data-name="Pfad 14546" d="M137.514,111.707h-7.822v21.308H121.6V84.6h8.092v20.5h7.822V84.6h8.227v48.415h-8.227Z" transform="translate(-121.465 -17.169)" fill="#fff"/>
    <path id="Pfad_14547" data-name="Pfad 14547" d="M166.3,84.6v36.682c0,7.552-3.237,12.407-11.463,12.407-8.631,0-12.138-4.855-12.138-12.407V84.6h8.092v37.492c0,2.832,1.079,4.855,4.046,4.855,2.832,0,4.046-1.888,4.046-4.855V84.6Z" transform="translate(-114.109 -17.169)" fill="#fff"/>
    <path id="Pfad_14548" data-name="Pfad 14548" d="M170.278,102.671V133.15H163.4V84.6h7.957l8.766,27.782V84.6h6.743v48.415h-7.148Z" transform="translate(-106.893 -17.169)" fill="#fff"/>
    <path id="Pfad_14549" data-name="Pfad 14549" d="M196.272,107.4h11.6V133.29h-5.8v-5.26c-1.079,3.641-3.372,5.8-7.822,5.8-7.013,0-10.249-5.529-10.249-13.082V97.282c0-7.552,3.641-13.082,12.272-13.082,9.036,0,11.6,4.99,11.6,12.138v4.316h-7.417v-4.99c0-2.967-1.079-4.72-4.046-4.72s-4.181,2.023-4.181,4.99v26.028c0,2.967,1.214,4.99,4.046,4.99,2.7,0,4.046-1.483,4.046-4.585v-8.631h-3.911V107.4Z" transform="translate(-99.711 -17.308)" fill="#fff"/>
    <path id="Pfad_14550" data-name="Pfad 14550" d="M204.9,84.6h19.42v6.608H213.126V105.1h8.092v6.608h-8.092v14.7h11.328v6.608h-19.42V84.6Z" transform="translate(-92.425 -17.169)" fill="#fff"/>
    <path id="Pfad_14551" data-name="Pfad 14551" d="M230.392,110.9V133.15H222.3V84.6h11.868c8.227,0,11.194,4.046,11.194,10.924v6.2c0,5.26-1.888,8.227-6.473,9.305l7.822,21.982h-8.631Zm0-19.555v15.1h2.7c2.832,0,4.046-1.484,4.046-4.046V95.254c0-2.7-1.214-3.911-4.046-3.911Z" transform="translate(-86.359 -17.169)" fill="#fff"/>
  </g>
</svg>