<svg id="sdg_13" xmlns="http://www.w3.org/2000/svg" width="576" height="576" viewBox="0 0 576 576">
  <rect id="Rechteck_356" data-name="Rechteck 356" width="576" height="576" fill="#3f7e44"/>
  <g id="sdg_13-2" data-name="sdg_13" transform="translate(39.601 50.398)">
    <path id="Pfad_14202" data-name="Pfad 14202" d="M62.346,35.7V151.277H42.926V62.807h-.135L29.035,76.968H28.9V56.6L46.837,35.7Z" transform="translate(-28.9 -33.812)" fill="#fff"/>
    <path id="Pfad_14203" data-name="Pfad 14203" d="M115.18,61.2V71.317c0,9.71-5.26,16.183-13.351,18.746,9.71,2.158,14.3,9.036,14.3,19.555v16.993c0,16.049-8.5,26.433-28.186,26.433-19.825,0-26.838-11.193-26.838-28.86v-15.1H78.9v16.588c0,6.878,2.428,11.194,9.036,11.194,5.934,0,8.631-4.316,8.631-10.384v-19.15c0-6.2-2.7-9.44-9.575-9.44H78.767V83.05h7.283c6.339,0,10.384-3.237,10.384-9.44V61.2c0-6.339-2.158-10.384-8.361-10.384-6.069,0-8.361,4.046-8.361,11.194V73.745h-17.4V63.5c0-16.993,7.013-29,27.107-29,17.937.27,25.759,10.249,25.759,26.7" transform="translate(-17.674 -34.232)" fill="#fff"/>
    <path id="Icon_13_1_" d="M481.292,293.667c-15.1-21.173-83.479-105.867-210.52-105.867C143.6,187.8,75.358,272.493,60.118,293.667c-.674.944-1.214,1.753-1.618,2.293q.607,1.011,1.618,2.427c15.1,21.173,83.48,105.867,210.654,105.867,127.04,0,195.415-84.693,210.52-105.867q1.012-1.416,1.618-2.427c-.4-.539-.944-1.349-1.618-2.293M199.835,241.34c1.079-1.618,4.99-6.473,5.394-7.148.944-1.214,2.967-1.484,4.316-1.753s3.1.539,3.372,1.484c.27,1.079-.539,4.99-1.214,5.664-1.888,1.888-6.743,4.72-9.44,4.181-2.023-.135-2.832-1.753-2.427-2.427m-4.585,9.036c.135-.27.4-.4.4-.539,1.618-1.888,4.72-2.158,7.013-2.562,2.158-.4,5.125.674,5.529,2.158s-5.529,4.181-6.608,5.125c-3.1,2.832-7.822,8.5-10.654,9.171a3.225,3.225,0,0,1-2.293-.27,99.105,99.105,0,0,1,6.608-13.082m47.606,97.64c-1.753,6.743-3.776,9.171-5.394,11.328-1.753,2.158-8.092,4.855-12.138,4.585s-4.585-11.059-4.585-16.588c0-1.888-2.7,3.776-4.046-7.687-.944-7.417-5.664.809-5.934-4.181-.4-4.855-2.7-3.911-5.125-7.013s-5.529.27-9.036,1.888c-3.372,1.483-2.023,2.293-6.878.809-.135,0-.135-.135-.27-.135a89.191,89.191,0,0,1-7.013-34.525q0-4.451.4-8.9c.135-.27.4-.539.539-.809,4.72-5.529,4.585-6.878,4.585-6.878l5.125-1.753a81.667,81.667,0,0,1,14.565,3.641c5.125,1.888,13.216,6.339,17.937,4.316,3.372-1.349,6.069-3.237,5.8-6.069-.4-3.506-3.237-4.45-6.608-2.023-1.214.944-3.911-5.395-5.934-4.99-2.023.27,2.562,7.283.809,7.687-1.753.27-5.394-7.282-5.934-8.5s-3.372-4.316-5.8-1.888c-5.26,4.99-13.756,4.72-15.374,5.934-5.125,3.911-6.608-1.214-6.473-4.45.27-.674.4-1.484.674-2.158,1.753-1.888,7.822-2.428,9.845-1.079,2.293,1.483,3.911-.4,4.855-1.349s.539-2.427,0-3.641,1.079-2.158,2.293-2.428,5.125-3.1,6.743-4.046,9.71-1.888,13.486-.135a7.146,7.146,0,0,0,8.9-1.753,24.3,24.3,0,0,1,6.473-5.394c1.349-.539-3.1-4.72-6.743-.27s-5.529,4.855-7.283,4.855-12-2.562-13.216-5.8,3.237-5.664,7.013-7.417,14.161-1.753,16.723-2.428c5.395-1.214,12.272-3.911,15.644-1.483,3.506,2.293-14.43,6.339-8.5,9.575,2.023,1.214,11.6-5.394,14.835-7.148,7.552-3.911-7.417-5.26-5.394-13.216,2.158-9.036-18.341-5.529-28.726-4.72A88.62,88.62,0,0,1,357.489,275.73a20.618,20.618,0,0,1-.4,4.046c-.809,3.237-6.878,5.934-10.384.809-.944-1.349-4.72-4.855-4.585,1.214.135,6.2,5.934,6.743.27,10.384s-6.743,2.832-9.305,3.776-5.125,7.283-4.45,10.654,8.766,12.542,2.7,12.272c-1.349-.135-12-7.283-13.756-12-1.888-4.855-3.911-9.71-5.26-13.351-1.483-3.641-5.125-4.585-8.361-2.427-3.1,2.158.944,4.316-1.349,8.9s-3.911,8.766-7.148,4.855c-8.631-9.845-21.173-4.99-23.2-16.049-1.079-5.934-6.2-5.394-10.519-8.766s-6.743-5.26-7.417-2.7c-.674,2.158,13.486,13.351,14.565,16.318,1.483,4.316-4.181,8.092-8.5,9.036-4.181.944-6.069-2.427-10.115-6.608-4.181-4.316-5.934-7.417-6.2-4.046-.4,4.855,3.911,12,8.092,14.7,3.641,2.293,7.552,3.237,6.473,7.013-1.214,3.641,0,1.618-4.046,5.529-4.046,4.046-4.72,5.26-4.45,10.789s-1.214,5.8-2.023,10.384c-1.484,4.72-3.507.809-5.26,7.552M337.8,312.682c2.967-.27,7.417,3.911,5.664,5.529s-6.2.944-8.5-.809c-2.023-1.753,1.618-4.585,2.832-4.72m-3.641-2.7c-.944-.4-1.753-1.214-2.562-3.372-.674-2.158,1.079-3.372,2.832-2.562,1.753.944,4.181,3.641,4.181,5.125,0,1.349-3.506,1.214-4.45.809m-39.11-.135c-1.753,1.618-6.2.944-8.5-.809-2.158-1.753,1.349-4.585,2.7-4.72,2.967-.27,7.552,3.911,5.8,5.529M258.9,327.382c-1.214,2.023-4.585,16.858-6.743,15.1-2.293-1.753.944-17.262,1.618-18.476,3.372-6.339,10.924-5.934,5.125,3.371m12,57.721a89.929,89.929,0,0,1-24.949-3.506,3.761,3.761,0,0,1-1.079-4.316c2.7-7.148,10.924-9.98,17.4-10.519,14.3-1.349,33.176,9.306,36.278,7.552,2.967-1.753,9.036-9.575,17.937-9.305,6.069.27,6.069,1.214,8.092,2.023A88.425,88.425,0,0,1,270.908,385.1m62.441-25.759a15,15,0,0,1-2.832-1.079c-4.855-2.427-4.316,1.484-6.608.539-2.427-.944,2.7-6.339-4.45-1.753s-5.125-.674-8.227-8.631c-3.1-7.822,3.506-16.858,9.171-18.881,7.687-2.832,12.407-3.372,16.049-4.181,10.654-2.7,12.947-9.036,14.835-5.125.4.674.674,1.349,1.079,2.023a13.117,13.117,0,0,1,1.349,5.8,90.374,90.374,0,0,1-20.364,31.288m24.275-44.639c-2.427-.674-12.272-14.43-4.45-23.466,1.349-1.484-2.7-5.8-1.618-5.934,4.316-.27,6.608,2.293,7.687,6.2.135,1.753.135,3.372.135,5.125a81.327,81.327,0,0,1-1.753,18.071" transform="translate(-18.582 19.212)" fill="#fff"/>
    <path id="Pfad_14204" data-name="Pfad 14204" d="M151.722,51.793h-.27l-5.529,31.423h-3.776l-6.069-31.423h-.135V83.215H129.2V34.8h9.44l5.26,27.242h.135l4.72-27.242H159V83.215h-7.417V51.793Z" transform="translate(6.066 -34.125)" fill="#fff"/>
    <path id="Pfad_14205" data-name="Pfad 14205" d="M153.4,83.215,162.571,34.8h9.306l9.171,48.415h-8.361l-1.484-8.9h-8.631l-1.483,8.9Zm10.115-15.374h6.473l-3.237-19.42h-.135Z" transform="translate(14.502 -34.125)" fill="#fff"/>
    <path id="Pfad_14206" data-name="Pfad 14206" d="M175,73.005V66.532h7.552V73.14c0,2.7,1.214,4.316,4.046,4.316,2.562,0,3.776-1.753,3.776-4.316V71.252c0-2.832-1.079-4.45-3.641-6.878l-4.855-4.855c-4.585-4.585-6.743-7.417-6.743-12.947V44.954c0-6.069,3.506-10.654,11.463-10.654,8.092,0,11.328,4.046,11.328,11.059V49.27h-7.417V45.089c0-2.832-1.349-4.181-3.911-4.181-2.293,0-3.911,1.349-3.911,4.046V45.9c0,2.7,1.483,4.316,3.911,6.608l5.26,5.125c4.45,4.45,6.608,7.283,6.608,12.542v2.293c0,6.608-3.641,11.328-11.868,11.328C178.237,83.929,175,79.344,175,73.005Z" transform="translate(22.033 -34.3)" fill="#fff"/>
    <path id="Pfad_14207" data-name="Pfad 14207" d="M194.4,73.005V66.532h7.552V73.14c0,2.7,1.214,4.316,4.046,4.316,2.562,0,3.776-1.753,3.776-4.316V71.252c0-2.832-1.079-4.45-3.641-6.878l-4.855-4.855c-4.585-4.585-6.743-7.417-6.743-12.947V44.954c0-6.069,3.506-10.654,11.463-10.654,8.092,0,11.328,4.046,11.328,11.059V49.27h-7.417V45.089c0-2.832-1.349-4.181-3.911-4.181-2.293,0-3.911,1.349-3.911,4.046V45.9c0,2.7,1.483,4.316,3.911,6.608l5.26,5.125c4.451,4.45,6.608,7.283,6.608,12.542v2.293c0,6.608-3.506,11.328-11.868,11.328C197.637,83.929,194.4,79.344,194.4,73.005Z" transform="translate(28.795 -34.3)" fill="#fff"/>
    <path id="Pfad_14208" data-name="Pfad 14208" d="M221.178,52.737V83.215H214.3V34.8h7.957l8.766,27.782V34.8h6.743V83.215h-7.148Z" transform="translate(35.732 -34.125)" fill="#fff"/>
    <path id="Pfad_14209" data-name="Pfad 14209" d="M233.8,83.215,242.971,34.8h9.306l9.171,48.415h-8.362l-1.483-8.9h-8.631l-1.483,8.9Zm10.249-15.374h6.473l-3.237-19.42h-.135Z" transform="translate(42.531 -34.125)" fill="#fff"/>
    <path id="Pfad_14210" data-name="Pfad 14210" d="M272.214,61.907h-7.822V83.215H256.3V34.8h8.092V55.3h7.822V34.8h8.226V83.215h-8.226Z" transform="translate(50.375 -34.125)" fill="#fff"/>
    <path id="Pfad_14211" data-name="Pfad 14211" d="M299.622,51.793h-.27l-5.529,31.423h-3.776l-6.069-31.423h-.135V83.215H277.1V34.8h9.44l5.26,27.242h.135l4.72-27.242H306.9V83.215h-7.417V51.793Z" transform="translate(57.627 -34.125)" fill="#fff"/>
    <path id="Pfad_14212" data-name="Pfad 14212" d="M302.2,34.8h19.42v6.608H310.292V55.3h8.092v6.608h-8.092v14.7H321.62v6.608H302.2Z" transform="translate(66.377 -34.125)" fill="#fff"/>
    <path id="Pfad_14213" data-name="Pfad 14213" d="M326.178,52.737V83.215H319.3V34.8h7.957l8.766,27.782V34.8h6.743V83.215h-7.148Z" transform="translate(72.338 -34.125)" fill="#fff"/>
    <path id="Pfad_14214" data-name="Pfad 14214" d="M352.9,76.607H365.3v6.608H344.4V76.607l12.812-35.2H345.749V34.8h20.094v6.608Z" transform="translate(81.088 -34.125)" fill="#fff"/>
    <path id="Pfad_14215" data-name="Pfad 14215" d="M386.5,34.8V71.482c0,7.552-3.237,12.407-11.463,12.407-8.631,0-12.138-4.855-12.138-12.407V34.8h8.092V72.292c0,2.832,1.079,4.855,4.046,4.855,2.832,0,4.046-1.888,4.046-4.855V34.8Z" transform="translate(87.539 -34.125)" fill="#fff"/>
    <path id="Pfad_14216" data-name="Pfad 14216" d="M405.822,51.793h-.27l-5.529,31.423h-3.776l-6.069-31.423h-.135V83.215H383.3V34.8h9.44L398,62.042h.135l4.72-27.242H413.1V83.215h-7.283Z" transform="translate(94.65 -34.125)" fill="#fff"/>
    <path id="Pfad_14217" data-name="Pfad 14217" d="M137.392,109.615v23.6H129.3V84.8h8.092v21.308l8.9-21.308h7.957l-9.44,21.848,9.71,26.7h-8.631Z" transform="translate(6.102 -16.694)" fill="#fff"/>
    <path id="Pfad_14218" data-name="Pfad 14218" d="M149.7,84.8h8.092v41.807h9.71v6.608H149.7Z" transform="translate(13.213 -16.694)" fill="#fff"/>
    <path id="Pfad_14219" data-name="Pfad 14219" d="M165.2,84.8h8.092v48.415H165.2Z" transform="translate(18.615 -16.694)" fill="#fff"/>
    <path id="Pfad_14220" data-name="Pfad 14220" d="M196.622,101.793h-.27l-5.529,31.423h-3.776l-6.069-31.423h-.135v31.423H174.1V84.8h9.44l5.26,27.242h.135l4.72-27.242H203.9v48.415h-7.417V101.793Z" transform="translate(21.719 -16.694)" fill="#fff"/>
    <path id="Pfad_14221" data-name="Pfad 14221" d="M198.3,133.215,207.471,84.8h9.305l9.171,48.415h-8.361l-1.484-8.9h-8.631l-1.483,8.9Zm10.249-15.374h6.473l-3.237-19.42h-.135Z" transform="translate(30.156 -16.694)" fill="#fff"/>
    <path id="Pfad_14222" data-name="Pfad 14222" d="M219.9,123.005v-6.473h7.552v6.608c0,2.7,1.214,4.316,4.046,4.316,2.562,0,3.776-1.753,3.776-4.316v-1.888c0-2.832-1.079-4.45-3.641-6.878l-4.855-4.855c-4.585-4.585-6.743-7.417-6.743-12.947V94.954c0-6.069,3.506-10.654,11.463-10.654,8.092,0,11.328,4.046,11.328,11.059V99.27h-7.417V95.089c0-2.832-1.349-4.181-3.911-4.181-2.293,0-3.911,1.349-3.911,4.046V95.9c0,2.7,1.484,4.316,3.911,6.608l5.26,5.125c4.451,4.45,6.608,7.283,6.608,12.542v2.293c0,6.608-3.641,11.328-11.868,11.328C223.137,133.929,219.9,129.344,219.9,123.005Z" transform="translate(37.686 -16.869)" fill="#fff"/>
    <path id="Pfad_14223" data-name="Pfad 14223" d="M239.9,120.813V97.482c0-7.552,3.506-13.082,12.138-13.082,9.036,0,11.463,4.99,11.463,12.138V102.2h-7.417V95.863c0-2.967-.944-4.72-3.911-4.72s-4.181,2.023-4.181,4.99v26.028c0,2.967,1.214,4.99,4.181,4.99s3.911-1.888,3.911-4.72v-8.9H263.5v8.361c0,6.878-2.832,12.138-11.463,12.138C243.541,133.894,239.9,128.365,239.9,120.813Z" transform="translate(44.658 -16.833)" fill="#fff"/>
    <path id="Pfad_14224" data-name="Pfad 14224" d="M276.214,111.907h-7.822v21.308H260.3V84.8h8.092v20.5h7.822V84.8h8.227v48.415h-8.227Z" transform="translate(51.77 -16.694)" fill="#fff"/>
    <path id="Pfad_14225" data-name="Pfad 14225" d="M304.7,84.8v36.682c0,7.552-3.237,12.407-11.463,12.407-8.631,0-12.138-4.855-12.138-12.407V84.8h8.092v37.492c0,2.832,1.079,4.855,4.046,4.855,2.832,0,4.046-1.888,4.046-4.855V84.8Z" transform="translate(59.021 -16.694)" fill="#fff"/>
    <path id="Pfad_14226" data-name="Pfad 14226" d="M300.9,84.8h21.713v6.608H315.87v41.807h-8.227V91.408H300.9Z" transform="translate(65.924 -16.694)" fill="#fff"/>
    <path id="Pfad_14227" data-name="Pfad 14227" d="M326.5,126.607H338.9v6.608H318v-6.608l12.812-35.2H319.348V84.8h20.094v6.608Z" transform="translate(71.885 -16.694)" fill="#fff"/>
  </g>
</svg>