<svg id="sdg_4" xmlns="http://www.w3.org/2000/svg" width="576" height="576" viewBox="0 0 576 576">
  <rect id="Rechteck_364" data-name="Rechteck 364" width="576" height="576" fill="#c5192d"/>
  <path id="Pfad_14486" data-name="Pfad 14486" d="M75.455,151.277H93.931V132.531h7.822v-15.1H93.931V35.7H74.781L41.2,120.663v12H75.455Zm-17.127-33.85,17.4-47.606h.135v47.606Z" transform="translate(15.742 13.116)" fill="#fff"/>
  <g id="Gruppe_1014" data-name="Gruppe 1014" transform="translate(130.978 231.954)" style="mix-blend-mode: normal;isolation: isolate">
    <path id="Pfad_14487" data-name="Pfad 14487" d="M215.2,243.439,112.3,184.1V376.278L215.2,407.3Z" transform="translate(-90.452 -167.107)" fill="#fff"/>
    <path id="Pfad_14488" data-name="Pfad 14488" d="M197,243.844V407.3l103.574-31.018V184.1Z" transform="translate(-60.924 -167.107)" fill="#fff"/>
    <path id="Pfad_14489" data-name="Pfad 14489" d="M339.975,183.638a12.138,12.138,0,0,0-24.275,0v13.082h24.41V183.638Z" transform="translate(-19.543 -171.5)" fill="#fff"/>
    <path id="Pfad_14490" data-name="Pfad 14490" d="M318.667,368.34H315.7l12.138,42.481,12.138-42.481h0V197.2H315.7V368.34Z" transform="translate(-19.543 -162.54)" fill="#fff"/>
    <path id="Pfad_14491" data-name="Pfad 14491" d="M357.867,192.466,346.808,183.7V381.542L232.58,418.495H220.847L107.024,386.8V183.7L96.1,192.466V394.489l124.343,34.39h12.542l114.768-36.413,10.115-2.967Z" transform="translate(-96.1 -167.247)" fill="#fff"/>
  </g>
  <g id="Gruppe_1015" data-name="Gruppe 1015" transform="translate(164.827 46.789)" style="mix-blend-mode: normal;isolation: isolate">
    <path id="Pfad_14492" data-name="Pfad 14492" d="M137.214,61.707h-7.822V83.015H121.3V34.6h8.092V55.1h7.822V34.6h8.227V83.015h-8.227Z" transform="translate(-121.165 -34.061)" fill="#fff"/>
    <path id="Pfad_14493" data-name="Pfad 14493" d="M142.4,70.748V47.282c0-7.552,3.776-13.082,12.272-13.082,8.631,0,12.407,5.529,12.407,13.082V70.748c0,7.552-3.776,13.082-12.407,13.082S142.4,78.3,142.4,70.748ZM158.853,72.1V46.068c0-2.967-1.349-4.99-4.181-4.99s-4.181,2.023-4.181,4.99V72.1c0,2.967,1.349,4.99,4.181,4.99S158.853,74.928,158.853,72.1Z" transform="translate(-113.809 -34.2)" fill="#fff"/>
    <path id="Pfad_14494" data-name="Pfad 14494" d="M163.8,70.748V47.282c0-7.552,3.507-13.082,12.138-13.082,9.036,0,11.463,4.99,11.463,12.138V52h-7.417V45.663c0-2.967-.944-4.72-3.911-4.72s-4.181,2.023-4.181,4.99V71.961c0,2.967,1.214,4.99,4.181,4.99s3.911-1.888,3.911-4.72v-8.9H187.4v8.361c0,6.878-2.832,12.138-11.463,12.138C167.441,83.829,163.8,78.3,163.8,70.748Z" transform="translate(-106.349 -34.2)" fill="#fff"/>
    <path id="Pfad_14495" data-name="Pfad 14495" d="M200.414,61.707h-7.822V83.015H184.5V34.6h8.092V55.1h7.822V34.6h8.227V83.015h-8.227Z" transform="translate(-99.132 -34.061)" fill="#fff"/>
    <path id="Pfad_14496" data-name="Pfad 14496" d="M223.446,53.176l-4.585,29.939h-7.687L204.7,34.7h7.822L216.3,65.449h.135L220.479,34.7h6.608l4.45,30.749h.135L235.449,34.7h6.878l-6.338,48.415H228.3l-4.855-29.939Z" transform="translate(-92.09 -34.026)" fill="#fff"/>
    <path id="Pfad_14497" data-name="Pfad 14497" d="M234.9,34.6h19.42v6.608H242.992V55.1h8.092v6.608h-8.092v14.7H254.32v6.608H234.9Z" transform="translate(-81.562 -34.061)" fill="#fff"/>
    <path id="Pfad_14498" data-name="Pfad 14498" d="M260.392,60.9V83.15H252.3V34.6h11.868c8.226,0,11.193,4.046,11.193,10.924v6.2c0,5.26-1.888,8.227-6.473,9.305l7.822,21.982h-8.631Zm0-19.555v15.1h2.7c2.832,0,4.046-1.483,4.046-4.046V45.254c0-2.7-1.214-3.911-4.046-3.911Z" transform="translate(-75.496 -34.061)" fill="#fff"/>
    <path id="Pfad_14499" data-name="Pfad 14499" d="M271.2,34.6h21.713v6.608H286.17V83.015h-8.227V41.208H271.2Z" transform="translate(-68.907 -34.061)" fill="#fff"/>
    <path id="Pfad_14500" data-name="Pfad 14500" d="M289.8,34.6h8.092V83.015H289.8Z" transform="translate(-62.423 -34.061)" fill="#fff"/>
    <path id="Pfad_14501" data-name="Pfad 14501" d="M311.372,57.4h11.6V83.29h-5.8V78.03c-1.079,3.641-3.372,5.8-7.822,5.8-7.013,0-10.25-5.529-10.25-13.082V47.282c0-7.552,3.641-13.082,12.272-13.082,9.036,0,11.6,4.99,11.6,12.138v4.316h-7.417v-4.99c0-2.967-1.079-4.72-4.046-4.72s-4.181,2.023-4.181,4.99V71.961c0,2.967,1.214,4.99,4.046,4.99,2.7,0,4.046-1.483,4.046-4.585V63.735h-3.911V57.4Z" transform="translate(-59.18 -34.2)" fill="#fff"/>
    <path id="Pfad_14502" data-name="Pfad 14502" d="M320,34.6h19.42v6.608H328.092V55.1h8.092v6.608h-8.092v14.7H339.42v6.608H320Z" transform="translate(-51.894 -34.061)" fill="#fff"/>
    <path id="Pfad_14503" data-name="Pfad 14503" d="M121.2,84.6h11.733c8.092,0,10.924,3.776,10.924,10.654v4.99c0,4.046-1.483,6.608-4.855,7.687q6.069,1.416,6.069,8.092V122.5c0,6.878-3.1,10.654-11.193,10.654H121.2V84.6Zm8.227,20.5h2.832c2.7,0,3.911-1.349,3.911-3.911V95.254c0-2.7-1.214-3.911-3.911-3.911h-2.832Zm0,6.2v15.1h3.506c2.7,0,4.046-1.349,4.046-3.911v-7.283c0-2.562-1.214-3.911-4.046-3.911Z" transform="translate(-121.2 -16.63)" fill="#fff"/>
    <path id="Pfad_14504" data-name="Pfad 14504" d="M141.7,84.6h8.092v48.415H141.7Z" transform="translate(-114.053 -16.63)" fill="#fff"/>
    <path id="Pfad_14505" data-name="Pfad 14505" d="M150.9,84.6h8.092v41.807h9.71v6.608H150.9Z" transform="translate(-110.846 -16.63)" fill="#fff"/>
    <path id="Pfad_14506" data-name="Pfad 14506" d="M191.075,97.682v22.387c0,7.417-3.1,12.947-11.733,12.947H166.8V84.6h12.542C187.973,84.6,191.075,90.129,191.075,97.682Zm-12.812,28.726c3.372,0,4.585-2.023,4.585-4.99V96.2c0-2.832-1.349-4.855-4.585-4.855h-3.372v35.2h3.372Z" transform="translate(-105.303 -16.63)" fill="#fff"/>
    <path id="Pfad_14507" data-name="Pfad 14507" d="M211.6,84.6v36.682c0,7.552-3.237,12.407-11.463,12.407-8.631,0-12.138-4.855-12.138-12.407V84.6h8.092v37.492c0,2.832,1.079,4.855,4.046,4.855,2.832,0,4.046-1.888,4.046-4.855V84.6Z" transform="translate(-97.912 -16.63)" fill="#fff"/>
    <path id="Pfad_14508" data-name="Pfad 14508" d="M215.478,102.671V133.15H208.6V84.6h7.957l8.766,27.782V84.6h6.743v48.415h-7.148Z" transform="translate(-90.73 -16.63)" fill="#fff"/>
    <path id="Pfad_14509" data-name="Pfad 14509" d="M241.572,107.4h11.6V133.29h-5.8v-5.26c-1.079,3.641-3.372,5.8-7.822,5.8-7.013,0-10.25-5.529-10.25-13.082V97.282c0-7.552,3.641-13.082,12.272-13.082,9.036,0,11.6,4.99,11.6,12.138v4.316h-7.417v-4.99c0-2.967-1.079-4.72-4.046-4.72s-4.181,2.023-4.181,4.99v26.028c0,2.967,1.214,4.99,4.046,4.99,2.7,0,4.046-1.484,4.046-4.585v-8.631h-3.911V107.4Z" transform="translate(-83.514 -16.769)" fill="#fff"/>
  </g>
</svg>