<svg id="sdg_8" xmlns="http://www.w3.org/2000/svg" width="576" height="576" viewBox="0 0 576 576">
  <rect id="Rechteck_360" data-name="Rechteck 360" width="576" height="576" fill="#a21942"/>
  <g id="sdg_8-2" data-name="sdg_8" transform="translate(53.998 50.401)">
    <path id="Pfad_14329" data-name="Pfad 14329" d="M97.456,123.269V110.592c0-11.059-3.911-19.15-12.947-23.2C92.2,83.62,95.7,76.877,95.7,67.3v-4.72C95.7,44.51,86.262,34.8,68.46,34.8S41.488,44.51,41.488,62.582V67.3c0,9.44,3.372,16.318,10.924,20.094C43.376,91.442,39.6,99.534,39.6,110.592v12.677c0,17.532,8.361,29.8,28.86,29.8,20.634.135,29-12.138,29-29.8m-37.761-61.9c0-7.013,2.428-11.059,8.766-11.059,6.473,0,8.9,4.046,8.9,11.059V69.19c0,7.013-2.428,11.059-8.9,11.059-6.339,0-8.766-4.046-8.766-11.059ZM77.9,125.427c0,7.013-2.562,12-9.575,12-6.878,0-9.44-4.99-9.44-12V106.547c0-7.013,2.562-12,9.44-12,7.013,0,9.575,4.99,9.575,12Z" transform="translate(-39.6 -28.192)" fill="#fff"/>
    <path id="Pfad_14330" data-name="Pfad 14330" d="M133.722,52.827h-.27L127.923,84.25h-3.776l-6.069-31.423h-.135V84.25H111.2V35.7h9.44l5.26,27.242h.135l4.72-27.242H141V84.115h-7.417V52.827Z" transform="translate(-14.639 -27.878)" fill="#fff"/>
    <path id="Pfad_14331" data-name="Pfad 14331" d="M136,35.7h19.42v6.608H144.092V56.334h8.092v6.608h-8.092v14.7H155.42V84.25H136Z" transform="translate(-5.992 -27.878)" fill="#fff"/>
    <path id="Pfad_14332" data-name="Pfad 14332" d="M159.778,53.771V84.25H152.9V35.7h7.957l8.766,27.782V35.7h6.743V84.115h-7.148Z" transform="translate(-0.102 -27.878)" fill="#fff"/>
    <path id="Pfad_14333" data-name="Pfad 14333" d="M172.7,73.905V67.432h7.552V74.04c0,2.7,1.214,4.316,4.046,4.316,2.562,0,3.776-1.753,3.776-4.316V72.152c0-2.832-1.079-4.45-3.641-6.878l-4.855-4.855c-4.585-4.585-6.743-7.417-6.743-12.947V45.854c0-6.069,3.506-10.654,11.463-10.654,8.092,0,11.328,4.046,11.328,11.059V50.17h-7.417V45.989c0-2.832-1.349-4.181-3.911-4.181-2.293,0-3.911,1.349-3.911,4.046V46.8c0,2.7,1.484,4.316,3.911,6.608l5.26,5.125c4.45,4.45,6.608,7.283,6.608,12.542v2.293c0,6.608-3.641,11.328-11.868,11.328C175.937,84.964,172.7,80.379,172.7,73.905Z" transform="translate(6.801 -28.053)" fill="#fff"/>
    <path id="Pfad_14334" data-name="Pfad 14334" d="M192.4,71.848V48.382c0-7.552,3.506-13.082,12.138-13.082C213.573,35.3,216,40.29,216,47.438V53.1h-7.417V46.763c0-2.967-.944-4.72-3.911-4.72s-4.181,2.023-4.181,4.99V73.061c0,2.967,1.214,4.99,4.181,4.99s3.911-1.888,3.911-4.72v-8.9H216v8.361c0,6.878-2.832,12.138-11.463,12.138C196.041,84.929,192.4,79.4,192.4,71.848Z" transform="translate(13.67 -28.018)" fill="#fff"/>
    <path id="Pfad_14335" data-name="Pfad 14335" d="M228.414,62.807h-7.822V84.115H212.5V35.7h8.092V56.334h7.822V35.7h8.227V84.115h-8.227Z" transform="translate(20.678 -27.878)" fill="#fff"/>
    <path id="Pfad_14336" data-name="Pfad 14336" d="M233.1,35.7h19.42v6.608H241.192V56.334h8.092v6.608h-8.092v14.7H252.52V84.25H233.1Z" transform="translate(27.857 -27.878)" fill="#fff"/>
    <path id="Pfad_14337" data-name="Pfad 14337" d="M256.778,53.771V84.25H249.9V35.7h7.957l8.766,27.782V35.7h6.743V84.115h-7.148Z" transform="translate(33.715 -27.878)" fill="#fff"/>
    <path id="Pfad_14338" data-name="Pfad 14338" d="M287.946,54.276,283.36,84.215h-7.687L269.2,35.8h7.822L280.8,66.549h.135L284.979,35.8h6.608l4.451,30.749h.135L299.948,35.8h6.878l-6.339,48.415H292.8l-4.855-29.939Z" transform="translate(40.443 -27.844)" fill="#fff"/>
    <path id="Pfad_14339" data-name="Pfad 14339" d="M322.5,37.722V74.4c0,7.552-3.237,12.407-11.463,12.407-8.631,0-12.138-4.855-12.138-12.407V37.722h8.092V75.214c0,2.832,1.079,4.855,4.046,4.855,2.832,0,4.046-1.888,4.046-4.855V37.722ZM303.081,29.9h6.878v6.2h-6.878Zm8.631,0h6.878v6.2h-6.878Z" transform="translate(50.797 -29.9)" fill="#fff"/>
    <path id="Pfad_14340" data-name="Pfad 14340" d="M327.192,62V84.25H319.1V35.7h11.868c8.227,0,11.193,4.046,11.193,10.924v6.2c0,5.26-1.888,8.227-6.473,9.305l7.822,21.983h-8.631Zm0-19.555v15.1h2.7c2.832,0,4.046-1.484,4.046-4.046V46.354c0-2.7-1.214-3.911-4.046-3.911Z" transform="translate(57.84 -27.878)" fill="#fff"/>
    <path id="Pfad_14341" data-name="Pfad 14341" d="M363.075,48.782V71.169c0,7.417-3.1,12.947-11.733,12.947H338.8V35.7h12.542C359.973,35.7,363.075,41.229,363.075,48.782Zm-12.812,28.86c3.371,0,4.585-2.023,4.585-4.99V47.3c0-2.832-1.349-4.855-4.585-4.855h-3.372v35.2Z" transform="translate(64.707 -27.878)" fill="#fff"/>
    <path id="Pfad_14342" data-name="Pfad 14342" d="M359.4,35.7h8.092V84.115H359.4Z" transform="translate(71.889 -27.878)" fill="#fff"/>
    <path id="Pfad_14343" data-name="Pfad 14343" d="M380.472,58.5h11.6V84.39h-5.8V79.13c-1.079,3.641-3.371,5.8-7.822,5.8-7.013,0-10.25-5.529-10.25-13.082V48.382c0-7.552,3.641-13.082,12.272-13.082,9.036,0,11.6,4.99,11.6,12.138v4.316h-7.417v-4.99c0-2.967-1.079-4.72-4.046-4.72s-4.181,2.023-4.181,4.99V73.061c0,2.967,1.214,4.99,4.046,4.99,2.7,0,4.046-1.483,4.046-4.585V64.835h-3.911V58.5Z" transform="translate(74.957 -28.018)" fill="#fff"/>
    <path id="Pfad_14344" data-name="Pfad 14344" d="M388.5,35.7h19.42v6.608H396.592V56.334h8.092v6.608h-8.092v14.7H407.92V84.25H388.5Z" transform="translate(82.033 -27.878)" fill="#fff"/>
    <path id="Pfad_14345" data-name="Pfad 14345" d="M110.3,134.215,119.471,85.8h9.306l9.171,48.415h-8.361l-1.483-8.9h-8.631l-1.483,8.9Zm10.249-15.374h6.473l-3.237-19.42h-.135Z" transform="translate(-14.953 -10.413)" fill="#fff"/>
    <path id="Pfad_14346" data-name="Pfad 14346" d="M140.592,112V134.25H132.5V85.7h11.868c8.227,0,11.194,4.046,11.194,10.924v6.2c0,5.26-1.888,8.227-6.473,9.305l7.822,21.983h-8.631Zm0-19.555v15.1h2.7c2.832,0,4.046-1.483,4.046-4.046V96.354c0-2.7-1.214-3.911-4.046-3.911h-2.7Z" transform="translate(-7.213 -10.447)" fill="#fff"/>
    <path id="Pfad_14347" data-name="Pfad 14347" d="M152.1,85.7h11.733c8.092,0,10.924,3.776,10.924,10.654v4.99c0,4.046-1.484,6.608-4.855,7.687q6.069,1.416,6.069,8.092V123.6c0,6.878-3.1,10.654-11.194,10.654H152.1Zm8.092,20.5h2.832c2.7,0,3.911-1.349,3.911-3.911V96.354c0-2.7-1.214-3.911-3.911-3.911h-2.832Zm0,6.2v15.1H163.7c2.7,0,4.046-1.349,4.046-3.911v-7.283c0-2.562-1.214-3.911-4.046-3.911Z" transform="translate(-0.379 -10.447)" fill="#fff"/>
    <path id="Pfad_14348" data-name="Pfad 14348" d="M172,85.7h19.42v6.608H180.092v14.026h8.092v6.608h-8.092v14.7H191.42v6.608H172Z" transform="translate(6.559 -10.447)" fill="#fff"/>
    <path id="Pfad_14349" data-name="Pfad 14349" d="M188.9,85.7h8.092v48.415H188.9Z" transform="translate(12.449 -10.447)" fill="#fff"/>
    <path id="Pfad_14350" data-name="Pfad 14350" d="M196.9,85.7h21.713v6.608H211.87v41.807h-8.226V92.308H196.9Z" transform="translate(15.238 -10.447)" fill="#fff"/>
    <path id="Pfad_14351" data-name="Pfad 14351" d="M243.4,85.7v36.682c0,7.552-3.237,12.407-11.463,12.407-8.631,0-12.138-4.855-12.138-12.407V85.7h8.092v37.492c0,2.832,1.079,4.855,4.046,4.855,2.832,0,4.046-1.888,4.046-4.855V85.7Z" transform="translate(23.221 -10.447)" fill="#fff"/>
    <path id="Pfad_14352" data-name="Pfad 14352" d="M246.878,103.771V134.25H240V85.7h7.957l8.766,27.782V85.7h6.743v48.415h-7.148Z" transform="translate(30.264 -10.447)" fill="#fff"/>
    <path id="Pfad_14353" data-name="Pfad 14353" d="M284.475,98.782v22.387c0,7.417-3.1,12.947-11.733,12.947H260.2V85.7h12.542C281.373,85.7,284.475,91.229,284.475,98.782Zm-12.812,28.86c3.372,0,4.585-2.023,4.585-4.99V97.3c0-2.832-1.349-4.855-4.585-4.855h-3.372v35.2Z" transform="translate(37.307 -10.447)" fill="#fff"/>
    <path id="Pfad_14354" data-name="Pfad 14354" d="M129.146,154.276l-4.585,29.939h-7.687L110.4,135.8h7.822L122,166.549h.135l4.046-30.749h6.608l4.45,30.749h.135l3.776-30.749h6.878l-6.339,48.415H134l-4.855-29.939Z" transform="translate(-14.918 7.018)" fill="#fff"/>
    <path id="Pfad_14355" data-name="Pfad 14355" d="M140.1,135.7h8.092v48.415H140.1Z" transform="translate(-4.563 6.983)" fill="#fff"/>
    <path id="Pfad_14356" data-name="Pfad 14356" d="M156.892,161.963v22.252H148.8V135.8h11.868c8.227,0,11.194,4.046,11.194,10.924v6.2c0,5.26-1.888,8.227-6.473,9.305l7.822,21.982h-8.631Zm0-19.555v15.1h2.7c2.832,0,4.046-1.483,4.046-4.046v-7.148c0-2.7-1.214-3.911-4.046-3.911Z" transform="translate(-1.531 7.018)" fill="#fff"/>
    <path id="Pfad_14357" data-name="Pfad 14357" d="M167.2,135.7h21.713v6.608H182.17v41.807h-8.227V142.308H167.2Z" transform="translate(4.885 6.983)" fill="#fff"/>
    <path id="Pfad_14358" data-name="Pfad 14358" d="M184.4,173.905v-6.473h7.552v6.608c0,2.7,1.214,4.315,4.046,4.315,2.562,0,3.776-1.753,3.776-4.315v-1.888c0-2.832-1.079-4.451-3.641-6.878l-4.855-4.855c-4.585-4.585-6.743-7.417-6.743-12.947v-1.618c0-6.069,3.506-10.654,11.463-10.654,8.092,0,11.328,4.046,11.328,11.059v3.911h-7.417v-4.181c0-2.832-1.349-4.181-3.911-4.181-2.293,0-3.911,1.349-3.911,4.046v.944c0,2.7,1.483,4.316,3.911,6.608l5.26,5.125c4.451,4.45,6.608,7.283,6.608,12.542v2.293c0,6.608-3.506,11.328-11.868,11.328C187.637,184.964,184.4,180.379,184.4,173.905Z" transform="translate(10.881 6.809)" fill="#fff"/>
    <path id="Pfad_14359" data-name="Pfad 14359" d="M204.1,171.848V148.382c0-7.552,3.641-13.082,12.138-13.082,9.036,0,11.463,4.99,11.463,12.138V153.1h-7.417v-6.338c0-2.967-.944-4.72-3.911-4.72s-4.181,2.023-4.181,4.99v26.028c0,2.967,1.214,4.99,4.181,4.99s3.911-1.888,3.911-4.72v-8.9H227.7v8.361c0,6.878-2.832,12.138-11.463,12.138C207.741,184.929,204.1,179.4,204.1,171.848Z" transform="translate(17.748 6.844)" fill="#fff"/>
    <path id="Pfad_14360" data-name="Pfad 14360" d="M240.114,162.807h-7.822v21.308H224.2V135.7h8.092v20.634h7.822v-20.5h8.227V184.25h-8.227Z" transform="translate(24.756 6.983)" fill="#fff"/>
    <path id="Pfad_14361" data-name="Pfad 14361" d="M243.8,184.215l9.171-48.415h9.305l9.171,48.415h-8.362l-1.483-8.9h-8.631l-1.483,8.9Zm10.25-15.374h6.473l-3.237-19.42h-.135Z" transform="translate(31.588 7.018)" fill="#fff"/>
    <path id="Pfad_14362" data-name="Pfad 14362" d="M266,135.7h19.015v6.608H274.092v14.026h8.092v6.608h-8.092V184.25H266Z" transform="translate(39.328 6.983)" fill="#fff"/>
    <path id="Pfad_14363" data-name="Pfad 14363" d="M281.6,135.7h21.713v6.608H296.57v41.807h-8.227V142.308H281.6Z" transform="translate(44.766 6.983)" fill="#fff"/>
    <path id="Pfad_14364" data-name="Pfad 14364" d="M298.8,173.905v-6.473h7.552v6.608c0,2.7,1.214,4.315,4.046,4.315,2.563,0,3.776-1.753,3.776-4.315v-1.888c0-2.832-1.079-4.451-3.641-6.878l-4.855-4.855c-4.585-4.585-6.743-7.417-6.743-12.947v-1.618c0-6.069,3.506-10.654,11.463-10.654,8.092,0,11.329,4.046,11.329,11.059v3.911h-7.418v-4.181c0-2.832-1.348-4.181-3.911-4.181-2.292,0-3.911,1.349-3.911,4.046v.944c0,2.7,1.483,4.316,3.911,6.608l5.26,5.125c4.45,4.45,6.608,7.283,6.608,12.542v2.293c0,6.608-3.641,11.328-11.868,11.328C302.037,184.964,298.8,180.379,298.8,173.905Z" transform="translate(50.762 6.809)" fill="#fff"/>
    <path id="Pfad_14365" data-name="Pfad 14365" d="M317.1,150.4h11.463v6.608H317.1Z" transform="translate(57.143 12.108)" fill="#fff"/>
    <path id="Pfad_14366" data-name="Pfad 14366" d="M129.146,204.276l-4.585,29.939h-7.687L110.4,185.8h7.822L122,216.549h.135l4.046-30.749h6.608l4.45,30.749h.135l3.776-30.749h6.878l-6.339,48.415H134l-4.855-29.939Z" transform="translate(-14.918 24.449)" fill="#fff"/>
    <path id="Pfad_14367" data-name="Pfad 14367" d="M137,234.215l9.171-48.415h9.305l9.171,48.415h-8.361l-1.483-8.9h-8.631l-1.483,8.9H137Zm10.249-15.374h6.473l-3.237-19.42h0Z" transform="translate(-5.645 24.449)" fill="#fff"/>
    <path id="Pfad_14368" data-name="Pfad 14368" d="M158.4,221.848V198.382c0-7.552,3.641-13.082,12.138-13.082,9.036,0,11.463,4.99,11.463,12.138V203.1h-7.417v-6.339c0-2.967-.944-4.72-3.911-4.72s-4.181,2.023-4.181,4.99v26.028c0,2.967,1.214,4.99,4.181,4.99s3.911-1.888,3.911-4.72v-8.9H182v8.361c0,6.878-2.832,12.138-11.463,12.138C162.041,234.929,158.4,229.4,158.4,221.848Z" transform="translate(1.816 24.275)" fill="#fff"/>
    <path id="Pfad_14369" data-name="Pfad 14369" d="M194.414,212.807h-7.822v21.308H178.5V185.7h8.092v20.634h7.822v-20.5h8.227V234.25h-8.227Z" transform="translate(8.824 24.415)" fill="#fff"/>
    <path id="Pfad_14370" data-name="Pfad 14370" d="M198.7,223.905v-6.473h7.552v6.608c0,2.7,1.214,4.316,4.046,4.316,2.562,0,3.776-1.753,3.776-4.316v-1.888c0-2.832-1.079-4.451-3.641-6.878l-4.855-4.855c-4.585-4.585-6.743-7.417-6.743-12.947v-1.618c0-6.069,3.506-10.654,11.463-10.654,8.092,0,11.328,4.046,11.328,11.059v3.911h-7.417v-4.181c0-2.832-1.349-4.181-3.911-4.181-2.293,0-3.911,1.349-3.911,4.046v.944c0,2.7,1.484,4.316,3.911,6.608l5.26,5.125c4.451,4.45,6.608,7.283,6.608,12.542v2.293c0,6.608-3.641,11.328-11.868,11.328C201.937,234.964,198.7,230.379,198.7,223.905Z" transform="translate(15.865 24.24)" fill="#fff"/>
    <path id="Pfad_14371" data-name="Pfad 14371" d="M217.035,185.7h21.578v6.608H231.87v41.807h-8.227V192.308H216.9V185.7Z" transform="translate(22.211 24.415)" fill="#fff"/>
    <path id="Pfad_14372" data-name="Pfad 14372" d="M258.7,185.7v36.682c0,7.552-3.237,12.407-11.463,12.407-8.631,0-12.138-4.855-12.138-12.407V185.7h8.092v37.492c0,2.832,1.079,4.855,4.046,4.855,2.832,0,4.046-1.888,4.046-4.855V185.7Z" transform="translate(28.555 24.415)" fill="#fff"/>
    <path id="Pfad_14373" data-name="Pfad 14373" d="M277.722,202.793h-.27l-5.529,31.423h-3.776l-6.069-31.423h-.135v31.423H255.2V185.8h9.44l5.26,27.242h.135l4.72-27.242H285v48.415h-7.417V202.793Z" transform="translate(35.563 24.449)" fill="#fff"/>
    <path id="Pfad_14374" data-name="Pfad 14374" d="M278.063,275.01l-38.705,36.817c-1.484,1.483-2.158,2.562-2.158,5.529V420.391a2.13,2.13,0,0,0,2.158,2.158h39.919a2.13,2.13,0,0,0,2.158-2.158V275.819c0-1.214-.944-3.372-3.372-.809" transform="translate(29.287 55.132)" fill="#fff"/>
    <path id="Pfad_14375" data-name="Pfad 14375" d="M195.463,310.5l-38.705,36.817c-1.483,1.484-2.158,2.562-2.158,5.529v55.159a2.13,2.13,0,0,0,2.158,2.158h39.919a2.13,2.13,0,0,0,2.158-2.158V311.445c.135-1.214-.809-3.507-3.372-.944" transform="translate(0.492 67.518)" fill="#fff"/>
    <path id="Pfad_14376" data-name="Pfad 14376" d="M327.712,241.879a1.917,1.917,0,0,0-.27-.809c-.27-.135-.4-.27-.674-.27h-.539l-29.535,6.608h-.539a.7.7,0,0,0-.539.27,1.231,1.231,0,0,0,0,1.618l.27.27,6.743,6.743L235.6,323.335l-31.018-31.018a.756.756,0,0,0-1.214,0l-8.361,8.361h0l-49.629,49.629a.756.756,0,0,0,0,1.214l8.361,8.362a.756.756,0,0,0,1.214,0l49.09-48.955,22.522,22.522a.132.132,0,0,0,.135.135l8.361,8.361a.756.756,0,0,0,1.214,0l76.062-76.062,7.148,7.148a1.231,1.231,0,0,0,1.618,0,.742.742,0,0,0,.27-.674v-.135l6.473-30.209Z" transform="translate(-2.828 43.624)" fill="#fff"/>
    <path id="Pfad_14377" data-name="Pfad 14377" d="M236.793,315.35l-18.746,18.881a1.011,1.011,0,0,1-1.214,0l-16.858-17.4c-3.1-3.1-3.776-.539-3.776.674v88.739a2.13,2.13,0,0,0,2.158,2.158h39.919a2.13,2.13,0,0,0,2.158-2.158V316.025c.135-1.214-.809-3.507-3.641-.675" transform="translate(14.994 69.141)" fill="#fff"/>
  </g>
</svg>