<svg id="sdg_6" xmlns="http://www.w3.org/2000/svg" width="576" height="576" viewBox="0 0 576 576">
  <rect id="Rechteck_362" data-name="Rechteck 362" width="576" height="576" fill="#26bde2"/>
  <g id="sdg_6-2" data-name="sdg_6" transform="translate(54.001 50.4)">
    <path id="Pfad_14419" data-name="Pfad 14419" d="M71.687,153.244c20.634,0,28.726-11.328,28.726-29.13V106.986c0-18.881-7.552-28.456-21.443-28.456-8.227,0-13.082,3.776-16.049,9.44h-.135V62.886c0-7.013,2.158-12,9.171-12s9.036,4.046,9.036,11.328V69.9h17.8V63.7c0-17.127-5.664-29-27.107-29C51.188,34.7,43.5,47.782,43.5,65.853v56.372c-.135,17.937,7.687,31.018,28.186,31.018m-9.036-48.685c.4-6.473,3.1-10.519,9.171-10.519,6.608,0,9.171,4.046,9.171,11.6v20.094c0,7.283-2.7,11.6-9.44,11.6-6.473,0-9.036-4.45-9.036-11.6V104.559Z" transform="translate(-43.498 -34.7)" fill="#fff"/>
    <g id="Gruppe_1011" data-name="Gruppe 1011" transform="translate(105.598 0.676)" style="mix-blend-mode: normal;isolation: isolate">
      <path id="Pfad_14420" data-name="Pfad 14420" d="M121.8,73.905V67.432h7.552V74.04c0,2.7,1.214,4.316,4.046,4.316,2.562,0,3.776-1.753,3.776-4.316V72.152c0-2.832-1.079-4.45-3.641-6.878l-4.855-4.855c-4.585-4.585-6.743-7.417-6.743-12.947V45.854c0-6.069,3.506-10.654,11.463-10.654,8.092,0,11.328,4.046,11.328,11.059V50.17h-7.417V45.989c0-2.832-1.349-4.181-3.911-4.181-2.293,0-3.911,1.349-3.911,4.046V46.8c0,2.7,1.483,4.316,3.911,6.608l5.26,5.125c4.45,4.45,6.608,7.283,6.608,12.542v2.293c0,6.608-3.506,11.328-11.868,11.328C125.037,84.964,121.8,80.379,121.8,73.905Z" transform="translate(-121.8 -35.2)" fill="#fff"/>
      <path id="Pfad_14421" data-name="Pfad 14421" d="M140.6,84.215,149.771,35.8h9.305l9.171,48.415h-8.361l-1.484-8.9h-8.631l-1.483,8.9Zm10.249-15.374h6.473l-3.237-19.42h-.135Z" transform="translate(-115.246 -34.991)" fill="#fff"/>
      <path id="Pfad_14422" data-name="Pfad 14422" d="M186.2,35.8V72.482c0,7.552-3.237,12.407-11.463,12.407-8.631,0-12.138-4.855-12.138-12.407V35.8h8.092V73.292c0,2.832,1.079,4.855,4.046,4.855,2.832,0,4.046-1.888,4.046-4.855V35.8Z" transform="translate(-107.576 -34.991)" fill="#fff"/>
      <path id="Pfad_14423" data-name="Pfad 14423" d="M183.3,35.8h11.733c8.092,0,10.924,3.776,10.924,10.654v4.99c0,4.046-1.484,6.608-4.855,7.687q6.069,1.416,6.069,8.092V73.7c0,6.878-3.1,10.654-11.194,10.654H183.3Zm8.092,20.364h2.832c2.7,0,3.911-1.349,3.911-3.911V46.319c0-2.7-1.214-3.911-3.911-3.911h-2.832Zm0,6.2v15.1H194.9c2.7,0,4.046-1.349,4.046-3.911V66.279c0-2.562-1.214-3.911-4.046-3.911Z" transform="translate(-100.36 -34.991)" fill="#fff"/>
      <path id="Pfad_14424" data-name="Pfad 14424" d="M203.7,35.8h19.42v6.608H211.792V56.3h8.092v6.608h-8.092v14.7H223.12v6.608H203.7Z" transform="translate(-93.248 -34.991)" fill="#fff"/>
      <path id="Pfad_14425" data-name="Pfad 14425" d="M229.292,61.963V84.215H221.2V35.8h11.868c8.227,0,11.194,4.046,11.194,10.924v6.2c0,5.26-1.888,8.227-6.473,9.305l7.822,21.982h-8.631Zm0-19.555v15.1h2.7c2.832,0,4.046-1.483,4.046-4.046V46.319c0-2.7-1.214-3.911-4.046-3.911Z" transform="translate(-87.147 -34.991)" fill="#fff"/>
      <path id="Pfad_14426" data-name="Pfad 14426" d="M241.3,35.8h19.42v6.608H249.392V56.3h8.092v6.608h-8.092v14.7H260.72v6.608H241.3Z" transform="translate(-80.14 -34.991)" fill="#fff"/>
      <path id="Pfad_14427" data-name="Pfad 14427" d="M258.1,73.905V67.432h7.552V74.04c0,2.7,1.214,4.316,4.046,4.316,2.562,0,3.776-1.753,3.776-4.316V72.152c0-2.832-1.079-4.45-3.641-6.878l-4.855-4.855c-4.585-4.585-6.743-7.417-6.743-12.947V45.854c0-6.069,3.506-10.654,11.463-10.654,8.092,0,11.328,4.046,11.328,11.059V50.17h-7.417V45.989c0-2.832-1.349-4.181-3.911-4.181-2.293,0-3.911,1.349-3.911,4.046V46.8c0,2.7,1.484,4.316,3.911,6.608l5.26,5.125c4.45,4.45,6.608,7.283,6.608,12.542v2.293c0,6.608-3.506,11.328-11.868,11.328C261.2,84.964,258.1,80.379,258.1,73.905Z" transform="translate(-74.283 -35.2)" fill="#fff"/>
      <path id="Pfad_14428" data-name="Pfad 14428" d="M301.446,54.276,296.86,84.215h-7.687L282.7,35.8h7.822L294.3,66.549h.135L298.479,35.8h6.608l4.45,30.749h.135L313.448,35.8h6.878l-6.2,48.415h-7.687l-4.99-29.939Z" transform="translate(-65.707 -34.991)" fill="#fff"/>
      <path id="Pfad_14429" data-name="Pfad 14429" d="M309.9,84.215,319.071,35.8h9.306l9.171,48.415h-8.361l-1.484-8.9h-8.631l-1.484,8.9Zm10.25-15.374h6.473l-3.237-19.42h-.135Z" transform="translate(-56.224 -34.991)" fill="#fff"/>
      <path id="Pfad_14430" data-name="Pfad 14430" d="M331.8,73.905V67.432h7.552V74.04c0,2.7,1.214,4.316,4.046,4.316,2.562,0,3.776-1.753,3.776-4.316V72.152c0-2.832-1.079-4.45-3.641-6.878l-4.855-4.855c-4.585-4.585-6.743-7.417-6.743-12.947V45.854c0-6.069,3.506-10.654,11.463-10.654,8.092,0,11.328,4.046,11.328,11.059V50.17h-7.417V45.989c0-2.832-1.349-4.181-3.911-4.181-2.293,0-3.911,1.349-3.911,4.046V46.8c0,2.7,1.483,4.316,3.911,6.608l5.26,5.125c4.45,4.45,6.608,7.283,6.608,12.542v2.293c0,6.608-3.506,11.328-11.868,11.328C335.037,84.964,331.8,80.379,331.8,73.905Z" transform="translate(-48.59 -35.2)" fill="#fff"/>
      <path id="Pfad_14431" data-name="Pfad 14431" d="M351.4,73.905V67.432h7.552V74.04c0,2.7,1.214,4.316,4.046,4.316,2.562,0,3.776-1.753,3.776-4.316V72.152c0-2.832-1.079-4.45-3.641-6.878l-4.855-4.855c-4.585-4.585-6.743-7.417-6.743-12.947V45.854c0-6.069,3.506-10.654,11.463-10.654,8.092,0,11.328,4.046,11.328,11.059V50.17h-7.417V45.989c0-2.832-1.349-4.181-3.911-4.181-2.293,0-3.911,1.349-3.911,4.046V46.8c0,2.7,1.484,4.316,3.911,6.608l5.26,5.125c4.45,4.45,6.608,7.283,6.608,12.542v2.293c0,6.608-3.506,11.328-11.868,11.328C354.637,84.964,351.4,80.379,351.4,73.905Z" transform="translate(-41.757 -35.2)" fill="#fff"/>
      <path id="Pfad_14432" data-name="Pfad 14432" d="M371.7,35.8h19.42v6.608H379.792V56.3h8.092v6.608h-8.092v14.7H391.12v6.608H371.7Z" transform="translate(-34.68 -34.991)" fill="#fff"/>
      <path id="Pfad_14433" data-name="Pfad 14433" d="M397.192,61.963V84.215H389.1V35.8h11.868c8.227,0,11.193,4.046,11.193,10.924v6.2c0,5.26-1.888,8.227-6.473,9.305l7.822,21.982h-8.631Zm0-19.555v15.1h2.7c2.832,0,4.046-1.483,4.046-4.046V46.319c0-2.7-1.214-3.911-4.046-3.911Z" transform="translate(-28.614 -34.991)" fill="#fff"/>
      <path id="Pfad_14434" data-name="Pfad 14434" d="M145.8,85.8v36.682c0,7.552-3.237,12.407-11.463,12.407-8.631,0-12.138-4.855-12.138-12.407V85.8h8.092v37.492c0,2.832,1.079,4.855,4.046,4.855,2.832,0,4.046-1.888,4.046-4.855V85.8Z" transform="translate(-121.661 -17.56)" fill="#fff"/>
      <path id="Pfad_14435" data-name="Pfad 14435" d="M149.778,103.737v30.479H142.9V85.8h7.957l8.766,27.782V85.8h6.743v48.415h-7.148Z" transform="translate(-114.444 -17.56)" fill="#fff"/>
      <path id="Pfad_14436" data-name="Pfad 14436" d="M187.875,98.747v22.387c0,7.417-3.1,12.947-11.733,12.947H163.6V85.8h12.542C184.773,85.8,187.875,91.194,187.875,98.747Zm-12.812,28.86c3.372,0,4.585-2.023,4.585-4.99V97.263c0-2.832-1.349-4.855-4.585-4.855h-3.372v35.2Z" transform="translate(-107.228 -17.56)" fill="#fff"/>
      <path id="Pfad_14437" data-name="Pfad 14437" d="M189.8,123.905v-6.473h7.552v6.608c0,2.7,1.214,4.316,4.046,4.316,2.562,0,3.776-1.753,3.776-4.316v-1.888c0-2.832-1.079-4.45-3.641-6.878l-4.855-4.855c-4.585-4.585-6.743-7.417-6.743-12.947V95.854c0-6.069,3.507-10.654,11.463-10.654,8.092,0,11.328,4.046,11.328,11.059v3.911h-7.417V95.989c0-2.832-1.349-4.181-3.911-4.181-2.293,0-3.911,1.349-3.911,4.046V96.8c0,2.7,1.484,4.316,3.911,6.608l5.26,5.125c4.45,4.45,6.608,7.283,6.608,12.542v2.293c0,6.608-3.506,11.328-11.868,11.328C193.037,134.964,189.8,130.379,189.8,123.905Z" transform="translate(-98.094 -17.769)" fill="#fff"/>
      <path id="Pfad_14438" data-name="Pfad 14438" d="M208.6,134.215,217.771,85.8h9.305l9.171,48.415h-8.361l-1.483-8.9h-8.631l-1.484,8.9Zm10.115-15.374h6.473l-3.237-19.42h-.135Z" transform="translate(-91.54 -17.56)" fill="#fff"/>
      <path id="Pfad_14439" data-name="Pfad 14439" d="M238.178,103.737v30.479H231.3V85.8h7.957l8.766,27.782V85.8h6.743v48.415h-7.148Z" transform="translate(-83.626 -17.56)" fill="#fff"/>
      <path id="Pfad_14440" data-name="Pfad 14440" d="M252,85.8h8.092v48.415H252Z" transform="translate(-76.41 -17.56)" fill="#fff"/>
      <path id="Pfad_14441" data-name="Pfad 14441" d="M260.5,85.8h21.713v6.608H275.47v41.807h-8.226V92.408H260.5Z" transform="translate(-73.446 -17.56)" fill="#fff"/>
      <path id="Pfad_14442" data-name="Pfad 14442" d="M275.5,136.272l9.171-48.415h9.306l9.171,48.415h-8.361l-1.484-8.9h-8.631l-1.483,8.9ZM281.569,79.9h6.878v6.2h-6.878Zm4.181,41h6.473l-3.237-19.42h-.135Zm4.45-41h6.878v6.2H290.2Z" transform="translate(-68.217 -19.617)" fill="#fff"/>
      <path id="Pfad_14443" data-name="Pfad 14443" d="M306.392,111.963v22.252H298.3V85.8h11.868c8.226,0,11.193,4.046,11.193,10.924v6.2c0,5.26-1.888,8.227-6.473,9.305l7.822,21.982h-8.631Zm0-19.555v15.1h2.7c2.832,0,4.046-1.483,4.046-4.046V96.319c0-2.7-1.214-3.911-4.046-3.911Z" transform="translate(-60.269 -17.56)" fill="#fff"/>
      <path id="Pfad_14444" data-name="Pfad 14444" d="M318,100.4h11.463v6.608H318Z" transform="translate(-53.401 -12.47)" fill="#fff"/>
      <path id="Pfad_14445" data-name="Pfad 14445" d="M122.2,135.8h19.42v6.608H130.292V156.3h8.092v6.608h-8.092v14.7H141.62v6.608H122.2Z" transform="translate(-121.661 -0.129)" fill="#fff"/>
      <path id="Pfad_14446" data-name="Pfad 14446" d="M139.5,135.8h8.092v48.415H139.5Z" transform="translate(-115.629 -0.129)" fill="#fff"/>
      <path id="Pfad_14447" data-name="Pfad 14447" d="M155.678,153.737v30.479H148.8V135.8h7.957l8.766,27.782V135.8h6.743v48.415h-7.013Z" transform="translate(-112.387 -0.129)" fill="#fff"/>
      <path id="Pfad_14448" data-name="Pfad 14448" d="M177.592,161.963v22.252H169.5V135.8h11.868c8.227,0,11.194,4.046,11.194,10.924v6.2c0,5.26-1.888,8.227-6.473,9.305l7.822,21.982h-8.631Zm0-19.555v15.1h2.7c2.832,0,4.046-1.483,4.046-4.046v-7.148c0-2.7-1.214-3.911-4.046-3.911Z" transform="translate(-105.171 -0.129)" fill="#fff"/>
      <path id="Pfad_14449" data-name="Pfad 14449" d="M189.6,135.8h8.092v48.415H189.6Z" transform="translate(-98.164 -0.129)" fill="#fff"/>
      <path id="Pfad_14450" data-name="Pfad 14450" d="M198.9,171.848V148.382c0-7.552,3.506-13.082,12.137-13.082,9.036,0,11.463,4.99,11.463,12.138V153.1h-7.417v-6.338c0-2.967-.944-4.72-3.911-4.72s-4.181,2.023-4.181,4.99v26.028c0,2.967,1.214,4.99,4.181,4.99s3.911-1.888,3.911-4.72v-8.9H222.5v8.361c0,6.878-2.832,12.138-11.463,12.138C202.541,184.929,198.9,179.4,198.9,171.848Z" transform="translate(-94.921 -0.303)" fill="#fff"/>
      <path id="Pfad_14451" data-name="Pfad 14451" d="M235.414,162.807h-7.822v21.308H219.5V135.7h8.092v20.634h7.822v-20.5h8.227V184.25h-8.227Z" transform="translate(-87.74 -0.164)" fill="#fff"/>
      <path id="Pfad_14452" data-name="Pfad 14452" d="M239.9,135.8h21.713v6.608H254.87v41.807h-8.227V142.408H239.9Z" transform="translate(-80.628 -0.129)" fill="#fff"/>
      <path id="Pfad_14453" data-name="Pfad 14453" d="M282.2,135.8v36.682c0,7.552-3.237,12.407-11.463,12.407-8.631,0-12.138-4.855-12.138-12.407V135.8h8.092v37.492c0,2.832,1.079,4.855,4.046,4.855,2.832,0,4.046-1.888,4.046-4.855V135.8Z" transform="translate(-74.109 -0.129)" fill="#fff"/>
      <path id="Pfad_14454" data-name="Pfad 14454" d="M286.078,153.737v30.479H279.2V135.8h7.957l8.766,27.782V135.8h6.743v48.415h-7.148Z" transform="translate(-66.927 -0.129)" fill="#fff"/>
      <path id="Pfad_14455" data-name="Pfad 14455" d="M312.172,158.5h11.6V184.39h-5.8v-5.26c-1.079,3.641-3.371,5.8-7.822,5.8-7.013,0-10.25-5.529-10.25-13.082V148.382c0-7.552,3.641-13.082,12.272-13.082,9.036,0,11.6,4.99,11.6,12.138v4.316h-7.417v-4.99c0-2.967-1.079-4.72-4.046-4.72s-4.181,2.023-4.181,4.99v26.028c0,2.967,1.214,4.99,4.046,4.99,2.7,0,4.046-1.483,4.046-4.585v-8.631h-4.046Z" transform="translate(-59.711 -0.303)" fill="#fff"/>
      <path id="Pfad_14456" data-name="Pfad 14456" d="M320.8,135.8h19.42v6.608H328.892V156.3h8.092v6.608h-8.092v14.7H340.22v6.608H320.8Z" transform="translate(-52.425 -0.129)" fill="#fff"/>
      <path id="Pfad_14457" data-name="Pfad 14457" d="M345.078,153.737v30.479H338.2V135.8h7.957l8.766,27.782V135.8h6.743v48.415h-7.148Z" transform="translate(-46.359 -0.129)" fill="#fff"/>
    </g>
    <path id="Pfad_14458" data-name="Pfad 14458" d="M325.923,198.974a2.234,2.234,0,0,0-1.618-.674H141.836a2.233,2.233,0,0,0-1.618.674,2.045,2.045,0,0,0-.4,1.753l30.614,185.435a2.067,2.067,0,0,0,2.158,1.753h37.627l2.562,30.209H196.995l36.817,36.817,36.952-36.952H254.985l2.562-30.209h38.3a2.306,2.306,0,0,0,2.158-1.753l28.321-185.435A1.772,1.772,0,0,0,325.923,198.974ZM255.39,347.322a29.033,29.033,0,0,1-21.713,7.552,29.508,29.508,0,0,1-21.848-7.552c-13.621-13.621-8.766-30.614-4.046-39.38,2.967-5.529,24.005-37.087,25.759-39.784v-.135l.135.135.135-.135v.27c1.753,2.7,22.792,34.255,25.759,39.784C264.156,316.709,269.011,333.7,255.39,347.322Zm57.856-109.373c-4.99-2.158-11.193-1.349-17.262,1.079-22.657,9.171-38.031,12.542-61.9,4.99-14.97-4.72-29-14.565-45.583-8.5-11.059,3.911-21.308,7.687-33.716,7.687l-7.148-36.817H318.37Z" transform="translate(-9.939 22.336)" fill="#fff"/>
  </g>
</svg>