<svg id="sdg_16" xmlns="http://www.w3.org/2000/svg" width="576" height="576" viewBox="0 0 576 576">
  <rect id="Rechteck_353" data-name="Rechteck 353" width="576" height="576" fill="#00689d"/>
  <g id="sdg_16-2" data-name="sdg_16" transform="translate(54.001 50.4)">
    <path id="Pfad_14106" data-name="Pfad 14106" d="M32.7,56.6V76.968h.27L46.591,62.807h.135v88.6h19.42V35.7H50.637Z" transform="translate(-32.701 -34.214)" fill="#fff"/>
    <path id="Pfad_14107" data-name="Pfad 14107" d="M122.712,123.879V106.886c0-18.881-7.552-28.456-21.443-28.456-8.227,0-13.082,3.776-16.049,9.44h-.135V62.921c0-7.013,2.158-12,9.171-12s9.036,4.046,9.036,11.194V69.8h17.8V63.6c0-17.127-5.664-29-27.107-29C73.487,34.6,65.8,47.682,65.8,65.888v56.237c0,17.937,7.822,30.883,28.321,30.883,20.634.135,28.591-11.194,28.591-29.13m-19.285,1.753c0,7.283-2.7,11.6-9.44,11.6-6.473,0-9.036-4.45-9.036-11.6V104.458c.27-6.473,3.1-10.519,9.171-10.519,6.608,0,9.171,4.046,9.171,11.6v20.094Z" transform="translate(-21.162 -34.6)" fill="#fff"/>
    <path id="Pfad_14108" data-name="Pfad 14108" d="M134.6,35.3h19.016v6.608H142.692V55.8h8.092v6.608h-8.092V83.715H134.6Z" transform="translate(2.822 -34.354)" fill="#fff"/>
    <path id="Pfad_14109" data-name="Pfad 14109" d="M159.292,61.6V83.85H151.2V35.3h11.868c8.227,0,11.193,4.046,11.193,10.924v6.2c0,5.26-1.888,8.227-6.473,9.305l7.822,21.983h-8.631Zm0-19.69v15.1h2.7c2.832,0,4.046-1.483,4.046-4.046V45.819c0-2.7-1.214-3.911-4.046-3.911Z" transform="translate(8.607 -34.354)" fill="#fff"/>
    <path id="Pfad_14110" data-name="Pfad 14110" d="M171.3,35.3h8.092V83.715H171.3Z" transform="translate(15.615 -34.354)" fill="#fff"/>
    <path id="Pfad_14111" data-name="Pfad 14111" d="M180.6,35.3h19.42v6.608H188.692V55.8h8.092v6.608h-8.092v14.7H200.02v6.608H180.6Z" transform="translate(18.857 -34.354)" fill="#fff"/>
    <path id="Pfad_14112" data-name="Pfad 14112" d="M222.275,48.382V70.769c0,7.417-3.1,12.947-11.733,12.947H198V35.3h12.542C219.308,35.3,222.275,40.829,222.275,48.382ZM209.463,77.107c3.372,0,4.585-2.023,4.585-4.99V46.763c0-2.832-1.349-4.855-4.585-4.855h-3.372v35.2Z" transform="translate(24.924 -34.354)" fill="#fff"/>
    <path id="Pfad_14113" data-name="Pfad 14113" d="M219.2,35.3h19.42v6.608H227.292V55.8h8.092v6.608h-8.092v14.7H238.62v6.608H219.2Z" transform="translate(32.314 -34.354)" fill="#fff"/>
    <path id="Pfad_14114" data-name="Pfad 14114" d="M243.478,53.371V83.85H236.6V35.3h7.957l8.766,27.782V35.3h6.743V83.715h-7.148Z" transform="translate(38.381 -34.354)" fill="#fff"/>
    <path id="Pfad_14115" data-name="Pfad 14115" d="M265.766,66.074,261.585,77H257l.944-11.6h7.687v.674Z" transform="translate(45.492 -23.861)" fill="#fff"/>
    <path id="Pfad_14116" data-name="Pfad 14116" d="M146.872,108.1h11.6V133.99h-5.8v-5.26c-1.079,3.641-3.372,5.8-7.822,5.8-7.013,0-10.25-5.529-10.25-13.082V97.982c0-7.552,3.641-13.082,12.272-13.082,9.036,0,11.6,4.99,11.6,12.138v4.316h-7.417v-4.99c0-2.967-1.079-4.72-4.046-4.72s-4.181,2.023-4.181,4.99v26.028c0,2.967,1.214,4.99,4.046,4.99,2.7,0,4.046-1.483,4.046-4.585v-8.631h-3.911V108.1Z" transform="translate(2.822 -17.063)" fill="#fff"/>
    <path id="Pfad_14117" data-name="Pfad 14117" d="M155.5,85.3h19.42v6.608H163.592V105.8h8.092v6.608h-8.092v14.7H174.92v6.608H155.5Z" transform="translate(10.107 -16.923)" fill="#fff"/>
    <path id="Pfad_14118" data-name="Pfad 14118" d="M180.992,111.6V133.85H172.9V85.3h11.868c8.227,0,11.193,4.046,11.193,10.924v6.2c0,5.26-1.888,8.227-6.473,9.305l7.822,21.983h-8.631Zm0-19.69v15.1h2.7c2.832,0,4.046-1.483,4.046-4.046V95.819c0-2.7-1.214-3.911-4.046-3.911h-2.7Z" transform="translate(16.174 -16.923)" fill="#fff"/>
    <path id="Pfad_14119" data-name="Pfad 14119" d="M193,85.3h19.42v6.608H201.092V105.8h8.092v6.608h-8.092v14.7H212.42v6.608H193Z" transform="translate(23.182 -16.923)" fill="#fff"/>
    <path id="Pfad_14120" data-name="Pfad 14120" d="M209.9,121.448V97.982c0-7.552,3.507-13.082,12.138-13.082,9.036,0,11.463,4.99,11.463,12.138V102.7h-7.417V96.363c0-2.967-.944-4.72-3.911-4.72s-4.181,2.023-4.181,4.99v26.028c0,2.967,1.214,4.99,4.181,4.99s3.911-1.888,3.911-4.72v-8.9H233.5v8.361c0,6.878-2.832,12.138-11.463,12.138S209.9,128.865,209.9,121.448Z" transform="translate(29.072 -17.063)" fill="#fff"/>
    <path id="Pfad_14121" data-name="Pfad 14121" d="M246.414,112.407h-7.822v21.308H230.5V85.3h8.092v20.5h7.822V85.3h8.227v48.415h-8.227Z" transform="translate(36.254 -16.923)" fill="#fff"/>
    <path id="Pfad_14122" data-name="Pfad 14122" d="M250.9,85.3h21.713v6.608H265.87v41.807h-8.227V91.908H250.9Z" transform="translate(43.365 -16.923)" fill="#fff"/>
    <path id="Pfad_14123" data-name="Pfad 14123" d="M269.5,85.3h8.092v48.415H269.5Z" transform="translate(49.85 -16.923)" fill="#fff"/>
    <path id="Pfad_14124" data-name="Pfad 14124" d="M291.072,108.1h11.6V133.99h-5.8v-5.26c-1.079,3.641-3.372,5.8-7.822,5.8-7.013,0-10.249-5.529-10.249-13.082V97.982c0-7.552,3.641-13.082,12.272-13.082,9.036,0,11.6,4.99,11.6,12.138v4.316h-7.417v-4.99c0-2.967-1.079-4.72-4.046-4.72s-4.181,2.023-4.181,4.99v26.028c0,2.967,1.214,4.99,4.046,4.99,2.7,0,4.046-1.483,4.046-4.585v-8.631h-3.911V108.1Z" transform="translate(53.092 -17.063)" fill="#fff"/>
    <path id="Pfad_14125" data-name="Pfad 14125" d="M307.792,110.249v23.6H299.7V85.3h8.092v21.308l8.9-21.308h7.957l-9.44,21.848,9.71,26.7h-8.631Z" transform="translate(60.379 -16.923)" fill="#fff"/>
    <path id="Pfad_14126" data-name="Pfad 14126" d="M320.4,85.3h19.42v6.608H328.492V105.8h8.092v6.608h-8.092v14.7H339.82v6.608H320.4Z" transform="translate(67.596 -16.923)" fill="#fff"/>
    <path id="Pfad_14127" data-name="Pfad 14127" d="M337.8,85.3h8.092v48.415H337.8Z" transform="translate(73.66 -16.923)" fill="#fff"/>
    <path id="Pfad_14128" data-name="Pfad 14128" d="M346.4,85.3h21.713v6.608H361.37v41.807h-8.227V91.908H346.4Z" transform="translate(76.658 -16.923)" fill="#fff"/>
    <path id="Pfad_14129" data-name="Pfad 14129" d="M158.3,135.3v36.682c0,7.552-3.237,12.407-11.463,12.407-8.631,0-12.138-4.855-12.138-12.407V135.3h8.092v37.492c0,2.832,1.079,4.855,4.046,4.855,2.832,0,4.046-1.888,4.046-4.855V135.3Z" transform="translate(2.855 0.507)" fill="#fff"/>
    <path id="Pfad_14130" data-name="Pfad 14130" d="M162.178,153.337v30.479H155.3V135.4h7.957l8.766,27.782V135.4h6.743v48.415h-7.148Z" transform="translate(10.037 0.542)" fill="#fff"/>
    <path id="Pfad_14131" data-name="Pfad 14131" d="M200.41,148.382v22.387c0,7.417-3.1,12.947-11.733,12.947H176V135.3h12.542C197.308,135.3,200.41,140.829,200.41,148.382ZM187.6,177.107c3.372,0,4.585-2.023,4.585-4.99V146.763c0-2.832-1.349-4.855-4.585-4.855h-3.372v35.2Z" transform="translate(17.254 0.507)" fill="#fff"/>
    <path id="Pfad_14132" data-name="Pfad 14132" d="M202.3,173.505v-6.473h7.552v6.608c0,2.7,1.214,4.315,4.046,4.315,2.562,0,3.776-1.753,3.776-4.315v-1.888c0-2.832-1.079-4.45-3.641-6.878l-4.855-4.855c-4.585-4.585-6.743-7.417-6.743-12.947v-1.618c0-6.069,3.507-10.654,11.463-10.654,8.092,0,11.328,4.046,11.328,11.059v3.911h-7.417v-4.181c0-2.832-1.349-4.181-3.911-4.181-2.293,0-3.911,1.349-3.911,4.046v.944c0,2.7,1.484,4.316,3.911,6.608l5.26,5.125c4.451,4.45,6.608,7.283,6.608,12.542v2.293c0,6.608-3.507,11.328-11.868,11.328C205.4,184.564,202.3,179.844,202.3,173.505Z" transform="translate(26.424 0.333)" fill="#fff"/>
    <path id="Pfad_14133" data-name="Pfad 14133" d="M221,135.3h21.713v6.608H235.97v41.807h-8.227V141.908H221Z" transform="translate(32.941 0.507)" fill="#fff"/>
    <path id="Pfad_14134" data-name="Pfad 14134" d="M236,183.715l9.171-48.415h9.305l9.171,48.415h-8.361l-1.483-8.9h-8.631l-1.484,8.9H236Zm10.25-15.239h6.473l-3.237-19.42h0Z" transform="translate(38.172 0.507)" fill="#fff"/>
    <path id="Pfad_14135" data-name="Pfad 14135" d="M266.892,161.563v22.252H258.8V135.4h11.868c8.226,0,11.194,4.046,11.194,10.924v6.2c0,5.26-1.888,8.227-6.473,9.305l7.822,21.982h-8.631Zm0-19.69v15.1h2.7c2.832,0,4.046-1.483,4.046-4.046v-7.148c0-2.7-1.214-3.911-4.046-3.911Z" transform="translate(46.119 0.542)" fill="#fff"/>
    <path id="Pfad_14136" data-name="Pfad 14136" d="M286.992,160.215v23.6H278.9V135.4h8.092v21.308l8.9-21.308h7.957l-9.441,21.848,9.71,26.7h-8.631Z" transform="translate(53.127 0.542)" fill="#fff"/>
    <path id="Pfad_14137" data-name="Pfad 14137" d="M299.6,135.3h19.42v6.608H307.692V155.8h8.092v6.608h-8.092v14.7H319.02v6.608H299.6Z" transform="translate(60.344 0.507)" fill="#fff"/>
    <path id="Pfad_14138" data-name="Pfad 14138" d="M134.6,185.3h8.092v48.416H134.6Z" transform="translate(2.822 17.938)" fill="#fff"/>
    <path id="Pfad_14139" data-name="Pfad 14139" d="M150.778,203.337v30.479H143.9V185.4h7.957l8.766,27.782V185.4h6.743v48.415h-7.148Z" transform="translate(6.064 17.974)" fill="#fff"/>
    <path id="Pfad_14140" data-name="Pfad 14140" d="M164.3,223.505v-6.473h7.552v6.608c0,2.7,1.214,4.315,4.046,4.315,2.562,0,3.776-1.753,3.776-4.315v-1.888c0-2.832-1.079-4.45-3.641-6.878l-4.855-4.855c-4.585-4.585-6.743-7.417-6.743-12.947v-1.618c0-6.069,3.506-10.654,11.463-10.654,8.092,0,11.328,4.046,11.328,11.059v3.911h-7.417v-4.181c0-2.832-1.349-4.181-3.911-4.181-2.293,0-3.911,1.349-3.911,4.046v.944c0,2.7,1.484,4.316,3.911,6.608l5.26,5.125c4.451,4.45,6.608,7.283,6.608,12.542v2.293c0,6.608-3.506,11.328-11.868,11.328C167.4,234.564,164.3,229.844,164.3,223.505Z" transform="translate(13.176 17.765)" fill="#fff"/>
    <path id="Pfad_14141" data-name="Pfad 14141" d="M183,185.3h21.713v6.608H197.97v41.807h-8.227V191.908H183Z" transform="translate(19.695 17.938)" fill="#fff"/>
    <path id="Pfad_14142" data-name="Pfad 14142" d="M201.6,185.3h8.092v48.416H201.6Z" transform="translate(26.18 17.938)" fill="#fff"/>
    <path id="Pfad_14143" data-name="Pfad 14143" d="M210.2,185.3h21.713v6.608H225.17v41.807h-8.227V191.908H210.2Z" transform="translate(29.178 17.938)" fill="#fff"/>
    <path id="Pfad_14144" data-name="Pfad 14144" d="M252.4,185.3v36.682c0,7.552-3.237,12.407-11.463,12.407-8.631,0-12.137-4.855-12.137-12.407V185.3h8.092v37.492c0,2.832,1.079,4.855,4.046,4.855,2.832,0,4.046-1.888,4.046-4.855V185.3Z" transform="translate(35.662 17.938)" fill="#fff"/>
    <path id="Pfad_14145" data-name="Pfad 14145" d="M248.8,185.3h21.713v6.608H263.77v41.807h-8.227V191.908H248.8V185.3Z" transform="translate(42.633 17.938)" fill="#fff"/>
    <path id="Pfad_14146" data-name="Pfad 14146" d="M267.4,185.3h8.092v48.416H267.4Z" transform="translate(49.119 17.938)" fill="#fff"/>
    <path id="Pfad_14147" data-name="Pfad 14147" d="M276.7,221.448V197.982c0-7.552,3.776-13.082,12.272-13.082,8.631,0,12.407,5.529,12.407,13.082v23.466c0,7.552-3.776,13.082-12.407,13.082C280.476,234.529,276.7,228.865,276.7,221.448Zm16.588,1.214V196.633c0-2.967-1.349-4.99-4.181-4.99s-4.181,2.023-4.181,4.99v26.028c0,2.967,1.349,4.99,4.181,4.99S293.288,225.628,293.288,222.661Z" transform="translate(52.361 17.799)" fill="#fff"/>
    <path id="Pfad_14148" data-name="Pfad 14148" d="M305.078,203.337v30.479H298.2V185.4h7.957l8.766,27.782V185.4h6.743v48.415h-7.148Z" transform="translate(59.855 17.974)" fill="#fff"/>
    <path id="Pfad_14149" data-name="Pfad 14149" d="M318.9,185.3h19.42v6.608H326.992V205.8h8.092v6.608h-8.092v14.7H338.32v6.608H318.9Z" transform="translate(67.072 17.938)" fill="#fff"/>
    <path id="Pfad_14150" data-name="Pfad 14150" d="M343.078,203.337v30.479H336.2V185.4h7.957l8.766,27.782V185.4h6.743v48.415h-7.148Z" transform="translate(73.104 17.974)" fill="#fff"/>
    <path id="Pfad_14151" data-name="Pfad 14151" d="M268.024,242.9s-4.181,5.529-2.967,10.924,7.283,8.5,7.283,8.5,4.181-5.529,2.967-10.924c-1.079-5.394-7.282-8.5-7.282-8.5" transform="translate(48.227 38.02)" fill="#fff"/>
    <path id="Pfad_14152" data-name="Pfad 14152" d="M264.14,271.12s4.181-5.529,2.967-10.924-7.283-8.5-7.283-8.5-4.181,5.529-2.967,10.924,7.282,8.5,7.282,8.5" transform="translate(45.367 41.087)" fill="#fff"/>
    <path id="Pfad_14153" data-name="Pfad 14153" d="M274.8,263.241s4.316,4.451,9.306,3.911c4.99-.4,8.631-5.529,8.631-5.529s-4.316-4.45-9.305-3.911c-4.855.4-8.631,5.529-8.631,5.529" transform="translate(51.699 43.167)" fill="#fff"/>
    <path id="Pfad_14154" data-name="Pfad 14154" d="M281.113,245.213c-4.046,4.046-3.506,11.328-3.506,11.328s7.148.674,11.194-3.506c4.046-4.046,3.506-11.328,3.506-11.328s-7.148-.539-11.194,3.506" transform="translate(52.67 37.595)" fill="#fff"/>
    <path id="Pfad_14155" data-name="Pfad 14155" d="M275.661,276.353c4.99.539,9.575-3.641,9.575-3.641s-3.372-5.259-8.362-5.8-9.575,3.641-9.575,3.641,3.506,5.26,8.361,5.8" transform="translate(49.084 46.375)" fill="#fff"/>
    <path id="Pfad_14156" data-name="Pfad 14156" d="M287.747,333.1H250.66a5.182,5.182,0,0,0-5.26,5.26,5.266,5.266,0,0,0,5.26,5.26h37.087a5.266,5.266,0,0,0,5.26-5.26,5.182,5.182,0,0,0-5.26-5.26" transform="translate(41.449 69.465)" fill="#fff"/>
    <path id="Pfad_14157" data-name="Pfad 14157" d="M287.747,376H250.66a5.182,5.182,0,0,0-5.26,5.26,5.266,5.266,0,0,0,5.26,5.26h37.087a5.266,5.266,0,0,0,5.26-5.26,5.182,5.182,0,0,0-5.26-5.26" transform="translate(41.449 84.421)" fill="#fff"/>
    <path id="Pfad_14158" data-name="Pfad 14158" d="M153.762,323.774a18,18,0,0,0-2.562-.674s.944.27,2.562.674" transform="translate(8.609 65.979)" fill="#fff"/>
    <path id="Pfad_14159" data-name="Pfad 14159" d="M320.493,374.941H286.1a2.994,2.994,0,0,0-2.967,2.967v10.385l-22.387,2.427-32.772-.809V369.951a90.144,90.144,0,0,0,13.082-2.7c31.558-8.9,38.436-28.591,37.761-46.662-.674-18.341,5.26-25.489,13.621-28.726a39.029,39.029,0,0,1,7.013-1.888,58.357,58.357,0,0,0,2.967,16.049c.809,0,1.483-.135,2.293-.135a50.452,50.452,0,0,1-3.1-16.184,38.932,38.932,0,0,1,7.417-.27,49.048,49.048,0,0,1-7.148-5.125c1.484-8.766,6.608-14.026,12-19.555a59.651,59.651,0,0,0,8.361-9.845l-1.888-1.214a60.9,60.9,0,0,1-8.092,9.44c-5.26,5.394-10.519,10.789-12.272,19.42a67.7,67.7,0,0,1-5.394-5.394c-7.822-8.766-17.8-2.293-32.1,10.924-14.3,13.352-32.232,13.756-49.764-4.181-23.2-23.736-43.426-23.6-57.182-22.252,9.44,4.046,12.812,12.947,17.532,35.469,4.99,23.6,17.667,34.255,35.064,35.738-8.092,1.349-10.115,2.427-23.061,11.328-10.115,7.013-24.275,4.72-30.074,3.506,10.519,3.237,23.061,14.43,34.255,18.206a79.1,79.1,0,0,0,20.5,4.181v19.15L147.6,387.888v13.351l113.149-2.562,22.387,2.427v10.384a2.993,2.993,0,0,0,2.967,2.967h34.39a2.993,2.993,0,0,0,2.967-2.967v-34.12A2.958,2.958,0,0,0,320.493,374.941ZM215.166,370.76c2.428,0,4.855,0,7.417-.135v19.42l-7.417-.135Z" transform="translate(7.355 41.785)" fill="#fff"/>
    <path id="Pfad_14160" data-name="Pfad 14160" d="M148.2,365.53c0,2.832-2.023,5.125-4.45,5.125h-2.7c-2.428,0-4.45-2.293-4.45-5.125v-9.305c0-2.832,2.023-5.125,4.45-5.125h2.7c2.427,0,4.45,2.293,4.45,5.125Z" transform="translate(3.52 75.74)" fill="#fff"/>
  </g>
</svg>