<svg id="sdg_17" xmlns="http://www.w3.org/2000/svg" width="576" height="576" viewBox="0 0 576 576">
  <rect id="Rechteck_352" data-name="Rechteck 352" width="576" height="576" fill="#19486a"/>
  <g id="sdg_17-2" data-name="sdg_17" transform="translate(54.003 50.402)">
    <path id="Pfad_14066" data-name="Pfad 14066" d="M72.346,35.7V151.277H52.791V62.807h-.135L39.035,76.968H38.9V56.6L56.7,35.7Z" transform="translate(-38.898 -34.483)" fill="#fff"/>
    <path id="Pfad_14067" data-name="Pfad 14067" d="M70.2,35.7h48.82V53.5L93.666,151.277H74.381l25.893-99.8H70.2Z" transform="translate(-27.986 -34.483)" fill="#fff"/>
    <path id="Pfad_14068" data-name="Pfad 14068" d="M134.2,34.8h12.138c8.227,0,11.194,4.046,11.194,10.924v10.25c0,6.743-2.967,10.924-11.194,10.924h-3.911V83.35h-8.092V34.8Zm8.092,6.608V60.424h2.967c2.832,0,4.046-1.349,4.046-4.046V45.184c0-2.7-1.214-3.911-4.046-3.911h-2.967Z" transform="translate(-5.674 -34.8)" fill="#fff"/>
    <path id="Pfad_14069" data-name="Pfad 14069" d="M151.2,83.215,160.371,34.8h9.306l9.17,48.415h-8.361L169,74.315h-8.631l-1.483,8.9Zm10.25-15.374h6.473l-3.237-19.42h-.135Z" transform="translate(0.252 -34.8)" fill="#fff"/>
    <path id="Pfad_14070" data-name="Pfad 14070" d="M182.092,60.963V83.215H174V34.8h11.868c8.227,0,11.193,4.046,11.193,10.924v6.2c0,5.26-1.888,8.227-6.473,9.305l7.822,21.982h-8.631Zm0-19.555v15.1h2.7c2.832,0,4.046-1.483,4.046-4.046V45.319c0-2.7-1.214-3.911-4.046-3.911Z" transform="translate(8.201 -34.8)" fill="#fff"/>
    <path id="Pfad_14071" data-name="Pfad 14071" d="M192.9,34.8h21.713v6.608H207.87V83.215h-8.227V41.408H192.9Z" transform="translate(14.791 -34.8)" fill="#fff"/>
    <path id="Pfad_14072" data-name="Pfad 14072" d="M218.378,52.737V83.215H211.5V34.8h7.957l8.766,27.782V34.8h6.743V83.215h-7.148Z" transform="translate(21.275 -34.8)" fill="#fff"/>
    <path id="Pfad_14073" data-name="Pfad 14073" d="M232.2,34.8h19.42v6.608H240.292V55.3h8.092v6.608h-8.092v14.7H251.62v6.608H232.2Z" transform="translate(28.49 -34.8)" fill="#fff"/>
    <path id="Pfad_14074" data-name="Pfad 14074" d="M257.692,60.963V83.215H249.6V34.8h11.868c8.227,0,11.194,4.046,11.194,10.924v6.2c0,5.26-1.888,8.227-6.473,9.305l7.822,21.982h-8.631Zm0-19.555v15.1h2.7c2.832,0,4.046-1.483,4.046-4.046V45.319c0-2.7-1.214-3.911-4.046-3.911Z" transform="translate(34.557 -34.8)" fill="#fff"/>
    <path id="Pfad_14075" data-name="Pfad 14075" d="M269.3,49.5h11.463v6.608H269.3Z" transform="translate(41.424 -29.675)" fill="#fff"/>
    <path id="Pfad_14076" data-name="Pfad 14076" d="M133.9,123.005v-6.473h7.552v6.608c0,2.7,1.214,4.316,4.046,4.316,2.562,0,3.776-1.753,3.776-4.316v-1.888c0-2.832-1.079-4.45-3.641-6.878l-4.855-4.855c-4.585-4.585-6.743-7.417-6.743-12.947V94.954c0-6.069,3.506-10.654,11.463-10.654,8.092,0,11.328,4.046,11.328,11.059V99.27h-7.417V95.089c0-2.832-1.349-4.181-3.911-4.181-2.293,0-3.911,1.349-3.911,4.046V95.9c0,2.7,1.484,4.316,3.911,6.608l5.26,5.125c4.45,4.45,6.608,7.283,6.608,12.542v2.293c0,6.608-3.641,11.328-11.868,11.328C137,133.929,133.9,129.344,133.9,123.005Z" transform="translate(-5.779 -17.543)" fill="#fff"/>
    <path id="Pfad_14077" data-name="Pfad 14077" d="M154.1,120.848V97.382c0-7.552,3.641-13.082,12.138-13.082,9.036,0,11.463,4.99,11.463,12.138V102.1h-7.417V95.763c0-2.967-.944-4.72-3.911-4.72s-4.181,2.023-4.181,4.99v26.028c0,2.967,1.214,4.99,4.181,4.99s3.911-1.888,3.911-4.72v-8.766H177.7v8.361c0,6.878-2.832,12.138-11.463,12.138C157.606,133.929,154.1,128.4,154.1,120.848Z" transform="translate(1.264 -17.543)" fill="#fff"/>
    <path id="Pfad_14078" data-name="Pfad 14078" d="M190.614,111.907h-7.822v21.308H174.7V84.8h8.092v20.5h7.822V84.8h8.227v48.415h-8.227Z" transform="translate(8.445 -17.368)" fill="#fff"/>
    <path id="Pfad_14079" data-name="Pfad 14079" d="M194.9,133.215,204.071,84.8h9.305l9.171,48.415h-8.361l-1.483-8.9h-8.631l-1.483,8.9Zm10.115-15.374h6.473l-3.237-19.42h-.135Z" transform="translate(15.486 -17.368)" fill="#fff"/>
    <path id="Pfad_14080" data-name="Pfad 14080" d="M217.6,84.8h19.016v6.608H225.692V105.3h8.092v6.608h-8.092v21.308H217.6Z" transform="translate(23.4 -17.368)" fill="#fff"/>
    <path id="Pfad_14081" data-name="Pfad 14081" d="M233.7,84.8h21.713v6.608H248.67v41.807h-8.227V91.408H233.7Z" transform="translate(29.014 -17.368)" fill="#fff"/>
    <path id="Pfad_14082" data-name="Pfad 14082" d="M252.3,84.8h19.42v6.608H260.392V105.3h8.092v6.608h-8.092v14.7H271.72v6.608H252.3V84.8Z" transform="translate(35.498 -17.368)" fill="#fff"/>
    <path id="Pfad_14083" data-name="Pfad 14083" d="M276.578,102.737v30.479H269.7V84.8h7.957l8.766,27.782V84.8h6.743v48.415h-7.148Z" transform="translate(41.564 -17.368)" fill="#fff"/>
    <path id="Pfad_14084" data-name="Pfad 14084" d="M142.3,176.607H154.7v6.608H133.8v-6.608l12.812-35.2H135.149V134.8h20.094v6.608Z" transform="translate(-5.813 0.063)" fill="#fff"/>
    <path id="Pfad_14085" data-name="Pfad 14085" d="M176.1,134.8v36.683c0,7.552-3.237,12.407-11.463,12.407-8.631,0-12.138-4.855-12.138-12.407V134.8h8.092v37.492c0,2.832,1.079,4.855,4.046,4.855,2.832,0,4.046-1.888,4.046-4.855V134.8Z" transform="translate(0.705 0.063)" fill="#fff"/>
    <path id="Pfad_14086" data-name="Pfad 14086" d="M181.392,160.963v22.252H173.3V134.8h11.868c8.227,0,11.194,4.046,11.194,10.924v6.2c0,5.26-1.888,8.227-6.473,9.305l7.822,21.983h-8.631Zm0-19.555v15.1h2.7c2.832,0,4.046-1.483,4.046-4.046v-7.148c0-2.7-1.214-3.911-4.046-3.911Z" transform="translate(7.957 0.063)" fill="#fff"/>
    <path id="Pfad_14087" data-name="Pfad 14087" d="M198.7,134.8h19.42v6.608H206.792V155.3h8.092v6.608h-8.092v14.7H218.12v6.608H198.7Z" transform="translate(16.813 0.063)" fill="#fff"/>
    <path id="Pfad_14088" data-name="Pfad 14088" d="M224.192,160.963v22.252H216.1V134.8h11.868c8.227,0,11.194,4.046,11.194,10.924v6.2c0,5.26-1.888,8.227-6.473,9.305l7.822,21.983h-8.631Zm0-19.555v15.1h2.7c2.832,0,4.046-1.483,4.046-4.046v-7.148c0-2.7-1.214-3.911-4.046-3.911Z" transform="translate(22.879 0.063)" fill="#fff"/>
    <path id="Pfad_14089" data-name="Pfad 14089" d="M244.292,160.963v22.252H236.2V134.8h11.868c8.227,0,11.193,4.046,11.193,10.924v6.2c0,5.26-1.888,8.227-6.473,9.305l7.822,21.983h-8.631Zm0-19.555v15.1h2.7c2.832,0,4.046-1.483,4.046-4.046v-7.148c0-2.7-1.214-3.911-4.046-3.911Z" transform="translate(29.885 0.063)" fill="#fff"/>
    <path id="Pfad_14090" data-name="Pfad 14090" d="M256.3,134.8h19.42v6.608H264.392V155.3h8.092v6.608h-8.092v14.7H275.72v6.608H256.3Z" transform="translate(36.893 0.063)" fill="#fff"/>
    <path id="Pfad_14091" data-name="Pfad 14091" d="M273.7,134.8h8.092v48.415H273.7Z" transform="translate(42.959 0.063)" fill="#fff"/>
    <path id="Pfad_14092" data-name="Pfad 14092" d="M283,170.848V147.382c0-7.552,3.641-13.082,12.138-13.082,9.036,0,11.463,4.99,11.463,12.138V152.1h-7.417v-6.339c0-2.967-.944-4.72-3.911-4.72s-4.181,2.023-4.181,4.99v26.028c0,2.967,1.214,4.99,4.181,4.99s3.911-1.888,3.911-4.72v-8.766H306.6v8.361c0,6.878-2.832,12.138-11.463,12.138C286.506,183.929,283,178.4,283,170.848Z" transform="translate(46.201 -0.112)" fill="#fff"/>
    <path id="Pfad_14093" data-name="Pfad 14093" d="M319.514,161.907h-7.822v21.308H303.6V134.8h8.092v20.5h7.822V134.8h8.227v48.415h-8.227Z" transform="translate(53.383 0.063)" fill="#fff"/>
    <path id="Pfad_14094" data-name="Pfad 14094" d="M348.3,134.8v36.683c0,7.552-3.237,12.407-11.463,12.407-8.631,0-12.137-4.855-12.137-12.407V134.8h8.092v37.492c0,2.832,1.079,4.855,4.046,4.855s4.046-1.888,4.046-4.855V134.8Z" transform="translate(60.738 0.063)" fill="#fff"/>
    <path id="Pfad_14095" data-name="Pfad 14095" d="M352.278,152.737v30.479H345.4V134.8h7.957l8.766,27.782V134.8h6.743v48.415h-7.148Z" transform="translate(67.955 0.063)" fill="#fff"/>
    <path id="Pfad_14096" data-name="Pfad 14096" d="M378.372,157.5h11.6V183.39h-5.8v-5.26c-1.079,3.641-3.372,5.8-7.822,5.8-7.013,0-10.25-5.529-10.25-13.082V147.382c0-7.552,3.641-13.082,12.272-13.082,9.036,0,11.6,4.99,11.6,12.138v4.316h-7.418v-4.99c0-2.967-1.079-4.72-4.046-4.72s-4.181,2.023-4.181,4.99v26.028c0,2.967,1.214,4.99,4.046,4.99,2.7,0,4.046-1.483,4.046-4.585v-8.631h-3.911V157.5Z" transform="translate(75.172 -0.112)" fill="#fff"/>
    <path id="Pfad_14097" data-name="Pfad 14097" d="M158.475,197.782v22.387c0,7.417-3.1,12.947-11.733,12.947H134.2V184.7h12.542C155.508,184.835,158.475,190.364,158.475,197.782ZM145.8,226.642c3.372,0,4.585-2.023,4.585-4.99V196.3c0-2.832-1.349-4.855-4.585-4.855h-3.372v35.2Z" transform="translate(-5.674 17.459)" fill="#fff"/>
    <path id="Pfad_14098" data-name="Pfad 14098" d="M155.4,184.8h19.42v6.608H163.492V205.3h8.092v6.608h-8.092v14.7H174.82v6.608H155.4Z" transform="translate(1.717 17.494)" fill="#fff"/>
    <path id="Pfad_14099" data-name="Pfad 14099" d="M180.892,210.963v22.252H172.8V184.8h11.868c8.227,0,11.194,4.046,11.194,10.924v6.2c0,5.26-1.888,8.227-6.473,9.305l7.822,21.983h-8.631Zm0-19.555v15.1h2.7c2.832,0,4.046-1.484,4.046-4.046v-7.148c0-2.7-1.214-3.911-4.046-3.911Z" transform="translate(7.783 17.494)" fill="#fff"/>
    <path id="Pfad_14100" data-name="Pfad 14100" d="M206.3,226.607H218.7v6.608H197.8v-6.608l12.812-35.2H199.149V184.8h20.094v6.608Z" transform="translate(16.498 17.494)" fill="#fff"/>
    <path id="Pfad_14101" data-name="Pfad 14101" d="M216.6,184.8h8.092v48.416H216.6Z" transform="translate(23.053 17.494)" fill="#fff"/>
    <path id="Pfad_14102" data-name="Pfad 14102" d="M225.9,184.8h19.42v6.608H233.992V205.3h8.092v6.608h-8.092v14.7H245.32v6.608H225.9Z" transform="translate(26.295 17.494)" fill="#fff"/>
    <path id="Pfad_14103" data-name="Pfad 14103" d="M243.2,184.8h8.092v41.807H261v6.608H243.2Z" transform="translate(32.326 17.494)" fill="#fff"/>
    <path id="Pfad_14104" data-name="Pfad 14104" d="M259,184.8h19.42v6.608H267.092V205.3h8.092v6.608h-8.092v14.7H278.42v6.608H259Z" transform="translate(37.834 17.494)" fill="#fff"/>
    <path id="Pfad_14105" data-name="Pfad 14105" d="M335.341,324.233a51.338,51.338,0,0,0-49.225-51.113,51.029,51.029,0,0,0-96.292,0,51.145,51.145,0,0,0-29.535,91.437,49.244,49.244,0,0,0-2.023,14.16A51.167,51.167,0,0,0,209.38,429.83a51.791,51.791,0,0,0,28.86-8.9,51.035,51.035,0,0,0,79.434-42.481,52.329,52.329,0,0,0-1.888-13.891,51.492,51.492,0,0,0,19.555-40.324M278.7,290.113A40.811,40.811,0,0,1,243.9,330.436a48.178,48.178,0,0,1-.539-6.338,40.811,40.811,0,0,1,34.794-40.324,34.5,34.5,0,0,1,.539,6.339M238.105,407.577a40.708,40.708,0,0,1-.4-58.126,40.708,40.708,0,0,1,.4,58.126M197.647,283.909a40.811,40.811,0,0,1,34.794,40.324,50.241,50.241,0,0,1-.539,6.338,40.811,40.811,0,0,1-34.794-40.324,32.62,32.62,0,0,1,.539-6.339m30.344,58.53a40.8,40.8,0,0,1-36.413,22.522,40.139,40.139,0,0,1-18.746-4.585,40.672,40.672,0,0,1,55.159-17.937m19.69-.27a40.534,40.534,0,0,1,55.428,18.072,40.534,40.534,0,0,1-55.428-18.072m-9.845-92.785a40.677,40.677,0,0,1,37.357,24.545,51.167,51.167,0,0,0-37.357,28.726,51.167,51.167,0,0,0-37.357-28.726,40.82,40.82,0,0,1,37.357-24.545m-87.121,74.848a40.9,40.9,0,0,1,36.413-40.593,52.144,52.144,0,0,0-.4,6.473,50.908,50.908,0,0,0,16.723,37.761A51.125,51.125,0,0,0,164.2,354.442a40.635,40.635,0,0,1-13.486-30.209m17.8,54.484a35.687,35.687,0,0,1,.944-8.5,51.054,51.054,0,0,0,46.932-1.214,54.639,54.639,0,0,0-.944,9.44,51.437,51.437,0,0,0,14.43,35.6,40.661,40.661,0,0,1-61.362-35.334m138.773-.4a40.707,40.707,0,0,1-60.958,35.469,51.227,51.227,0,0,0,14.026-35.064,59.39,59.39,0,0,0-.944-9.845,50.833,50.833,0,0,0,47.067,1.348,40.169,40.169,0,0,1,.809,8.092M272.63,327.6a51.323,51.323,0,0,0,15.914-43.965,40.8,40.8,0,0,1,36.413,40.593A41.236,41.236,0,0,1,311.6,354.442,51.3,51.3,0,0,0,272.63,327.6" transform="translate(-3.443 36.392)" fill="#fff"/>
  </g>
</svg>