<svg id="sdg_11" xmlns="http://www.w3.org/2000/svg" width="576" height="576" viewBox="0 0 576 576">
  <rect id="Rechteck_351" data-name="Rechteck 351" width="576" height="576" fill="#fd9d24"/>
  <g id="sdg_11-2" data-name="sdg_11" transform="translate(53.998 50.402)">
    <path id="Pfad_14029" data-name="Pfad 14029" d="M30.5,57.968V79.662h.144l14.51-15.085h.287v94.245H66.129V35.7H49.608Z" transform="translate(-30.5 -33.545)" fill="#fff"/>
    <path id="Pfad_14030" data-name="Pfad 14030" d="M63.4,57.968V79.662h.144l14.51-15.085H78.2v94.245H99.029V35.7H82.508Z" transform="translate(-21.945 -33.545)" fill="#fff"/>
    <path id="Pfad_14031" data-name="Pfad 14031" d="M124.327,53.808V86.276H117V34.7h8.476l9.338,29.6V34.7H142V86.276h-7.614Z" transform="translate(-12.393 -33.982)" fill="#fff"/>
    <path id="Pfad_14032" data-name="Pfad 14032" d="M136.7,86.276,146.469,34.7h9.913l9.769,51.576h-8.907l-1.58-9.482h-9.195l-1.58,9.482ZM147.619,69.9h6.9L151.067,49.21h-.144Z" transform="translate(-3.791 -33.982)" fill="#fff"/>
    <path id="Pfad_14033" data-name="Pfad 14033" d="M158.7,73.134v-25c0-8.045,3.735-13.936,12.93-13.936,9.626,0,12.212,5.316,12.212,12.93v6.034h-7.9V46.412c0-3.161-1.006-5.028-4.166-5.028s-4.454,2.155-4.454,5.316V74.427c0,3.161,1.293,5.316,4.454,5.316s4.166-2.011,4.166-5.028V65.232h7.9v8.907c0,7.327-3.017,12.93-12.212,12.93S158.7,81.179,158.7,73.134Z" transform="translate(5.816 -34.2)" fill="#fff"/>
    <path id="Pfad_14034" data-name="Pfad 14034" d="M196.253,63.433H187.92v22.7H179.3V34.7h8.62V56.537h8.333V34.7h8.764V86.276h-8.764Z" transform="translate(14.811 -33.982)" fill="#fff"/>
    <path id="Pfad_14035" data-name="Pfad 14035" d="M217.453,63.433H209.12v22.7H200.5V34.7h8.62V56.537h8.333V34.7h8.764V86.276h-8.764Z" transform="translate(24.068 -33.982)" fill="#fff"/>
    <path id="Pfad_14036" data-name="Pfad 14036" d="M220.6,86.276,230.369,34.7h9.913l9.769,51.576h-8.907l-1.58-9.482h-9.195l-1.58,9.482ZM231.519,69.9h6.9L234.967,49.21h-.144Z" transform="translate(32.846 -33.982)" fill="#fff"/>
    <path id="Pfad_14037" data-name="Pfad 14037" d="M243.3,34.7h8.62V79.237h10.344v7.04H243.3Z" transform="translate(42.758 -33.982)" fill="#fff"/>
    <path id="Pfad_14038" data-name="Pfad 14038" d="M254.9,34.7h23.13v7.04h-7.183V86.276h-8.764V41.74H254.9Z" transform="translate(47.822 -33.982)" fill="#fff"/>
    <path id="Pfad_14039" data-name="Pfad 14039" d="M273.5,34.7h8.62V86.276H273.5Z" transform="translate(55.945 -33.982)" fill="#fff"/>
    <path id="Pfad_14040" data-name="Pfad 14040" d="M295.874,58.911h12.355V86.495h-6.178v-5.6c-1.149,3.879-3.592,6.178-8.333,6.178-7.471,0-10.919-5.89-10.919-13.936v-25c0-8.045,3.879-13.936,13.074-13.936,9.626,0,12.355,5.316,12.355,12.93v4.6h-7.9V46.412c0-3.161-1.149-5.028-4.31-5.028s-4.454,2.155-4.454,5.316V74.427c0,3.161,1.293,5.316,4.31,5.316,2.873,0,4.31-1.58,4.31-4.885V65.663h-4.166V58.911Z" transform="translate(60.006 -34.2)" fill="#fff"/>
    <path id="Pfad_14041" data-name="Pfad 14041" d="M303.7,34.7h20.688v7.04H312.32v14.8h8.62v7.04h-8.62v15.66h12.068v7.04H303.7Z" transform="translate(69.133 -33.982)" fill="#fff"/>
    <path id="Pfad_14042" data-name="Pfad 14042" d="M116.7,125.476v-7.04h8.045v7.04c0,2.873,1.293,4.6,4.31,4.6,2.73,0,4.023-1.868,4.023-4.6v-2.011c0-3.017-1.149-4.741-3.879-7.327l-5.172-5.172c-4.885-4.885-7.183-7.9-7.183-13.792V95.45c0-6.465,3.735-11.35,12.212-11.35,8.62,0,12.068,4.31,12.068,11.781v4.166h-7.9V95.593c0-3.017-1.437-4.454-4.166-4.454-2.442,0-4.166,1.437-4.166,4.31v1.006c0,2.873,1.58,4.6,4.166,7.04l5.6,5.459c4.741,4.741,7.04,7.758,7.04,13.361v2.442c0,7.04-3.735,12.068-12.643,12.068C120.148,137.113,116.7,132.228,116.7,125.476Z" transform="translate(-12.523 -12.411)" fill="#fff"/>
    <path id="Pfad_14043" data-name="Pfad 14043" d="M135.5,84.7h23.13v7.04h-7.183v44.537h-8.764V91.74H135.5Z" transform="translate(-4.314 -12.149)" fill="#fff"/>
    <path id="Pfad_14044" data-name="Pfad 14044" d="M150.5,138.853l9.769-51.576h9.913l9.769,51.576h-8.907l-1.58-9.482h-9.195l-1.58,9.482ZM156.821,78.8h7.327v6.609h-7.327Zm4.454,43.675h6.9l-3.448-20.688h-.144ZM166.016,78.8h7.327v6.609h-7.327Z" transform="translate(2.234 -14.724)" fill="#fff"/>
    <path id="Pfad_14045" data-name="Pfad 14045" d="M199.16,98.492v23.849c0,7.9-3.3,13.792-12.5,13.792H173.3V84.7h13.361C195.856,84.7,199.16,90.447,199.16,98.492Zm-13.648,30.745c3.592,0,4.885-2.155,4.885-5.316V96.912c0-3.017-1.437-5.172-4.885-5.172H181.92v37.5Z" transform="translate(12.191 -12.149)" fill="#fff"/>
    <path id="Pfad_14046" data-name="Pfad 14046" d="M193.044,84.7H216.03v7.04h-7.183v44.537h-8.764V91.74H192.9V84.7Z" transform="translate(20.75 -12.149)" fill="#fff"/>
    <path id="Pfad_14047" data-name="Pfad 14047" d="M211.6,84.7h20.688v7.04H220.22v14.8h8.62v7.04h-8.62v15.66h12.068v7.04H211.6Z" transform="translate(28.916 -12.149)" fill="#fff"/>
    <path id="Pfad_14048" data-name="Pfad 14048" d="M259.442,84.7v39.077c0,8.045-3.448,13.217-12.212,13.217-9.195,0-12.93-5.172-12.93-13.217V84.7h8.62v39.939c0,3.017,1.149,5.172,4.31,5.172,3.017,0,4.31-2.011,4.31-5.172V84.7Z" transform="translate(38.828 -12.149)" fill="#fff"/>
    <path id="Pfad_14049" data-name="Pfad 14049" d="M262.327,103.808v32.469H255V84.7h8.476l9.338,29.6V84.7H280v51.576h-7.614Z" transform="translate(47.867 -12.149)" fill="#fff"/>
    <path id="Pfad_14050" data-name="Pfad 14050" d="M301.56,98.492v23.849c0,7.9-3.3,13.792-12.5,13.792H275.7V84.7h13.361C298.256,84.7,301.56,90.447,301.56,98.492Zm-13.648,30.745c3.592,0,4.885-2.155,4.885-5.316V96.912c0-3.017-1.437-5.172-4.885-5.172H284.32v37.5Z" transform="translate(56.906 -12.149)" fill="#fff"/>
    <path id="Pfad_14051" data-name="Pfad 14051" d="M130.074,158.911h12.355v27.584h-6.178v-5.6c-1.149,3.879-3.592,6.178-8.333,6.178-7.471,0-10.919-5.89-10.919-13.936v-25c0-8.045,3.879-13.936,13.074-13.936,9.626,0,12.355,5.316,12.355,12.93v4.6h-7.9v-5.316c0-3.161-1.149-5.028-4.31-5.028s-4.454,2.155-4.454,5.316v27.728c0,3.161,1.293,5.316,4.31,5.316,2.873,0,4.31-1.58,4.31-4.885v-9.195h-4.166v-6.752Z" transform="translate(-12.393 9.466)" fill="#fff"/>
    <path id="Pfad_14052" data-name="Pfad 14052" d="M137.9,134.7h20.688v7.04H146.52v14.8h8.62v7.04h-8.62v15.66h12.068v7.04H137.9Z" transform="translate(-3.268 9.684)" fill="#fff"/>
    <path id="Pfad_14053" data-name="Pfad 14053" d="M179.192,152.8H178.9l-5.89,33.474h-4.023L162.527,152.8h-.144v33.474H155.2V134.7h10.057l5.6,29.021H171l5.028-29.021H186.95v51.576h-7.9V152.8Z" transform="translate(4.287 9.684)" fill="#fff"/>
    <path id="Pfad_14054" data-name="Pfad 14054" d="M180.6,134.7h20.688v7.04H189.22v14.8h8.62v7.04h-8.62v15.66h12.068v7.04H180.6Z" transform="translate(15.379 9.684)" fill="#fff"/>
    <path id="Pfad_14055" data-name="Pfad 14055" d="M198,134.7h8.62v51.576H198Z" transform="translate(22.977 9.684)" fill="#fff"/>
    <path id="Pfad_14056" data-name="Pfad 14056" d="M214.627,153.808v32.469H207.3V134.7h8.476l9.338,29.6V134.7H232.3v51.576h-7.614Z" transform="translate(27.037 9.684)" fill="#fff"/>
    <path id="Pfad_14057" data-name="Pfad 14057" d="M253.86,148.536v23.849c0,7.9-3.3,13.792-12.5,13.792H228V134.6h13.361C250.556,134.744,253.86,140.49,253.86,148.536ZM240.212,179.28c3.592,0,4.885-2.155,4.885-5.316V146.955c0-3.017-1.437-5.172-4.885-5.172H236.62v37.5Z" transform="translate(36.076 9.641)" fill="#fff"/>
    <path id="Pfad_14058" data-name="Pfad 14058" d="M249.2,134.7h20.688v7.04H257.82v14.8h8.62v7.04h-8.62v15.66h12.068v7.04H249.2V134.7Z" transform="translate(45.334 9.684)" fill="#fff"/>
    <path id="Pfad_14059" data-name="Pfad 14059" d="M273.927,153.808v32.469H266.6V134.7h8.476l9.338,29.6V134.7H291.6v51.576h-7.614Z" transform="translate(52.932 9.684)" fill="#fff"/>
    <path id="Pfad_14060" data-name="Pfad 14060" d="M94.811,349.944h76.431a1.9,1.9,0,0,0,1.868-1.868,2.317,2.317,0,0,0-.431-1.293l-.144-.144-38.072-49.134-.431-.431a1.666,1.666,0,0,0-1.437-.575,2.318,2.318,0,0,0-1.293.431l-.287.287-.287.431-37.066,48.7-.575.718a2.664,2.664,0,0,0-.287,1.006A2.145,2.145,0,0,0,94.811,349.944Z" transform="translate(-22.205 42.741)" fill="#fff"/>
    <path id="Pfad_14061" data-name="Pfad 14061" d="M171.142,338.5H94.568a1.9,1.9,0,0,0-1.868,1.868v59.909a1.9,1.9,0,0,0,1.868,1.868h24.711V364.5a1.9,1.9,0,0,1,1.868-1.868h22.843a1.9,1.9,0,0,1,1.868,1.868v37.641h25.285a1.9,1.9,0,0,0,1.868-1.868V340.368A1.9,1.9,0,0,0,171.142,338.5Z" transform="translate(-22.248 61.082)" fill="#fff"/>
    <path id="Pfad_14062" data-name="Pfad 14062" d="M355.123,327.6H279.268a1.9,1.9,0,0,0-1.868,1.868v76.574a1.9,1.9,0,0,0,1.868,1.868h75.856a1.9,1.9,0,0,0,1.868-1.868V329.468a1.811,1.811,0,0,0-1.868-1.868m-41.52,50a1.9,1.9,0,0,1-1.868,1.868h-22.7a1.9,1.9,0,0,1-1.868-1.868V363.8a1.9,1.9,0,0,1,1.868-1.868h22.7A1.9,1.9,0,0,1,313.6,363.8Zm0-25.429a1.9,1.9,0,0,1-1.868,1.868h-22.7a1.9,1.9,0,0,1-1.868-1.868V338.375a1.9,1.9,0,0,1,1.868-1.868h22.7a1.9,1.9,0,0,1,1.868,1.868ZM348.228,377.6a1.9,1.9,0,0,1-1.868,1.868h-22.7a1.9,1.9,0,0,1-1.868-1.868V363.8a1.9,1.9,0,0,1,1.868-1.868h22.7a1.9,1.9,0,0,1,1.868,1.868Zm0-25.429a1.9,1.9,0,0,1-1.868,1.868h-22.7a1.9,1.9,0,0,1-1.868-1.868V338.375a1.9,1.9,0,0,1,1.868-1.868h22.7a1.9,1.9,0,0,1,1.868,1.868Z" transform="translate(58.402 56.322)" fill="#fff"/>
    <path id="Pfad_14063" data-name="Pfad 14063" d="M231.9,203.9H157.768a1.9,1.9,0,0,0-1.868,1.868V459.339a1.9,1.9,0,0,0,1.868,1.868H231.9a1.9,1.9,0,0,0,1.868-1.868V205.768A1.9,1.9,0,0,0,231.9,203.9M187.794,432.186a.982.982,0,0,1-1.006,1.006H169.836a.982.982,0,0,1-1.006-1.006V413.222a.982.982,0,0,1,1.006-1.006h16.953a.982.982,0,0,1,1.006,1.006Zm0-43.387a.982.982,0,0,1-1.006,1.006H169.836a.982.982,0,0,1-1.006-1.006V369.835a.982.982,0,0,1,1.006-1.006h16.953a.982.982,0,0,1,1.006,1.006Zm0-43.531a.982.982,0,0,1-1.006,1.006H169.836a.982.982,0,0,1-1.006-1.006V326.3a.982.982,0,0,1,1.006-1.006h16.953a.982.982,0,0,1,1.006,1.006Zm0-43.531a.982.982,0,0,1-1.006,1.006H169.836a.982.982,0,0,1-1.006-1.006V282.773a.982.982,0,0,1,1.006-1.006h16.953a.982.982,0,0,1,1.006,1.006Zm0-43.387a.982.982,0,0,1-1.006,1.006H169.836a.982.982,0,0,1-1.006-1.006V239.386a.982.982,0,0,1,1.006-1.006h16.953a.982.982,0,0,1,1.006,1.006Zm33.331,173.836a.982.982,0,0,1-1.006,1.006H203.166a.982.982,0,0,1-1.006-1.006V413.222a.982.982,0,0,1,1.006-1.006h16.953a.982.982,0,0,1,1.006,1.006Zm0-43.387a.982.982,0,0,1-1.006,1.006H203.166a.982.982,0,0,1-1.006-1.006V369.835a.982.982,0,0,1,1.006-1.006h16.953a.982.982,0,0,1,1.006,1.006Zm0-43.531a.982.982,0,0,1-1.006,1.006H203.166a.982.982,0,0,1-1.006-1.006V326.3a.982.982,0,0,1,1.006-1.006h16.953a.982.982,0,0,1,1.006,1.006Zm0-43.531a.982.982,0,0,1-1.006,1.006H203.166a.982.982,0,0,1-1.006-1.006V282.773a.982.982,0,0,1,1.006-1.006h16.953a.982.982,0,0,1,1.006,1.006Zm0-43.387a.982.982,0,0,1-1.006,1.006H203.166a.982.982,0,0,1-1.006-1.006V239.386a.982.982,0,0,1,1.006-1.006h16.953a.982.982,0,0,1,1.006,1.006Z" transform="translate(5.35 2.307)" fill="#fff"/>
    <path id="Pfad_14064" data-name="Pfad 14064" d="M356.847,327.309a1.594,1.594,0,0,1-1.58,1.58H278.98a1.594,1.594,0,0,1-1.581-1.58V312.08a1.594,1.594,0,0,1,1.581-1.58h76.287a1.594,1.594,0,0,1,1.58,1.58Z" transform="translate(58.404 48.855)" fill="#fff"/>
    <path id="Pfad_14065" data-name="Pfad 14065" d="M294.692,237.737a1.984,1.984,0,0,0-1.868-1.437,2.077,2.077,0,0,0-1.006.287.141.141,0,0,0-.144.144l-.575.718-72.839,92.521-.287.431a1.844,1.844,0,0,0-.575,1.437v113.64a1.9,1.9,0,0,0,1.868,1.868H293.4a1.9,1.9,0,0,0,1.868-1.868V238.455C294.836,238.168,294.836,237.88,294.692,237.737Zm-30.745,50.14.575-.718c5.028-6.465,13.361-16.809,17.527-21.837l.575-.575a2.307,2.307,0,0,1,1.58-.718,2.014,2.014,0,0,1,2.011,1.724v23.561a2.184,2.184,0,0,1-2.011,2.155h-18.82a2.087,2.087,0,0,1-2.011-2.155A9.9,9.9,0,0,0,263.948,287.876ZM252.455,417.463a1.9,1.9,0,0,1-1.868,1.868H228.462a1.9,1.9,0,0,1-1.868-1.868V403.671a1.9,1.9,0,0,1,1.868-1.868h22.125a1.9,1.9,0,0,1,1.868,1.868Zm0-25.573a1.9,1.9,0,0,1-1.868,1.868H228.462a1.9,1.9,0,0,1-1.868-1.868V378.1a1.9,1.9,0,0,1,1.868-1.868h22.125a1.9,1.9,0,0,1,1.868,1.868Zm0-25.573a1.9,1.9,0,0,1-1.868,1.868H228.462a1.9,1.9,0,0,1-1.868-1.868V352.526a1.9,1.9,0,0,1,1.868-1.868h22.125a1.9,1.9,0,0,1,1.868,1.868Zm.144-56.03v30.457a1.9,1.9,0,0,1-1.868,1.868H228.606a1.9,1.9,0,0,1-1.868-1.868v-3.879a1.3,1.3,0,0,1,.144-.718c0-.144,0-.144.144-.144,0-.144.144-.144.144-.287s.144-.144.144-.287c2.873-4.023,15.516-19.682,20.975-26.291l.575-.718a2.307,2.307,0,0,1,1.58-.718,2.014,2.014,0,0,1,2.011,1.724v.862Zm33.618,107.175a1.9,1.9,0,0,1-1.868,1.868H262.224a1.9,1.9,0,0,1-1.868-1.868V403.671a1.9,1.9,0,0,1,1.868-1.868h22.125a1.9,1.9,0,0,1,1.868,1.868Zm0-25.573a1.9,1.9,0,0,1-1.868,1.868H262.224a1.9,1.9,0,0,1-1.868-1.868V378.1a1.9,1.9,0,0,1,1.868-1.868h22.125a1.9,1.9,0,0,1,1.868,1.868Zm0-25.573a1.9,1.9,0,0,1-1.868,1.868H262.224a1.9,1.9,0,0,1-1.868-1.868V352.526a1.9,1.9,0,0,1,1.868-1.868h22.125a1.9,1.9,0,0,1,1.868,1.868Zm0-25.573a1.9,1.9,0,0,1-1.868,1.868H262.224a1.9,1.9,0,0,1-1.868-1.868V326.953a1.9,1.9,0,0,1,1.868-1.868h22.125a1.9,1.9,0,0,1,1.868,1.868Zm0-25.573a1.9,1.9,0,0,1-1.868,1.868H262.224a1.9,1.9,0,0,1-1.868-1.868V301.381a1.9,1.9,0,0,1,1.868-1.868h22.125a1.9,1.9,0,0,1,1.868,1.868Z" transform="translate(32.203 16.454)" fill="#fff"/>
  </g>
</svg>