<svg id="sdg_3" xmlns="http://www.w3.org/2000/svg" width="576" height="576" viewBox="0 0 576 576">
  <path id="Pfad_14581" data-name="Pfad 14581" d="M0,0H576V576H0Z" fill="#4c9f38"/>
  <path id="Pfad_14510" data-name="Pfad 14510" d="M67.6,153.209c19.69,0,28.186-10.384,28.186-26.433V109.648c0-10.519-4.585-17.4-14.3-19.555,7.957-2.562,13.351-9.036,13.351-18.746V61.233c0-16.318-7.822-26.433-25.759-26.433-20.094,0-27.107,12-27.107,29V74.045h17.8V62.312c0-7.148,2.158-11.194,8.361-11.194S76.5,55.164,76.5,61.5V73.91c0,6.2-4.046,9.44-10.384,9.44H58.567V98.185h8.227c6.878,0,9.575,3.237,9.575,9.44v19.15c0,6.2-2.7,10.384-8.631,10.384-6.608,0-9.036-4.45-9.036-11.328V109.109H40.9v15.239c0,17.532,6.878,28.86,26.7,28.86" transform="translate(15.18 12.799)" fill="#fff"/>
  <g id="Icon_3_1_" transform="translate(95.723 216.573)" style="mix-blend-mode: normal;isolation: isolate">
    <path id="Pfad_14511" data-name="Pfad 14511" d="M380.666,273.465c0-16.183-10.384-29.265-26.028-29.265-7.822,0-17.262,8.631-22.387,13.891-5.125-5.26-14.026-13.891-21.848-13.891-15.644,0-26.7,13.082-26.7,29.265a29.5,29.5,0,0,0,8.361,20.634h0l40.189,40.324,40.189-40.189h0A30.574,30.574,0,0,0,380.666,273.465Z" transform="translate(4.096 -130.772)" fill="#fff"/>
    <g id="Gruppe_1017" data-name="Gruppe 1017">
      <path id="Pfad_14512" data-name="Pfad 14512" d="M283.787,429.422h-.4a6.468,6.468,0,0,1-6.069-5.529L256.949,304.944,226.066,362.26a6.515,6.515,0,0,1-7.013,3.372,6.584,6.584,0,0,1-5.394-5.529l-13.082-91.841-24.005,53.945a6.5,6.5,0,0,1-6.069,3.911H76.908a6.608,6.608,0,1,1,0-13.216h89.144l31.558-71.072a6.7,6.7,0,0,1,7.013-3.911,6.582,6.582,0,0,1,5.664,5.664l13.486,94.673,30.479-56.642a6.518,6.518,0,0,1,6.878-3.372,6.3,6.3,0,0,1,5.394,5.395L285.4,393.818l68.914-229a6.832,6.832,0,0,1,5.8-4.72,6.66,6.66,0,0,1,6.473,3.776l36.278,75.253A6.575,6.575,0,1,1,391,244.8l-28.86-59.879L289.99,424.567A6.22,6.22,0,0,1,283.787,429.422Z" transform="translate(-70.3 -160.093)" fill="#fff"/>
    </g>
  </g>
  <g id="Gruppe_1018" data-name="Gruppe 1018" transform="translate(159.652 46.789)" style="mix-blend-mode: normal;isolation: isolate">
    <path id="Pfad_14513" data-name="Pfad 14513" d="M130.872,57.5h11.6V83.39h-5.8V78.13c-1.079,3.641-3.371,5.8-7.822,5.8-7.013,0-10.249-5.529-10.249-13.082V47.382c0-7.552,3.641-13.082,12.272-13.082,9.036,0,11.6,4.99,11.6,12.138v4.316h-7.417v-4.99c0-2.967-1.079-4.72-4.046-4.72s-4.181,2.023-4.181,4.99V72.061c0,2.967,1.214,4.99,4.046,4.99,2.7,0,4.046-1.483,4.046-4.585V63.835h-3.911V57.5Z" transform="translate(-117.386 -34.165)" fill="#fff"/>
    <path id="Pfad_14514" data-name="Pfad 14514" d="M139.4,34.8h19.42v6.608H147.492V55.3h8.092v6.608h-8.092v14.7H158.82v6.608H139.4Z" transform="translate(-110.135 -33.991)" fill="#fff"/>
    <path id="Pfad_14515" data-name="Pfad 14515" d="M156.2,72.905V66.432h7.552V73.04c0,2.7,1.214,4.316,4.046,4.316,2.562,0,3.776-1.753,3.776-4.316V71.152c0-2.832-1.079-4.45-3.641-6.878l-4.855-4.855c-4.585-4.585-6.743-7.417-6.743-12.947V44.854c0-6.069,3.507-10.654,11.463-10.654,8.092,0,11.328,4.046,11.328,11.059V49.17h-7.417V44.989c0-2.832-1.349-4.181-3.911-4.181-2.293,0-3.911,1.349-3.911,4.046V45.8c0,2.7,1.483,4.316,3.911,6.608l5.26,5.125c4.45,4.45,6.608,7.283,6.608,12.542v2.293c0,6.608-3.506,11.328-11.868,11.328C159.437,83.964,156.2,79.379,156.2,72.905Z" transform="translate(-104.278 -34.2)" fill="#fff"/>
    <path id="Pfad_14516" data-name="Pfad 14516" d="M200.1,34.8V71.482c0,7.552-3.237,12.407-11.463,12.407-8.631,0-12.138-4.855-12.138-12.407V34.8h8.092V72.292c0,2.832,1.079,4.855,4.046,4.855s4.046-1.888,4.046-4.855V34.8Z" transform="translate(-97.201 -33.991)" fill="#fff"/>
    <path id="Pfad_14517" data-name="Pfad 14517" d="M204.078,52.737V83.215H197.2V34.8h7.957l8.766,27.782V34.8h6.743V83.215h-7.148Z" transform="translate(-89.985 -33.991)" fill="#fff"/>
    <path id="Pfad_14518" data-name="Pfad 14518" d="M242.175,47.747V70.134c0,7.417-3.1,12.947-11.733,12.947H217.9V34.8h12.542C239.208,34.8,242.175,40.194,242.175,47.747ZM229.5,76.607c3.371,0,4.585-2.023,4.585-4.99V46.263c0-2.832-1.349-4.855-4.585-4.855h-3.372v35.2Z" transform="translate(-82.768 -33.991)" fill="#fff"/>
    <path id="Pfad_14519" data-name="Pfad 14519" d="M255.114,61.772h-7.822V83.081H239.2V34.8h8.092V55.3h7.822V34.8h8.227V83.215h-8.227Z" transform="translate(-75.343 -33.991)" fill="#fff"/>
    <path id="Pfad_14520" data-name="Pfad 14520" d="M260.3,34.8h19.42v6.608H268.392V55.3h8.092v6.608h-8.092v14.7H279.72v6.608H260.3Z" transform="translate(-67.987 -33.991)" fill="#fff"/>
    <path id="Pfad_14521" data-name="Pfad 14521" d="M277.7,34.8h8.092V83.215H277.7Z" transform="translate(-61.921 -33.991)" fill="#fff"/>
    <path id="Pfad_14522" data-name="Pfad 14522" d="M286.2,34.8h21.713v6.608H301.17V83.215h-8.227V41.408H286.2Z" transform="translate(-58.957 -33.991)" fill="#fff"/>
    <path id="Pfad_14523" data-name="Pfad 14523" d="M333.8,34.8V71.482c0,7.552-3.237,12.407-11.463,12.407-8.631,0-12.138-4.855-12.138-12.407V34.8h8.092V72.292c0,2.832,1.079,4.855,4.046,4.855,2.832,0,4.046-1.888,4.046-4.855V34.8Z" transform="translate(-50.591 -33.991)" fill="#fff"/>
    <path id="Pfad_14524" data-name="Pfad 14524" d="M337.778,52.737V83.215H330.9V34.8h7.957l8.766,27.782V34.8h6.743V83.215h-7.148Z" transform="translate(-43.374 -33.991)" fill="#fff"/>
    <path id="Pfad_14525" data-name="Pfad 14525" d="M375.875,47.747V70.134c0,7.417-3.1,12.947-11.733,12.947H351.6V34.8h12.542C372.773,34.8,375.875,40.194,375.875,47.747Zm-12.812,28.86c3.372,0,4.585-2.023,4.585-4.99V46.263c0-2.832-1.349-4.855-4.585-4.855h-3.372v35.2Z" transform="translate(-36.158 -33.991)" fill="#fff"/>
    <path id="Pfad_14526" data-name="Pfad 14526" d="M136.446,103.276l-4.585,29.939h-7.687L117.7,84.8h7.822l3.776,30.749h.135L133.479,84.8h6.608l4.451,30.749h.135L148.449,84.8h6.878l-6.339,48.415H141.3l-4.855-29.939Z" transform="translate(-117.7 -16.56)" fill="#fff"/>
    <path id="Pfad_14527" data-name="Pfad 14527" d="M147.4,120.848V97.382c0-7.552,3.776-13.082,12.272-13.082,8.631,0,12.407,5.529,12.407,13.082v23.466c0,7.552-3.776,13.082-12.407,13.082S147.4,128.4,147.4,120.848Zm16.453,1.349V96.168c0-2.967-1.349-4.99-4.181-4.99s-4.181,2.023-4.181,4.99V122.2c0,2.967,1.349,4.99,4.181,4.99C162.639,127.186,163.853,125.028,163.853,122.2Z" transform="translate(-107.346 -16.734)" fill="#fff"/>
    <path id="Pfad_14528" data-name="Pfad 14528" d="M184.814,111.772h-7.822v21.308H168.9V84.8h8.092v20.5h7.822V84.8h8.227v48.415h-8.227Z" transform="translate(-99.851 -16.56)" fill="#fff"/>
    <path id="Pfad_14529" data-name="Pfad 14529" d="M190,84.8h8.092v41.807h9.71v6.608H190Z" transform="translate(-92.495 -16.56)" fill="#fff"/>
    <path id="Pfad_14530" data-name="Pfad 14530" d="M205.7,84.8h19.42v6.608H213.792V105.3h8.092v6.608h-8.092v14.7H225.12v6.608H205.7Z" transform="translate(-87.021 -16.56)" fill="#fff"/>
    <path id="Pfad_14531" data-name="Pfad 14531" d="M231.292,110.963v22.252H223.2V84.8h11.868c8.227,0,11.194,4.046,11.194,10.924v6.2c0,5.26-1.888,8.227-6.473,9.305l7.822,21.982h-8.631Zm0-19.555v15.1h2.7c2.832,0,4.046-1.483,4.046-4.046V95.319c0-2.7-1.214-3.911-4.046-3.911Z" transform="translate(-80.921 -16.56)" fill="#fff"/>
    <path id="Pfad_14532" data-name="Pfad 14532" d="M255.572,107.5h11.6V133.39h-5.8v-5.26c-1.079,3.641-3.372,5.8-7.822,5.8-7.013,0-10.25-5.529-10.25-13.082V97.382c0-7.552,3.641-13.082,12.273-13.082,9.036,0,11.6,4.99,11.6,12.138v4.316h-7.417v-4.99c0-2.967-1.079-4.72-4.046-4.72s-4.181,2.023-4.181,4.99v26.028c0,2.967,1.214,4.99,4.046,4.99,2.7,0,4.046-1.483,4.046-4.585v-8.631h-3.911V107.5Z" transform="translate(-73.913 -16.734)" fill="#fff"/>
    <path id="Pfad_14533" data-name="Pfad 14533" d="M264.1,84.8h19.42v6.608H272.192V105.3h8.092v6.608h-8.092v14.7H283.52v6.608H264.1Z" transform="translate(-66.662 -16.56)" fill="#fff"/>
    <path id="Pfad_14534" data-name="Pfad 14534" d="M297.514,111.772h-7.822v21.308H281.6V84.8h8.092v20.5h7.822V84.8h8.227v48.415h-8.227Z" transform="translate(-60.561 -16.56)" fill="#fff"/>
    <path id="Pfad_14535" data-name="Pfad 14535" d="M302.7,84.8h19.42v6.608H310.792V105.3h8.092v6.608h-8.092v14.7H322.12v6.608H302.7Z" transform="translate(-53.205 -16.56)" fill="#fff"/>
    <path id="Pfad_14536" data-name="Pfad 14536" d="M326.878,102.737v30.479H320V84.8h7.957l8.766,27.782V84.8h6.743v48.415h-7.148Z" transform="translate(-47.174 -16.56)" fill="#fff"/>
  </g>
</svg>